G04 MADE WITH FRITZING*
G04 WWW.FRITZING.ORG*
G04 DOUBLE SIDED*
G04 HOLES PLATED*
G04 CONTOUR ON CENTER OF CONTOUR VECTOR*
%ASAXBY*%
%FSLAX23Y23*%
%MOIN*%
%OFA0B0*%
%SFA1.0B1.0*%
%ADD10C,0.008*%
%LNCONTOUR*%
G90*
G70*
G54D10*
X368Y3405D02*
X369Y3405D01*
X370Y3405D01*
X371Y3405D01*
X372Y3405D01*
X373Y3405D01*
X374Y3405D01*
X375Y3405D01*
X376Y3405D01*
X377Y3405D01*
X378Y3405D01*
X379Y3405D01*
X380Y3405D01*
X381Y3405D01*
X382Y3405D01*
X383Y3405D01*
X384Y3405D01*
X385Y3405D01*
X386Y3405D01*
X387Y3405D01*
X388Y3405D01*
X389Y3405D01*
X390Y3405D01*
X391Y3405D01*
X392Y3405D01*
X393Y3405D01*
X394Y3405D01*
X395Y3405D01*
X396Y3405D01*
X397Y3405D01*
X398Y3405D01*
X399Y3405D01*
X400Y3405D01*
X401Y3405D01*
X402Y3405D01*
X403Y3405D01*
X404Y3405D01*
X405Y3405D01*
X406Y3405D01*
X407Y3405D01*
X408Y3405D01*
X409Y3405D01*
X410Y3405D01*
X411Y3405D01*
X412Y3405D01*
X413Y3405D01*
X414Y3405D01*
X415Y3405D01*
X416Y3405D01*
X417Y3405D01*
X418Y3405D01*
X419Y3405D01*
X420Y3405D01*
X421Y3405D01*
X422Y3405D01*
X423Y3405D01*
X424Y3405D01*
X425Y3405D01*
X426Y3405D01*
X427Y3405D01*
X428Y3405D01*
X429Y3405D01*
X430Y3405D01*
X431Y3405D01*
X432Y3405D01*
X433Y3405D01*
X434Y3405D01*
X435Y3405D01*
X436Y3405D01*
X437Y3405D01*
X438Y3405D01*
X439Y3405D01*
X440Y3405D01*
X441Y3405D01*
X442Y3405D01*
X443Y3405D01*
X444Y3405D01*
X445Y3405D01*
X446Y3405D01*
X447Y3405D01*
X448Y3405D01*
X449Y3405D01*
X450Y3405D01*
X451Y3405D01*
X452Y3405D01*
X453Y3405D01*
X454Y3405D01*
X455Y3405D01*
X456Y3405D01*
X457Y3405D01*
X458Y3405D01*
X459Y3405D01*
X460Y3405D01*
X461Y3405D01*
X462Y3405D01*
X463Y3405D01*
X464Y3405D01*
X465Y3405D01*
X466Y3405D01*
X467Y3405D01*
X468Y3405D01*
X469Y3405D01*
X470Y3405D01*
X471Y3405D01*
X472Y3405D01*
X473Y3405D01*
X474Y3405D01*
X475Y3405D01*
X476Y3405D01*
X477Y3405D01*
X478Y3405D01*
X479Y3405D01*
X480Y3405D01*
X481Y3405D01*
X482Y3405D01*
X483Y3405D01*
X484Y3405D01*
X485Y3405D01*
X486Y3405D01*
X487Y3405D01*
X488Y3405D01*
X489Y3405D01*
X490Y3405D01*
X491Y3405D01*
X492Y3405D01*
X493Y3405D01*
X494Y3405D01*
X495Y3405D01*
X496Y3405D01*
X497Y3405D01*
X498Y3405D01*
X499Y3405D01*
X500Y3405D01*
X501Y3405D01*
X502Y3405D01*
X503Y3405D01*
X504Y3405D01*
X505Y3405D01*
X506Y3405D01*
X507Y3405D01*
X508Y3405D01*
X509Y3405D01*
X510Y3405D01*
X511Y3405D01*
X512Y3405D01*
X513Y3405D01*
X514Y3405D01*
X515Y3405D01*
X516Y3405D01*
X517Y3405D01*
X518Y3405D01*
X519Y3405D01*
X520Y3405D01*
X521Y3405D01*
X522Y3405D01*
X523Y3405D01*
X524Y3405D01*
X525Y3405D01*
X526Y3405D01*
X527Y3405D01*
X528Y3405D01*
X529Y3405D01*
X530Y3405D01*
X531Y3405D01*
X532Y3405D01*
X533Y3405D01*
X534Y3405D01*
X535Y3405D01*
X536Y3405D01*
X537Y3405D01*
X538Y3405D01*
X539Y3405D01*
X540Y3405D01*
X541Y3405D01*
X542Y3405D01*
X543Y3405D01*
X544Y3405D01*
X545Y3405D01*
X546Y3405D01*
X547Y3405D01*
X548Y3405D01*
X549Y3405D01*
X550Y3405D01*
X551Y3405D01*
X552Y3405D01*
X553Y3405D01*
X554Y3405D01*
X555Y3405D01*
X556Y3405D01*
X557Y3405D01*
X558Y3405D01*
X559Y3405D01*
X560Y3405D01*
X561Y3405D01*
X562Y3405D01*
X563Y3405D01*
X564Y3405D01*
X565Y3405D01*
X566Y3405D01*
X567Y3405D01*
X568Y3405D01*
X569Y3405D01*
X570Y3405D01*
X571Y3405D01*
X572Y3405D01*
X573Y3405D01*
X574Y3405D01*
X575Y3405D01*
X576Y3405D01*
X577Y3405D01*
X578Y3405D01*
X579Y3405D01*
X580Y3405D01*
X581Y3405D01*
X582Y3405D01*
X583Y3405D01*
X584Y3405D01*
X585Y3405D01*
X586Y3405D01*
X587Y3405D01*
X588Y3405D01*
X589Y3405D01*
X590Y3405D01*
X591Y3405D01*
X592Y3405D01*
X593Y3405D01*
X594Y3405D01*
X595Y3405D01*
X596Y3405D01*
X597Y3405D01*
X598Y3405D01*
X599Y3405D01*
X600Y3405D01*
X601Y3405D01*
X602Y3405D01*
X603Y3405D01*
X604Y3405D01*
X605Y3405D01*
X606Y3405D01*
X607Y3405D01*
X608Y3405D01*
X609Y3405D01*
X610Y3405D01*
X611Y3405D01*
X612Y3405D01*
X613Y3405D01*
X614Y3405D01*
X615Y3405D01*
X616Y3405D01*
X617Y3405D01*
X618Y3405D01*
X619Y3405D01*
X620Y3405D01*
X621Y3405D01*
X622Y3405D01*
X623Y3405D01*
X624Y3405D01*
X625Y3405D01*
X626Y3405D01*
X627Y3405D01*
X628Y3405D01*
X629Y3405D01*
X630Y3405D01*
X631Y3405D01*
X632Y3405D01*
X633Y3405D01*
X634Y3405D01*
X635Y3405D01*
X636Y3405D01*
X637Y3405D01*
X638Y3405D01*
X639Y3405D01*
X640Y3405D01*
X641Y3405D01*
X642Y3405D01*
X643Y3405D01*
X644Y3405D01*
X645Y3405D01*
X646Y3405D01*
X647Y3405D01*
X648Y3405D01*
X649Y3405D01*
X650Y3405D01*
X651Y3405D01*
X652Y3405D01*
X653Y3405D01*
X654Y3405D01*
X655Y3405D01*
X656Y3405D01*
X657Y3405D01*
X658Y3405D01*
X659Y3405D01*
X660Y3405D01*
X661Y3405D01*
X662Y3405D01*
X663Y3405D01*
X664Y3405D01*
X665Y3405D01*
X666Y3405D01*
X667Y3405D01*
X668Y3405D01*
X669Y3405D01*
X670Y3405D01*
X671Y3405D01*
X672Y3405D01*
X673Y3405D01*
X674Y3405D01*
X675Y3405D01*
X676Y3405D01*
X677Y3405D01*
X678Y3405D01*
X679Y3405D01*
X680Y3405D01*
X681Y3405D01*
X682Y3405D01*
X683Y3405D01*
X684Y3405D01*
X685Y3405D01*
X686Y3405D01*
X687Y3405D01*
X688Y3405D01*
X689Y3405D01*
X690Y3405D01*
X691Y3405D01*
X692Y3405D01*
X693Y3405D01*
X694Y3405D01*
X695Y3405D01*
X696Y3405D01*
X697Y3405D01*
X698Y3405D01*
X699Y3405D01*
X700Y3405D01*
X701Y3405D01*
X702Y3405D01*
X703Y3405D01*
X704Y3405D01*
X705Y3405D01*
X706Y3405D01*
X707Y3405D01*
X708Y3405D01*
X709Y3405D01*
X710Y3405D01*
X711Y3405D01*
X712Y3405D01*
X713Y3405D01*
X714Y3405D01*
X715Y3405D01*
X716Y3405D01*
X717Y3405D01*
X718Y3405D01*
X719Y3405D01*
X720Y3405D01*
X721Y3405D01*
X722Y3405D01*
X723Y3405D01*
X724Y3405D01*
X725Y3405D01*
X726Y3405D01*
X727Y3405D01*
X728Y3405D01*
X729Y3405D01*
X730Y3405D01*
X731Y3405D01*
X732Y3405D01*
X733Y3405D01*
X734Y3405D01*
X735Y3405D01*
X736Y3405D01*
X737Y3405D01*
X738Y3405D01*
X739Y3405D01*
X740Y3405D01*
X741Y3405D01*
X742Y3405D01*
X743Y3405D01*
X744Y3405D01*
X745Y3405D01*
X746Y3405D01*
X747Y3405D01*
X748Y3405D01*
X749Y3405D01*
X750Y3405D01*
X751Y3405D01*
X752Y3405D01*
X753Y3405D01*
X754Y3405D01*
X755Y3405D01*
X756Y3405D01*
X757Y3405D01*
X758Y3405D01*
X759Y3405D01*
X760Y3405D01*
X761Y3405D01*
X762Y3405D01*
X763Y3405D01*
X764Y3405D01*
X765Y3405D01*
X766Y3405D01*
X767Y3405D01*
X768Y3405D01*
X769Y3405D01*
X770Y3405D01*
X771Y3405D01*
X772Y3405D01*
X773Y3405D01*
X774Y3405D01*
X775Y3405D01*
X776Y3405D01*
X777Y3405D01*
X778Y3405D01*
X779Y3405D01*
X780Y3405D01*
X781Y3405D01*
X782Y3405D01*
X783Y3405D01*
X784Y3405D01*
X785Y3405D01*
X786Y3405D01*
X787Y3405D01*
X788Y3405D01*
X789Y3405D01*
X790Y3405D01*
X791Y3405D01*
X792Y3405D01*
X793Y3405D01*
X794Y3405D01*
X795Y3405D01*
X796Y3405D01*
X797Y3405D01*
X798Y3405D01*
X799Y3405D01*
X800Y3405D01*
X801Y3405D01*
X802Y3405D01*
X803Y3405D01*
X804Y3405D01*
X805Y3405D01*
X806Y3405D01*
X807Y3405D01*
X808Y3405D01*
X809Y3405D01*
X810Y3405D01*
X811Y3405D01*
X812Y3405D01*
X813Y3405D01*
X814Y3405D01*
X815Y3405D01*
X816Y3405D01*
X817Y3405D01*
X818Y3405D01*
X819Y3405D01*
X820Y3405D01*
X821Y3405D01*
X822Y3405D01*
X823Y3405D01*
X824Y3405D01*
X825Y3405D01*
X826Y3405D01*
X827Y3405D01*
X828Y3405D01*
X829Y3405D01*
X830Y3405D01*
X831Y3405D01*
X832Y3405D01*
X833Y3405D01*
X834Y3405D01*
X835Y3405D01*
X836Y3405D01*
X837Y3405D01*
X838Y3405D01*
X839Y3405D01*
X840Y3405D01*
X841Y3405D01*
X842Y3405D01*
X843Y3405D01*
X844Y3405D01*
X845Y3405D01*
X846Y3405D01*
X847Y3405D01*
X848Y3405D01*
X849Y3405D01*
X850Y3405D01*
X851Y3405D01*
X852Y3405D01*
X853Y3405D01*
X854Y3405D01*
X855Y3405D01*
X856Y3405D01*
X857Y3405D01*
X858Y3405D01*
X859Y3405D01*
X860Y3405D01*
X861Y3405D01*
X862Y3405D01*
X863Y3405D01*
X864Y3405D01*
X865Y3405D01*
X866Y3405D01*
X867Y3405D01*
X868Y3405D01*
X869Y3405D01*
X870Y3405D01*
X871Y3405D01*
X872Y3405D01*
X873Y3405D01*
X874Y3405D01*
X875Y3405D01*
X876Y3405D01*
X877Y3405D01*
X878Y3405D01*
X879Y3405D01*
X880Y3405D01*
X881Y3405D01*
X882Y3405D01*
X883Y3405D01*
X884Y3405D01*
X885Y3405D01*
X886Y3405D01*
X887Y3405D01*
X888Y3405D01*
X889Y3405D01*
X890Y3405D01*
X891Y3405D01*
X892Y3405D01*
X893Y3405D01*
X894Y3405D01*
X895Y3405D01*
X896Y3405D01*
X897Y3405D01*
X898Y3405D01*
X899Y3405D01*
X900Y3405D01*
X901Y3405D01*
X902Y3405D01*
X903Y3405D01*
X904Y3405D01*
X905Y3405D01*
X906Y3405D01*
X907Y3405D01*
X908Y3405D01*
X909Y3405D01*
X910Y3405D01*
X911Y3405D01*
X912Y3405D01*
X913Y3405D01*
X914Y3405D01*
X915Y3405D01*
X916Y3405D01*
X917Y3405D01*
X918Y3405D01*
X919Y3405D01*
X920Y3405D01*
X921Y3405D01*
X922Y3405D01*
X923Y3405D01*
X924Y3405D01*
X925Y3405D01*
X926Y3405D01*
X927Y3405D01*
X928Y3405D01*
X929Y3405D01*
X930Y3405D01*
X931Y3405D01*
X932Y3405D01*
X933Y3405D01*
X934Y3405D01*
X935Y3405D01*
X936Y3405D01*
X937Y3405D01*
X938Y3405D01*
X939Y3405D01*
X940Y3405D01*
X941Y3405D01*
X942Y3405D01*
X943Y3405D01*
X944Y3405D01*
X945Y3405D01*
X946Y3405D01*
X947Y3405D01*
X948Y3405D01*
X949Y3405D01*
X950Y3405D01*
X951Y3405D01*
X952Y3405D01*
X953Y3405D01*
X954Y3405D01*
X955Y3405D01*
X956Y3405D01*
X957Y3405D01*
X958Y3405D01*
X959Y3405D01*
X960Y3405D01*
X961Y3405D01*
X962Y3405D01*
X963Y3405D01*
X964Y3405D01*
X965Y3405D01*
X966Y3405D01*
X967Y3405D01*
X968Y3405D01*
X969Y3405D01*
X970Y3405D01*
X971Y3405D01*
X972Y3405D01*
X973Y3405D01*
X974Y3405D01*
X975Y3405D01*
X976Y3405D01*
X977Y3405D01*
X978Y3405D01*
X979Y3405D01*
X980Y3405D01*
X981Y3405D01*
X982Y3405D01*
X983Y3405D01*
X984Y3405D01*
X985Y3405D01*
X986Y3405D01*
X987Y3405D01*
X988Y3405D01*
X989Y3405D01*
X990Y3405D01*
X991Y3405D01*
X992Y3405D01*
X993Y3405D01*
X994Y3405D01*
X995Y3405D01*
X996Y3405D01*
X997Y3405D01*
X998Y3405D01*
X999Y3405D01*
X1000Y3405D01*
X1001Y3405D01*
X1002Y3405D01*
X1003Y3405D01*
X1004Y3405D01*
X1005Y3405D01*
X1006Y3405D01*
X1007Y3405D01*
X1008Y3405D01*
X1009Y3405D01*
X1010Y3405D01*
X1011Y3405D01*
X1012Y3405D01*
X1013Y3405D01*
X1014Y3405D01*
X1015Y3405D01*
X1016Y3405D01*
X1017Y3405D01*
X1018Y3405D01*
X1019Y3405D01*
X1020Y3405D01*
X1021Y3405D01*
X1022Y3405D01*
X1023Y3405D01*
X1024Y3405D01*
X1025Y3405D01*
X1026Y3405D01*
X1027Y3405D01*
X1028Y3405D01*
X1029Y3405D01*
X1030Y3405D01*
X1031Y3405D01*
X1032Y3405D01*
X1033Y3405D01*
X1034Y3405D01*
X1035Y3405D01*
X1036Y3405D01*
X1037Y3405D01*
X1038Y3405D01*
X1039Y3405D01*
X1040Y3405D01*
X1041Y3405D01*
X1042Y3405D01*
X1043Y3405D01*
X1044Y3405D01*
X1045Y3405D01*
X1046Y3405D01*
X1047Y3405D01*
X1048Y3405D01*
X1049Y3405D01*
X1050Y3405D01*
X1051Y3405D01*
X1052Y3405D01*
X1053Y3405D01*
X1054Y3405D01*
X1055Y3405D01*
X1056Y3405D01*
X1057Y3405D01*
X1058Y3405D01*
X1059Y3405D01*
X1060Y3405D01*
X1061Y3405D01*
X1062Y3405D01*
X1063Y3405D01*
X1064Y3405D01*
X1065Y3405D01*
X1066Y3405D01*
X1067Y3405D01*
X1068Y3405D01*
X1069Y3405D01*
X1070Y3405D01*
X1071Y3405D01*
X1072Y3405D01*
X1073Y3405D01*
X1074Y3405D01*
X1075Y3405D01*
X1076Y3405D01*
X1077Y3405D01*
X1078Y3405D01*
X1079Y3405D01*
X1080Y3405D01*
X1081Y3405D01*
X1082Y3405D01*
X1083Y3405D01*
X1084Y3405D01*
X1085Y3405D01*
X1086Y3405D01*
X1087Y3405D01*
X1088Y3405D01*
X1089Y3405D01*
X1090Y3405D01*
X1091Y3405D01*
X1092Y3405D01*
X1093Y3405D01*
X1094Y3405D01*
X1095Y3405D01*
X1096Y3405D01*
X1097Y3405D01*
X1098Y3405D01*
X1099Y3405D01*
X1100Y3405D01*
X1101Y3405D01*
X1102Y3405D01*
X1103Y3405D01*
X1104Y3405D01*
X1105Y3405D01*
X1106Y3405D01*
X1107Y3405D01*
X1108Y3405D01*
X1109Y3405D01*
X1110Y3405D01*
X1111Y3405D01*
X1112Y3405D01*
X1113Y3405D01*
X1114Y3405D01*
X1115Y3405D01*
X1116Y3405D01*
X1117Y3405D01*
X1118Y3405D01*
X1119Y3405D01*
X1120Y3405D01*
X1121Y3405D01*
X1122Y3405D01*
X1123Y3405D01*
X1124Y3405D01*
X1125Y3405D01*
X1126Y3405D01*
X1127Y3405D01*
X1128Y3405D01*
X1129Y3405D01*
X1130Y3405D01*
X1131Y3405D01*
X1132Y3405D01*
X1133Y3405D01*
X1134Y3405D01*
X1135Y3405D01*
X1136Y3405D01*
X1137Y3405D01*
X1138Y3405D01*
X1139Y3405D01*
X1140Y3405D01*
X1141Y3405D01*
X1142Y3405D01*
X1143Y3405D01*
X1144Y3405D01*
X1145Y3405D01*
X1146Y3405D01*
X1147Y3405D01*
X1148Y3405D01*
X1149Y3405D01*
X1150Y3405D01*
X1151Y3405D01*
X1152Y3405D01*
X1153Y3405D01*
X1154Y3405D01*
X1155Y3405D01*
X1156Y3405D01*
X1157Y3405D01*
X1158Y3405D01*
X1159Y3405D01*
X1160Y3405D01*
X1161Y3405D01*
X1162Y3405D01*
X1163Y3405D01*
X1164Y3405D01*
X1165Y3405D01*
X1166Y3405D01*
X1167Y3405D01*
X1168Y3405D01*
X1169Y3405D01*
X1170Y3405D01*
X1171Y3405D01*
X1172Y3405D01*
X1173Y3405D01*
X1174Y3405D01*
X1175Y3405D01*
X1176Y3405D01*
X1177Y3405D01*
X1178Y3405D01*
X1179Y3405D01*
X1180Y3405D01*
X1181Y3405D01*
X1182Y3405D01*
X1183Y3405D01*
X1184Y3405D01*
X1185Y3405D01*
X1186Y3405D01*
X1187Y3405D01*
X1188Y3405D01*
X1189Y3405D01*
X1190Y3405D01*
X1191Y3405D01*
X1192Y3405D01*
X1193Y3405D01*
X1194Y3405D01*
X1195Y3405D01*
X1196Y3405D01*
X1197Y3405D01*
X1198Y3405D01*
X1199Y3405D01*
X1200Y3405D01*
X1201Y3405D01*
X1202Y3405D01*
X1203Y3405D01*
X1204Y3405D01*
X1205Y3405D01*
X1206Y3405D01*
X1207Y3405D01*
X1208Y3405D01*
X1209Y3405D01*
X1210Y3405D01*
X1211Y3405D01*
X1212Y3405D01*
X1213Y3405D01*
X1214Y3405D01*
X1215Y3405D01*
X1216Y3405D01*
X1217Y3405D01*
X1218Y3405D01*
X1219Y3405D01*
X1220Y3405D01*
X1221Y3405D01*
X1222Y3405D01*
X1223Y3405D01*
X1224Y3405D01*
X1225Y3405D01*
X1226Y3405D01*
X1227Y3405D01*
X1228Y3405D01*
X1229Y3405D01*
X1230Y3405D01*
X1231Y3405D01*
X1232Y3405D01*
X1233Y3405D01*
X1234Y3405D01*
X1235Y3405D01*
X1236Y3405D01*
X1237Y3405D01*
X1238Y3405D01*
X1239Y3405D01*
X1240Y3405D01*
X1241Y3405D01*
X1242Y3405D01*
X1243Y3405D01*
X1244Y3405D01*
X1245Y3405D01*
X1246Y3405D01*
X1247Y3405D01*
X1248Y3405D01*
X1249Y3405D01*
X1250Y3405D01*
X1251Y3405D01*
X1252Y3405D01*
X1253Y3405D01*
X1254Y3405D01*
X1255Y3405D01*
X1256Y3405D01*
X1257Y3405D01*
X1258Y3405D01*
X1259Y3405D01*
X1260Y3405D01*
X1261Y3405D01*
X1262Y3405D01*
X1263Y3405D01*
X1264Y3405D01*
X1265Y3405D01*
X1266Y3405D01*
X1267Y3405D01*
X1268Y3405D01*
X1269Y3405D01*
X1270Y3405D01*
X1271Y3405D01*
X1272Y3405D01*
X1273Y3405D01*
X1274Y3405D01*
X1275Y3405D01*
X1276Y3405D01*
X1277Y3405D01*
X1278Y3405D01*
X1279Y3405D01*
X1280Y3405D01*
X1281Y3405D01*
X1282Y3405D01*
X1283Y3405D01*
X1284Y3405D01*
X1285Y3405D01*
X1286Y3405D01*
X1287Y3405D01*
X1288Y3405D01*
X1289Y3405D01*
X1290Y3405D01*
X1291Y3405D01*
X1292Y3405D01*
X1293Y3405D01*
X1294Y3405D01*
X1295Y3405D01*
X1296Y3405D01*
X1297Y3405D01*
X1298Y3405D01*
X1299Y3405D01*
X1300Y3405D01*
X1301Y3405D01*
X1302Y3405D01*
X1303Y3405D01*
X1304Y3405D01*
X1305Y3405D01*
X1306Y3405D01*
X1307Y3405D01*
X1308Y3405D01*
X1309Y3405D01*
X1310Y3405D01*
X1311Y3405D01*
X1312Y3405D01*
X1313Y3405D01*
X1314Y3405D01*
X1315Y3405D01*
X1316Y3405D01*
X1317Y3405D01*
X1318Y3405D01*
X1319Y3405D01*
X1320Y3405D01*
X1321Y3405D01*
X1322Y3405D01*
X1323Y3405D01*
X1324Y3405D01*
X1325Y3405D01*
X1326Y3405D01*
X1327Y3405D01*
X1328Y3405D01*
X1329Y3405D01*
X1330Y3405D01*
X1331Y3405D01*
X1332Y3405D01*
X1333Y3405D01*
X1334Y3405D01*
X1335Y3405D01*
X1336Y3405D01*
X1337Y3405D01*
X1338Y3405D01*
X1339Y3405D01*
X1340Y3405D01*
X1341Y3405D01*
X1342Y3405D01*
X1343Y3405D01*
X1344Y3405D01*
X1345Y3405D01*
X1346Y3405D01*
X1347Y3405D01*
X1348Y3405D01*
X1349Y3405D01*
X1350Y3405D01*
X1351Y3405D01*
X1352Y3405D01*
X1353Y3405D01*
X1354Y3405D01*
X1355Y3405D01*
X1356Y3405D01*
X1357Y3405D01*
X1358Y3405D01*
X1359Y3405D01*
X1360Y3405D01*
X1361Y3405D01*
X1362Y3405D01*
X1363Y3405D01*
X1364Y3405D01*
X1365Y3405D01*
X1366Y3405D01*
X1367Y3405D01*
X1368Y3405D01*
X1369Y3405D01*
X1370Y3405D01*
X1371Y3405D01*
X1372Y3405D01*
X1373Y3405D01*
X1374Y3405D01*
X1375Y3405D01*
X1376Y3405D01*
X1377Y3405D01*
X1378Y3405D01*
X1379Y3405D01*
X1380Y3405D01*
X1381Y3405D01*
X1382Y3405D01*
X1383Y3405D01*
X1384Y3405D01*
X1385Y3405D01*
X1386Y3405D01*
X1387Y3405D01*
X1388Y3405D01*
X1389Y3405D01*
X1390Y3405D01*
X1391Y3405D01*
X1392Y3405D01*
X1393Y3405D01*
X1394Y3405D01*
X1395Y3405D01*
X1396Y3405D01*
X1397Y3405D01*
X1398Y3405D01*
X1399Y3405D01*
X1400Y3405D01*
X1401Y3405D01*
X1402Y3405D01*
X1403Y3405D01*
X1404Y3405D01*
X1405Y3405D01*
X1406Y3405D01*
X1407Y3405D01*
X1408Y3405D01*
X1409Y3405D01*
X1410Y3405D01*
X1411Y3405D01*
X1412Y3405D01*
X1413Y3405D01*
X1414Y3405D01*
X1415Y3405D01*
X1416Y3405D01*
X1417Y3405D01*
X1418Y3405D01*
X1419Y3405D01*
X1420Y3405D01*
X1421Y3405D01*
X1422Y3405D01*
X1423Y3405D01*
X1424Y3405D01*
X1425Y3405D01*
X1426Y3405D01*
X1427Y3405D01*
X1428Y3405D01*
X1429Y3405D01*
X1430Y3405D01*
X1431Y3405D01*
X1432Y3405D01*
X1433Y3405D01*
X1434Y3405D01*
X1435Y3405D01*
X1436Y3405D01*
X1437Y3405D01*
X1438Y3405D01*
X1439Y3405D01*
X1440Y3405D01*
X1441Y3405D01*
X1442Y3405D01*
X1443Y3405D01*
X1444Y3405D01*
X1445Y3405D01*
X1446Y3405D01*
X1447Y3405D01*
X1448Y3405D01*
X1449Y3405D01*
X1450Y3405D01*
X1451Y3405D01*
X1452Y3405D01*
X1453Y3405D01*
X1454Y3405D01*
X1455Y3405D01*
X1456Y3405D01*
X1457Y3405D01*
X1458Y3405D01*
X1459Y3405D01*
X1460Y3405D01*
X1461Y3405D01*
X1462Y3405D01*
X1463Y3405D01*
X1464Y3405D01*
X1465Y3405D01*
X1466Y3405D01*
X1467Y3405D01*
X1468Y3405D01*
X1469Y3405D01*
X1470Y3405D01*
X1471Y3405D01*
X1472Y3405D01*
X1473Y3405D01*
X1474Y3405D01*
X1475Y3405D01*
X1476Y3405D01*
X1477Y3405D01*
X1478Y3405D01*
X1479Y3405D01*
X1480Y3405D01*
X1481Y3405D01*
X1482Y3405D01*
X1483Y3405D01*
X1484Y3405D01*
X1485Y3405D01*
X1486Y3405D01*
X1487Y3405D01*
X1488Y3405D01*
X1489Y3405D01*
X1490Y3405D01*
X1491Y3405D01*
X1492Y3405D01*
X1493Y3405D01*
X1494Y3405D01*
X1495Y3405D01*
X1496Y3405D01*
X1497Y3405D01*
X1498Y3405D01*
X1499Y3405D01*
X1500Y3405D01*
X1501Y3405D01*
X1502Y3405D01*
X1503Y3405D01*
X1504Y3405D01*
X1505Y3405D01*
X1506Y3405D01*
X1507Y3405D01*
X1508Y3405D01*
X1509Y3405D01*
X1510Y3405D01*
X1511Y3405D01*
X1512Y3405D01*
X1513Y3405D01*
X1514Y3405D01*
X1515Y3405D01*
X1516Y3405D01*
X1517Y3405D01*
X1518Y3405D01*
X1519Y3405D01*
X1520Y3405D01*
X1521Y3405D01*
X1522Y3405D01*
X1523Y3405D01*
X1524Y3405D01*
X1525Y3405D01*
X1526Y3405D01*
X1527Y3405D01*
X1528Y3405D01*
X1529Y3405D01*
X1530Y3405D01*
X1531Y3405D01*
X1532Y3405D01*
X1533Y3405D01*
X1534Y3405D01*
X1535Y3405D01*
X1536Y3405D01*
X1537Y3405D01*
X1538Y3405D01*
X1539Y3405D01*
X1540Y3405D01*
X1541Y3405D01*
X1542Y3405D01*
X1543Y3405D01*
X1544Y3405D01*
X1545Y3405D01*
X1546Y3405D01*
X1547Y3405D01*
X1548Y3405D01*
X1549Y3405D01*
X1550Y3405D01*
X1551Y3405D01*
X1552Y3405D01*
X1553Y3405D01*
X1554Y3405D01*
X1555Y3405D01*
X1556Y3405D01*
X1557Y3405D01*
X1558Y3405D01*
X1559Y3405D01*
X1560Y3405D01*
X1561Y3405D01*
X1562Y3405D01*
X1563Y3405D01*
X1564Y3405D01*
X1565Y3405D01*
X1566Y3405D01*
X1567Y3405D01*
X1568Y3405D01*
X1569Y3405D01*
X1570Y3405D01*
X1571Y3405D01*
X1572Y3405D01*
X1573Y3405D01*
X1574Y3405D01*
X1575Y3405D01*
X1576Y3405D01*
X1577Y3405D01*
X1578Y3405D01*
X1579Y3405D01*
X1580Y3405D01*
X1581Y3405D01*
X1582Y3405D01*
X1583Y3405D01*
X1584Y3405D01*
X1585Y3405D01*
X1586Y3405D01*
X1587Y3405D01*
X1588Y3405D01*
X1589Y3405D01*
X1590Y3405D01*
X1591Y3405D01*
X1592Y3405D01*
X1593Y3405D01*
X1594Y3405D01*
X1595Y3405D01*
X1596Y3405D01*
X1597Y3405D01*
X1598Y3405D01*
X1599Y3405D01*
X1600Y3405D01*
X1601Y3405D01*
X1602Y3405D01*
X1603Y3405D01*
X1604Y3405D01*
X1605Y3405D01*
X1606Y3405D01*
X1607Y3405D01*
X1608Y3405D01*
X1609Y3405D01*
X1610Y3405D01*
X1611Y3405D01*
X1612Y3405D01*
X1613Y3405D01*
X1614Y3405D01*
X1615Y3405D01*
X1616Y3405D01*
X1617Y3405D01*
X1618Y3405D01*
X1619Y3405D01*
X1620Y3405D01*
X1621Y3405D01*
X1622Y3405D01*
X1623Y3405D01*
X1624Y3405D01*
X1625Y3405D01*
X1626Y3405D01*
X1627Y3405D01*
X1628Y3405D01*
X1629Y3405D01*
X1630Y3405D01*
X1631Y3405D01*
X1632Y3405D01*
X1633Y3405D01*
X1634Y3405D01*
X1635Y3405D01*
X1636Y3405D01*
X1637Y3405D01*
X1638Y3405D01*
X1639Y3405D01*
X1640Y3405D01*
X1641Y3405D01*
X1642Y3405D01*
X1643Y3405D01*
X1644Y3405D01*
X1645Y3405D01*
X1646Y3405D01*
X1647Y3405D01*
X1648Y3405D01*
X1649Y3405D01*
X1650Y3405D01*
X1651Y3405D01*
X1652Y3405D01*
X1653Y3405D01*
X1654Y3405D01*
X1655Y3405D01*
X1656Y3405D01*
X1657Y3405D01*
X1658Y3405D01*
X1659Y3405D01*
X1660Y3405D01*
X1661Y3405D01*
X1662Y3405D01*
X1663Y3405D01*
X1664Y3405D01*
X1665Y3405D01*
X1666Y3405D01*
X1667Y3405D01*
X1668Y3405D01*
X1669Y3405D01*
X1670Y3405D01*
X1671Y3405D01*
X1672Y3405D01*
X1673Y3405D01*
X1674Y3405D01*
X1675Y3405D01*
X1676Y3405D01*
X1677Y3405D01*
X1678Y3405D01*
X1679Y3405D01*
X1680Y3405D01*
X1681Y3405D01*
X1682Y3405D01*
X1683Y3405D01*
X1684Y3405D01*
X1685Y3405D01*
X1686Y3405D01*
X1687Y3405D01*
X1688Y3405D01*
X1689Y3405D01*
X1690Y3405D01*
X1691Y3405D01*
X1692Y3405D01*
X1693Y3405D01*
X1694Y3405D01*
X1695Y3405D01*
X1696Y3405D01*
X1697Y3405D01*
X1698Y3405D01*
X1699Y3405D01*
X1700Y3405D01*
X1701Y3405D01*
X1702Y3405D01*
X1703Y3405D01*
X1704Y3405D01*
X1705Y3405D01*
X1706Y3405D01*
X1707Y3405D01*
X1708Y3405D01*
X1709Y3405D01*
X1710Y3405D01*
X1711Y3405D01*
X1712Y3405D01*
X1713Y3405D01*
X1714Y3405D01*
X1715Y3405D01*
X1716Y3405D01*
X1717Y3405D01*
X1718Y3405D01*
X1719Y3405D01*
X1720Y3405D01*
X1721Y3405D01*
X1722Y3405D01*
X1723Y3405D01*
X1724Y3405D01*
X1725Y3405D01*
X1726Y3405D01*
X1727Y3405D01*
X1728Y3405D01*
X1729Y3405D01*
X1730Y3405D01*
X1731Y3405D01*
X1732Y3405D01*
X1733Y3405D01*
X1734Y3405D01*
X1735Y3405D01*
X1736Y3405D01*
X1737Y3405D01*
X1738Y3405D01*
X1739Y3405D01*
X1740Y3405D01*
X1741Y3405D01*
X1742Y3405D01*
X1743Y3405D01*
X1744Y3405D01*
X1745Y3405D01*
X1746Y3405D01*
X1747Y3405D01*
X1748Y3405D01*
X1749Y3405D01*
X1750Y3405D01*
X1751Y3405D01*
X1752Y3405D01*
X1753Y3405D01*
X1754Y3405D01*
X1755Y3405D01*
X1756Y3405D01*
X1757Y3405D01*
X1758Y3405D01*
X1759Y3405D01*
X1760Y3405D01*
X1761Y3405D01*
X1762Y3405D01*
X1763Y3405D01*
X1764Y3405D01*
X1765Y3405D01*
X1766Y3405D01*
X1767Y3405D01*
X1768Y3405D01*
X1769Y3405D01*
X1770Y3405D01*
X1771Y3405D01*
X1772Y3405D01*
X1773Y3405D01*
X1774Y3405D01*
X1775Y3405D01*
X1776Y3405D01*
X1777Y3405D01*
X1778Y3405D01*
X1779Y3405D01*
X1780Y3405D01*
X1781Y3405D01*
X1782Y3405D01*
X1783Y3405D01*
X1784Y3405D01*
X1785Y3405D01*
X1786Y3405D01*
X1787Y3405D01*
X1788Y3405D01*
X1789Y3405D01*
X1790Y3405D01*
X1791Y3405D01*
X1792Y3405D01*
X1793Y3405D01*
X1794Y3405D01*
X1795Y3405D01*
X1796Y3405D01*
X1797Y3405D01*
X1798Y3405D01*
X1799Y3405D01*
X1800Y3405D01*
X1801Y3405D01*
X1802Y3405D01*
X1803Y3405D01*
X1804Y3405D01*
X1805Y3405D01*
X1806Y3405D01*
X1807Y3405D01*
X1808Y3405D01*
X1809Y3405D01*
X1810Y3405D01*
X1811Y3405D01*
X1812Y3405D01*
X1813Y3405D01*
X1814Y3405D01*
X1815Y3405D01*
X1816Y3405D01*
X1817Y3405D01*
X1818Y3405D01*
X1819Y3405D01*
X1820Y3405D01*
X1821Y3405D01*
X1822Y3405D01*
X1823Y3405D01*
X1824Y3405D01*
X1825Y3405D01*
X1826Y3405D01*
X1827Y3405D01*
X1828Y3405D01*
X1829Y3405D01*
X1830Y3405D01*
X1831Y3405D01*
X1832Y3405D01*
X1833Y3405D01*
X1834Y3405D01*
X1835Y3405D01*
X1836Y3405D01*
X1837Y3405D01*
X1838Y3405D01*
X1839Y3405D01*
X1840Y3405D01*
X1841Y3405D01*
X1842Y3405D01*
X1843Y3405D01*
X1844Y3405D01*
X1845Y3405D01*
X1846Y3405D01*
X1847Y3405D01*
X1848Y3405D01*
X1849Y3405D01*
X1850Y3405D01*
X1851Y3405D01*
X1852Y3405D01*
X1853Y3405D01*
X1854Y3405D01*
X1855Y3405D01*
X1856Y3405D01*
X1857Y3405D01*
X1858Y3405D01*
X1859Y3405D01*
X1860Y3405D01*
X1861Y3405D01*
X1862Y3405D01*
X1863Y3405D01*
X1864Y3405D01*
X1865Y3405D01*
X1866Y3405D01*
X1867Y3405D01*
X1868Y3405D01*
X1869Y3405D01*
X1870Y3405D01*
X1871Y3405D01*
X1872Y3405D01*
X1873Y3405D01*
X1874Y3405D01*
X1875Y3405D01*
X1876Y3405D01*
X1877Y3405D01*
X1878Y3405D01*
X1879Y3405D01*
X1880Y3405D01*
X1881Y3405D01*
X1882Y3405D01*
X1883Y3405D01*
X1884Y3405D01*
X1885Y3405D01*
X1886Y3405D01*
X1887Y3405D01*
X1888Y3405D01*
X1889Y3405D01*
X1890Y3405D01*
X1891Y3405D01*
X1892Y3405D01*
X1893Y3405D01*
X1894Y3405D01*
X1895Y3405D01*
X1896Y3405D01*
X1897Y3405D01*
X1898Y3405D01*
X1899Y3405D01*
X1900Y3405D01*
X1901Y3405D01*
X1902Y3405D01*
X1903Y3405D01*
X1904Y3405D01*
X1905Y3405D01*
X1906Y3405D01*
X1907Y3405D01*
X1908Y3405D01*
X1909Y3405D01*
X1910Y3405D01*
X1911Y3405D01*
X1912Y3405D01*
X1913Y3405D01*
X1914Y3405D01*
X1915Y3405D01*
X1916Y3405D01*
X1917Y3405D01*
X1918Y3405D01*
X1919Y3405D01*
X1920Y3405D01*
X1921Y3405D01*
X1922Y3405D01*
X1923Y3405D01*
X1924Y3405D01*
X1925Y3405D01*
X1926Y3405D01*
X1927Y3405D01*
X1928Y3405D01*
X1929Y3405D01*
X1930Y3405D01*
X1931Y3405D01*
X1932Y3405D01*
X1933Y3405D01*
X1934Y3405D01*
X1935Y3405D01*
X1936Y3405D01*
X1937Y3405D01*
X1938Y3405D01*
X1939Y3405D01*
X1940Y3405D01*
X1941Y3405D01*
X1942Y3405D01*
X1943Y3405D01*
X1944Y3405D01*
X1945Y3405D01*
X1946Y3405D01*
X1947Y3405D01*
X1948Y3405D01*
X1949Y3405D01*
X1950Y3405D01*
X1951Y3405D01*
X1952Y3405D01*
X1953Y3405D01*
X1954Y3405D01*
X1955Y3405D01*
X1956Y3405D01*
X1957Y3405D01*
X1958Y3405D01*
X1959Y3405D01*
X1960Y3405D01*
X1961Y3405D01*
X1962Y3405D01*
X1963Y3405D01*
X1964Y3405D01*
X1965Y3405D01*
X1966Y3405D01*
X1967Y3405D01*
X1968Y3405D01*
X1969Y3405D01*
X1970Y3405D01*
X1971Y3405D01*
X1972Y3405D01*
X1973Y3405D01*
X1974Y3405D01*
X1975Y3405D01*
X1976Y3405D01*
X1977Y3405D01*
X1978Y3405D01*
X1979Y3405D01*
X1980Y3405D01*
X1981Y3405D01*
X1982Y3405D01*
X1983Y3405D01*
X1984Y3405D01*
X1985Y3405D01*
X1986Y3405D01*
X1987Y3405D01*
X1988Y3405D01*
X1989Y3405D01*
X1990Y3405D01*
X1991Y3405D01*
X1992Y3405D01*
X1993Y3405D01*
X1994Y3405D01*
X1995Y3405D01*
X1996Y3405D01*
X1997Y3405D01*
X1998Y3405D01*
X1999Y3405D01*
X2000Y3405D01*
X2001Y3405D01*
X2002Y3405D01*
X2003Y3405D01*
X2004Y3405D01*
X2005Y3405D01*
X2006Y3405D01*
X2007Y3405D01*
X2008Y3405D01*
X2009Y3405D01*
X2010Y3405D01*
X2011Y3405D01*
X2012Y3405D01*
X2013Y3405D01*
X2014Y3405D01*
X2015Y3405D01*
X2016Y3405D01*
X2017Y3405D01*
X2018Y3405D01*
X2019Y3405D01*
X2020Y3405D01*
X2021Y3405D01*
X2022Y3405D01*
X2023Y3405D01*
X2024Y3405D01*
X2025Y3405D01*
X2026Y3405D01*
X2027Y3405D01*
X2028Y3405D01*
X2029Y3405D01*
X2030Y3405D01*
X2031Y3405D01*
X2032Y3405D01*
X2033Y3405D01*
X2034Y3405D01*
X2035Y3405D01*
X2036Y3405D01*
X2037Y3405D01*
X2038Y3405D01*
X2039Y3405D01*
X2040Y3405D01*
X2041Y3405D01*
X2042Y3405D01*
X2043Y3405D01*
X2044Y3405D01*
X2045Y3405D01*
X2046Y3405D01*
X2047Y3405D01*
X2048Y3405D01*
X2049Y3405D01*
X2050Y3405D01*
X2051Y3405D01*
X2052Y3405D01*
X2053Y3405D01*
X2054Y3405D01*
X2055Y3405D01*
X2056Y3405D01*
X2057Y3405D01*
X2058Y3405D01*
X2059Y3405D01*
X2060Y3405D01*
X2061Y3405D01*
X2062Y3405D01*
X2063Y3405D01*
X2064Y3405D01*
X2065Y3405D01*
X2066Y3405D01*
X2067Y3405D01*
X2068Y3405D01*
X2069Y3405D01*
X2070Y3405D01*
X2071Y3405D01*
X2072Y3405D01*
X2073Y3405D01*
X2074Y3405D01*
X2075Y3405D01*
X2076Y3405D01*
X2077Y3405D01*
X2078Y3405D01*
X2079Y3405D01*
X2080Y3405D01*
X2081Y3405D01*
X2082Y3405D01*
X2083Y3405D01*
X2084Y3405D01*
X2085Y3405D01*
X2086Y3405D01*
X2087Y3405D01*
X2088Y3405D01*
X2089Y3405D01*
X2090Y3405D01*
X2091Y3405D01*
X2092Y3405D01*
X2093Y3405D01*
X2094Y3405D01*
X2095Y3405D01*
X2096Y3405D01*
X2097Y3405D01*
X2098Y3405D01*
X2099Y3405D01*
X2100Y3405D01*
X2101Y3405D01*
X2102Y3405D01*
X2103Y3405D01*
X2104Y3405D01*
X2105Y3405D01*
X2106Y3405D01*
X2107Y3405D01*
X2108Y3405D01*
X2109Y3405D01*
X2110Y3405D01*
X2111Y3405D01*
X2112Y3405D01*
X2113Y3405D01*
X2114Y3405D01*
X2115Y3405D01*
X2116Y3405D01*
X2117Y3405D01*
X2118Y3405D01*
X2119Y3405D01*
X2120Y3405D01*
X2121Y3405D01*
X2122Y3405D01*
X2123Y3405D01*
X2124Y3405D01*
X2125Y3405D01*
X2126Y3405D01*
X2127Y3405D01*
X2128Y3405D01*
X2129Y3405D01*
X2130Y3405D01*
X2131Y3405D01*
X2132Y3405D01*
X2133Y3405D01*
X2134Y3405D01*
X2135Y3405D01*
X2136Y3405D01*
X2137Y3405D01*
X2138Y3405D01*
X2139Y3405D01*
X2140Y3405D01*
X2141Y3405D01*
X2142Y3405D01*
X2143Y3405D01*
X2144Y3405D01*
X2145Y3405D01*
X2146Y3405D01*
X2147Y3405D01*
X2148Y3405D01*
X2149Y3405D01*
X2150Y3405D01*
X2151Y3405D01*
X2152Y3405D01*
X2153Y3405D01*
X2154Y3405D01*
X2155Y3405D01*
X2156Y3405D01*
X2157Y3405D01*
X2158Y3405D01*
X2159Y3405D01*
X2160Y3405D01*
X2161Y3405D01*
X2162Y3405D01*
X2163Y3405D01*
X2164Y3405D01*
X2165Y3405D01*
X2166Y3405D01*
X2167Y3405D01*
X2168Y3405D01*
X2169Y3405D01*
X2170Y3405D01*
X2171Y3405D01*
X2172Y3405D01*
X2173Y3405D01*
X2174Y3405D01*
X2175Y3405D01*
X2176Y3405D01*
X2177Y3405D01*
X2178Y3405D01*
X2179Y3405D01*
X2180Y3405D01*
X2181Y3405D01*
X2182Y3405D01*
X2183Y3405D01*
X2184Y3405D01*
X2185Y3405D01*
X2186Y3405D01*
X2187Y3405D01*
X2188Y3405D01*
X2189Y3405D01*
X2190Y3405D01*
X2191Y3405D01*
X2192Y3405D01*
X2193Y3405D01*
X2194Y3405D01*
X2195Y3405D01*
X2196Y3405D01*
X2197Y3405D01*
X2198Y3405D01*
X2199Y3405D01*
X2200Y3405D01*
X2201Y3405D01*
X2202Y3405D01*
X2203Y3405D01*
X2204Y3405D01*
X2205Y3405D01*
X2206Y3405D01*
X2207Y3405D01*
X2208Y3405D01*
X2209Y3405D01*
X2210Y3405D01*
X2211Y3405D01*
X2212Y3405D01*
X2213Y3405D01*
X2214Y3405D01*
X2215Y3405D01*
X2216Y3405D01*
X2217Y3405D01*
X2218Y3405D01*
X2219Y3405D01*
X2220Y3405D01*
X2221Y3405D01*
X2222Y3405D01*
X2223Y3405D01*
X2224Y3405D01*
X2225Y3405D01*
X2226Y3405D01*
X2227Y3405D01*
X2228Y3405D01*
X2229Y3405D01*
X2230Y3405D01*
X2231Y3405D01*
X2232Y3405D01*
X2233Y3405D01*
X2234Y3405D01*
X2235Y3405D01*
X2236Y3405D01*
X2237Y3405D01*
X2238Y3405D01*
X2239Y3405D01*
X2240Y3405D01*
X2241Y3405D01*
X2242Y3405D01*
X2243Y3405D01*
X2244Y3405D01*
X2245Y3405D01*
X2246Y3405D01*
X2247Y3405D01*
X2248Y3405D01*
X2249Y3405D01*
X2250Y3405D01*
X2251Y3405D01*
X2252Y3405D01*
X2253Y3405D01*
X2254Y3405D01*
X2255Y3405D01*
X2256Y3405D01*
X2257Y3405D01*
X2258Y3405D01*
X2259Y3405D01*
X2260Y3405D01*
X2261Y3405D01*
X2262Y3405D01*
X2263Y3405D01*
X2264Y3405D01*
X2265Y3405D01*
X2266Y3405D01*
X2267Y3405D01*
X2268Y3405D01*
X2269Y3405D01*
X2270Y3405D01*
X2271Y3405D01*
X2272Y3405D01*
X2273Y3405D01*
X2274Y3405D01*
X2275Y3405D01*
X2276Y3405D01*
X2277Y3405D01*
X2278Y3405D01*
X2279Y3405D01*
X2280Y3405D01*
X2281Y3405D01*
X2282Y3405D01*
X2283Y3405D01*
X2284Y3405D01*
X2285Y3405D01*
X2286Y3405D01*
X2287Y3405D01*
X2288Y3405D01*
X2289Y3405D01*
X2290Y3405D01*
X2291Y3405D01*
X2292Y3405D01*
X2293Y3405D01*
X2294Y3405D01*
X2295Y3405D01*
X2296Y3405D01*
X2297Y3405D01*
X2298Y3405D01*
X2299Y3405D01*
X2300Y3405D01*
X2301Y3405D01*
X2302Y3405D01*
X2303Y3405D01*
X2304Y3405D01*
X2305Y3405D01*
X2306Y3405D01*
X2307Y3405D01*
X2308Y3405D01*
X2309Y3405D01*
X2310Y3405D01*
X2311Y3405D01*
X2312Y3405D01*
X2313Y3405D01*
X2314Y3405D01*
X2315Y3405D01*
X2316Y3405D01*
X2317Y3405D01*
X2318Y3405D01*
X2319Y3405D01*
X2320Y3405D01*
X2321Y3405D01*
X2322Y3405D01*
X2323Y3405D01*
X2324Y3405D01*
X2325Y3405D01*
X2326Y3405D01*
X2327Y3405D01*
X2328Y3405D01*
X2329Y3405D01*
X2330Y3405D01*
X2331Y3405D01*
X2332Y3405D01*
X2333Y3405D01*
X2334Y3405D01*
X2335Y3405D01*
X2336Y3405D01*
X2337Y3405D01*
X2338Y3405D01*
X2339Y3405D01*
X2340Y3405D01*
X2341Y3405D01*
X2342Y3405D01*
X2343Y3405D01*
X2344Y3405D01*
X2345Y3405D01*
X2346Y3405D01*
X2347Y3405D01*
X2348Y3405D01*
X2349Y3405D01*
X2350Y3405D01*
X2351Y3405D01*
X2352Y3405D01*
X2353Y3405D01*
X2354Y3405D01*
X2355Y3405D01*
X2356Y3405D01*
X2357Y3405D01*
X2358Y3405D01*
X2359Y3405D01*
X2360Y3405D01*
X2361Y3405D01*
X2362Y3405D01*
X2363Y3405D01*
X2364Y3405D01*
X2365Y3405D01*
X2366Y3405D01*
X2367Y3405D01*
X2368Y3405D01*
X2369Y3405D01*
X2370Y3405D01*
X2371Y3405D01*
X2372Y3405D01*
X2373Y3405D01*
X2374Y3405D01*
X2375Y3405D01*
X2376Y3405D01*
X2377Y3405D01*
X2378Y3405D01*
X2379Y3405D01*
X2380Y3405D01*
X2381Y3405D01*
X2382Y3405D01*
X2383Y3405D01*
X2384Y3405D01*
X2385Y3405D01*
X2386Y3405D01*
X2387Y3405D01*
X2388Y3405D01*
X2389Y3405D01*
X2390Y3405D01*
X2391Y3405D01*
X2392Y3405D01*
X2393Y3405D01*
X2394Y3405D01*
X2395Y3405D01*
X2396Y3405D01*
X2397Y3405D01*
X2398Y3405D01*
X2399Y3405D01*
X2400Y3405D01*
X2401Y3405D01*
X2402Y3405D01*
X2403Y3405D01*
X2404Y3405D01*
X2405Y3405D01*
X2406Y3405D01*
X2407Y3405D01*
X2408Y3405D01*
X2409Y3405D01*
X2410Y3405D01*
X2411Y3405D01*
X2412Y3405D01*
X2413Y3405D01*
X2414Y3405D01*
X2415Y3405D01*
X2416Y3405D01*
X2417Y3405D01*
X2418Y3405D01*
X2419Y3405D01*
X2420Y3405D01*
X2421Y3405D01*
X2422Y3405D01*
X2423Y3405D01*
X2424Y3405D01*
X2425Y3405D01*
X2426Y3405D01*
X2427Y3405D01*
X2428Y3405D01*
X2429Y3405D01*
X2430Y3405D01*
X2431Y3405D01*
X2432Y3405D01*
X2433Y3405D01*
X2434Y3405D01*
X2435Y3405D01*
X2436Y3405D01*
X2437Y3405D01*
X2438Y3405D01*
X2439Y3405D01*
X2440Y3405D01*
X2441Y3405D01*
X2442Y3405D01*
X2443Y3405D01*
X2444Y3405D01*
X2445Y3405D01*
X2446Y3405D01*
X2447Y3405D01*
X2448Y3405D01*
X2449Y3405D01*
X2450Y3405D01*
X2451Y3405D01*
X2452Y3405D01*
X2453Y3405D01*
X2454Y3405D01*
X2455Y3405D01*
X2456Y3405D01*
X2457Y3405D01*
X2458Y3405D01*
X2459Y3405D01*
X2460Y3405D01*
X2461Y3405D01*
X2462Y3405D01*
X2463Y3405D01*
X2464Y3405D01*
X2465Y3405D01*
X2466Y3405D01*
X2467Y3405D01*
X2468Y3405D01*
X2469Y3405D01*
X2470Y3405D01*
X2471Y3405D01*
X2472Y3405D01*
X2473Y3405D01*
X2474Y3405D01*
X2475Y3405D01*
X2476Y3405D01*
X2477Y3405D01*
X2478Y3405D01*
X2479Y3405D01*
X2480Y3405D01*
X2481Y3405D01*
X2482Y3405D01*
X2483Y3405D01*
X2484Y3405D01*
X2485Y3405D01*
X2486Y3405D01*
X2487Y3405D01*
X2488Y3405D01*
X2489Y3405D01*
X2490Y3405D01*
X2491Y3405D01*
X2492Y3405D01*
X2493Y3405D01*
X2494Y3405D01*
X2495Y3405D01*
X2496Y3405D01*
X2497Y3405D01*
X2498Y3405D01*
X2499Y3405D01*
X2500Y3405D01*
X2501Y3405D01*
X2502Y3405D01*
X2503Y3405D01*
X2504Y3405D01*
X2505Y3405D01*
X2506Y3405D01*
X2507Y3405D01*
X2508Y3405D01*
X2509Y3405D01*
X2510Y3405D01*
X2511Y3405D01*
X2512Y3405D01*
X2513Y3405D01*
X2514Y3405D01*
X2515Y3405D01*
X2516Y3405D01*
X2517Y3405D01*
X2518Y3405D01*
X2519Y3405D01*
X2520Y3405D01*
X2521Y3405D01*
X2522Y3405D01*
X2523Y3405D01*
X2524Y3405D01*
X2525Y3405D01*
X2526Y3405D01*
X2527Y3405D01*
X2528Y3405D01*
X2529Y3405D01*
X2530Y3405D01*
X2531Y3405D01*
X2532Y3405D01*
X2533Y3405D01*
X2534Y3405D01*
X2535Y3405D01*
X2536Y3405D01*
X2537Y3405D01*
X2538Y3405D01*
X2539Y3405D01*
X2540Y3405D01*
X2541Y3405D01*
X2542Y3405D01*
X2543Y3405D01*
X2544Y3405D01*
X2545Y3405D01*
X2546Y3405D01*
X2547Y3405D01*
X2548Y3405D01*
X2549Y3405D01*
X2550Y3405D01*
X2551Y3405D01*
X2552Y3405D01*
X2553Y3405D01*
X2554Y3405D01*
X2555Y3405D01*
X2556Y3405D01*
X2557Y3405D01*
X2558Y3405D01*
X2559Y3405D01*
X2560Y3405D01*
X2561Y3405D01*
X2562Y3405D01*
X2563Y3405D01*
X2564Y3405D01*
X2565Y3405D01*
X2566Y3405D01*
X2567Y3405D01*
X2568Y3405D01*
X2569Y3405D01*
X2570Y3405D01*
X2571Y3405D01*
X2572Y3405D01*
X2573Y3405D01*
X2574Y3405D01*
X2575Y3405D01*
X2576Y3405D01*
X2577Y3405D01*
X2578Y3405D01*
X2579Y3405D01*
X2580Y3405D01*
X2581Y3405D01*
X2582Y3405D01*
X2583Y3405D01*
X2584Y3405D01*
X2585Y3405D01*
X2586Y3405D01*
X2587Y3405D01*
X2588Y3405D01*
X2589Y3405D01*
X2590Y3405D01*
X2591Y3405D01*
X2592Y3405D01*
X2593Y3405D01*
X2594Y3405D01*
X2595Y3405D01*
X2596Y3405D01*
X2597Y3405D01*
X2598Y3405D01*
X2599Y3405D01*
X2600Y3405D01*
X2601Y3405D01*
X2602Y3405D01*
X2603Y3405D01*
X2604Y3405D01*
X2605Y3405D01*
X2606Y3405D01*
X2607Y3405D01*
X2608Y3405D01*
X2609Y3405D01*
X2610Y3405D01*
X2611Y3405D01*
X2612Y3405D01*
X2613Y3405D01*
X2614Y3405D01*
X2615Y3405D01*
X2616Y3405D01*
X2617Y3405D01*
X2618Y3405D01*
X2619Y3405D01*
X2620Y3405D01*
X2621Y3405D01*
X2622Y3405D01*
X2623Y3405D01*
X2624Y3405D01*
X2625Y3405D01*
X2626Y3405D01*
X2627Y3405D01*
X2628Y3405D01*
X2629Y3405D01*
X2630Y3405D01*
X2631Y3405D01*
X2632Y3405D01*
X2633Y3405D01*
X2634Y3405D01*
X2635Y3405D01*
X2636Y3405D01*
X2637Y3405D01*
X2638Y3405D01*
X2639Y3405D01*
X2640Y3405D01*
X2641Y3405D01*
X2642Y3405D01*
X2643Y3405D01*
X2644Y3405D01*
X2645Y3405D01*
X2646Y3405D01*
X2647Y3405D01*
X2648Y3405D01*
X2649Y3405D01*
X2650Y3405D01*
X2651Y3405D01*
X2652Y3405D01*
X2653Y3405D01*
X2654Y3405D01*
X2655Y3405D01*
X2656Y3405D01*
X2657Y3405D01*
X2658Y3405D01*
X2659Y3405D01*
X2660Y3405D01*
X2661Y3405D01*
X2662Y3405D01*
X2663Y3405D01*
X2664Y3405D01*
X2665Y3405D01*
X2666Y3405D01*
X2667Y3405D01*
X2668Y3405D01*
X2669Y3405D01*
X2670Y3405D01*
X2671Y3405D01*
X2672Y3405D01*
X2673Y3405D01*
X2674Y3405D01*
X2675Y3405D01*
X2676Y3405D01*
X2677Y3405D01*
X2678Y3405D01*
X2679Y3405D01*
X2680Y3405D01*
X2681Y3405D01*
X2682Y3405D01*
X2683Y3405D01*
X2684Y3405D01*
X2685Y3405D01*
X2686Y3405D01*
X2687Y3405D01*
X2688Y3405D01*
X2689Y3405D01*
X2690Y3405D01*
X2691Y3405D01*
X2692Y3405D01*
X2693Y3405D01*
X2694Y3405D01*
X2695Y3405D01*
X2696Y3405D01*
X2697Y3405D01*
X2698Y3405D01*
X2699Y3405D01*
X2700Y3405D01*
X2701Y3405D01*
X2702Y3405D01*
X2703Y3405D01*
X2704Y3405D01*
X2705Y3405D01*
X2706Y3405D01*
X2707Y3405D01*
X2708Y3405D01*
X2709Y3405D01*
X2710Y3405D01*
X2711Y3405D01*
X2712Y3405D01*
X2713Y3405D01*
X2714Y3405D01*
X2715Y3405D01*
X2716Y3405D01*
X2717Y3405D01*
X2718Y3405D01*
X2719Y3405D01*
X2720Y3405D01*
X2721Y3405D01*
X2722Y3405D01*
X2723Y3405D01*
X2724Y3405D01*
X2725Y3405D01*
X2726Y3405D01*
X2727Y3405D01*
X2728Y3405D01*
X2729Y3405D01*
X2730Y3405D01*
X2731Y3405D01*
X2732Y3405D01*
X2733Y3405D01*
X2734Y3405D01*
X2735Y3405D01*
X2736Y3405D01*
X2737Y3405D01*
X2738Y3405D01*
X2739Y3405D01*
X2740Y3405D01*
X2741Y3405D01*
X2742Y3405D01*
X2743Y3405D01*
X2744Y3405D01*
X2745Y3405D01*
X2746Y3405D01*
X2747Y3405D01*
X2748Y3405D01*
X2749Y3405D01*
X2750Y3405D01*
X2751Y3405D01*
X2752Y3405D01*
X2753Y3405D01*
X2754Y3405D01*
X2755Y3405D01*
X2756Y3405D01*
X2757Y3405D01*
X2758Y3405D01*
X2759Y3405D01*
X2760Y3405D01*
X2761Y3405D01*
X2762Y3405D01*
X2763Y3405D01*
X2764Y3405D01*
X2765Y3405D01*
X2766Y3405D01*
X2767Y3405D01*
X2768Y3405D01*
X2769Y3405D01*
X2770Y3405D01*
X2771Y3405D01*
X2772Y3405D01*
X2773Y3405D01*
X2774Y3405D01*
X2775Y3405D01*
X2776Y3405D01*
X2777Y3405D01*
X2778Y3405D01*
X2779Y3405D01*
X2780Y3405D01*
X2781Y3405D01*
X2782Y3405D01*
X2783Y3405D01*
X2784Y3405D01*
X2785Y3405D01*
X2786Y3405D01*
X2787Y3405D01*
X2788Y3405D01*
X2789Y3405D01*
X2790Y3405D01*
X2791Y3405D01*
X2792Y3405D01*
X2793Y3405D01*
X2794Y3405D01*
X2795Y3405D01*
X2796Y3405D01*
X2797Y3405D01*
X2798Y3405D01*
X2799Y3405D01*
X2800Y3405D01*
X2801Y3405D01*
X2802Y3405D01*
X2803Y3405D01*
X2804Y3405D01*
X2805Y3405D01*
X2806Y3405D01*
X2807Y3405D01*
X2808Y3405D01*
X2809Y3405D01*
X2810Y3405D01*
X2811Y3405D01*
X2812Y3405D01*
X2813Y3405D01*
X2814Y3405D01*
X2815Y3405D01*
X2816Y3405D01*
X2817Y3405D01*
X2818Y3405D01*
X2819Y3405D01*
X2820Y3405D01*
X2821Y3405D01*
X2822Y3405D01*
X2823Y3405D01*
X2824Y3405D01*
X2825Y3405D01*
X2826Y3405D01*
X2827Y3405D01*
X2828Y3405D01*
X2829Y3405D01*
X2830Y3405D01*
X2831Y3405D01*
X2832Y3405D01*
X2833Y3405D01*
X2834Y3405D01*
X2835Y3405D01*
X2836Y3405D01*
X2837Y3405D01*
X2838Y3405D01*
X2839Y3405D01*
X2840Y3405D01*
X2841Y3405D01*
X2842Y3405D01*
X2843Y3405D01*
X2844Y3405D01*
X2845Y3405D01*
X2846Y3405D01*
X2847Y3405D01*
X2848Y3405D01*
X2849Y3405D01*
X2850Y3405D01*
X2851Y3405D01*
X2852Y3405D01*
X2853Y3405D01*
X2854Y3405D01*
X2855Y3405D01*
X2856Y3405D01*
X2857Y3405D01*
X2858Y3405D01*
X2859Y3405D01*
X2860Y3405D01*
X2861Y3405D01*
X2862Y3405D01*
X2863Y3405D01*
X2864Y3405D01*
X2865Y3405D01*
X2866Y3405D01*
X2867Y3405D01*
X2868Y3405D01*
X2869Y3405D01*
X2870Y3405D01*
X2871Y3405D01*
X2872Y3405D01*
X2873Y3405D01*
X2874Y3405D01*
X2875Y3405D01*
X2876Y3405D01*
X2877Y3405D01*
X2878Y3405D01*
X2879Y3405D01*
X2880Y3405D01*
X2881Y3405D01*
X2882Y3405D01*
X2883Y3405D01*
X2884Y3405D01*
X2885Y3405D01*
X2886Y3405D01*
X2887Y3405D01*
X2888Y3405D01*
X2889Y3405D01*
X2890Y3405D01*
X2891Y3405D01*
X2892Y3405D01*
X2893Y3405D01*
X2894Y3405D01*
X2895Y3405D01*
X2896Y3405D01*
X2897Y3405D01*
X2898Y3405D01*
X2899Y3405D01*
X2900Y3405D01*
X2901Y3405D01*
X2902Y3405D01*
X2903Y3405D01*
X2904Y3405D01*
X2905Y3405D01*
X2906Y3405D01*
X2907Y3405D01*
X2908Y3405D01*
X2909Y3405D01*
X2910Y3405D01*
X2911Y3405D01*
X2912Y3405D01*
X2913Y3405D01*
X2914Y3405D01*
X2915Y3405D01*
X2916Y3405D01*
X2917Y3405D01*
X2918Y3405D01*
X2919Y3405D01*
X2920Y3405D01*
X2921Y3405D01*
X2922Y3405D01*
X2923Y3405D01*
X2924Y3405D01*
X2925Y3405D01*
X2926Y3405D01*
X2927Y3405D01*
X2928Y3405D01*
X2929Y3405D01*
X2930Y3405D01*
X2931Y3405D01*
X2932Y3405D01*
X2933Y3405D01*
X2934Y3405D01*
X2935Y3405D01*
X2936Y3405D01*
X2937Y3405D01*
X2938Y3405D01*
X2939Y3405D01*
X2940Y3405D01*
X2941Y3405D01*
X2942Y3405D01*
X2943Y3405D01*
X2944Y3405D01*
X2945Y3405D01*
X2946Y3405D01*
X2947Y3405D01*
X2948Y3405D01*
X2949Y3405D01*
X2950Y3405D01*
X2951Y3405D01*
X2952Y3405D01*
X2953Y3405D01*
X2954Y3405D01*
X2955Y3405D01*
X2956Y3405D01*
X2957Y3405D01*
X2958Y3405D01*
X2959Y3405D01*
X2960Y3405D01*
X2961Y3405D01*
X2962Y3405D01*
X2963Y3405D01*
X2964Y3405D01*
X2965Y3405D01*
X2966Y3405D01*
X2967Y3405D01*
X2968Y3405D01*
X2969Y3405D01*
X2970Y3405D01*
X2971Y3405D01*
X2972Y3405D01*
X2973Y3405D01*
X2974Y3405D01*
X2975Y3405D01*
X2976Y3405D01*
X2977Y3405D01*
X2978Y3405D01*
X2979Y3405D01*
X2980Y3405D01*
X2981Y3405D01*
X2982Y3405D01*
X2983Y3405D01*
X2984Y3405D01*
X2985Y3405D01*
X2986Y3405D01*
X2987Y3405D01*
X2988Y3405D01*
X2989Y3405D01*
X2990Y3405D01*
X2991Y3405D01*
X2992Y3405D01*
X2993Y3405D01*
X2994Y3405D01*
X2995Y3405D01*
X2996Y3405D01*
X2997Y3405D01*
X2998Y3405D01*
X2999Y3405D01*
X3000Y3405D01*
X3001Y3405D01*
X3002Y3405D01*
X3003Y3405D01*
X3004Y3405D01*
X3005Y3405D01*
X3006Y3405D01*
X3007Y3405D01*
X3008Y3405D01*
X3009Y3405D01*
X3010Y3405D01*
X3011Y3405D01*
X3012Y3405D01*
X3013Y3405D01*
X3014Y3405D01*
X3015Y3405D01*
X3016Y3405D01*
X3017Y3405D01*
X3018Y3405D01*
X3019Y3405D01*
X3020Y3405D01*
X3021Y3405D01*
X3022Y3405D01*
X3023Y3405D01*
X3024Y3405D01*
X3025Y3405D01*
X3026Y3405D01*
X3027Y3405D01*
X3028Y3405D01*
X3029Y3405D01*
X3030Y3405D01*
X3031Y3405D01*
X3032Y3405D01*
X3033Y3405D01*
X3034Y3405D01*
X3035Y3405D01*
X3036Y3405D01*
X3037Y3405D01*
X3038Y3405D01*
X3039Y3405D01*
X3040Y3405D01*
X3041Y3405D01*
X3042Y3405D01*
X3043Y3405D01*
X3044Y3405D01*
X3045Y3405D01*
X3046Y3405D01*
X3047Y3405D01*
X3048Y3405D01*
X3049Y3405D01*
X3050Y3405D01*
X3051Y3405D01*
X3052Y3405D01*
X3053Y3405D01*
X3054Y3405D01*
X3055Y3405D01*
X3056Y3405D01*
X3057Y3405D01*
X3058Y3405D01*
X3059Y3405D01*
X3060Y3405D01*
X3061Y3405D01*
X3062Y3405D01*
X3063Y3405D01*
X3064Y3405D01*
X3065Y3405D01*
X3066Y3405D01*
X3067Y3405D01*
X3068Y3405D01*
X3069Y3405D01*
X3070Y3405D01*
X3071Y3405D01*
X3072Y3405D01*
X3073Y3405D01*
X3074Y3405D01*
X3075Y3405D01*
X3076Y3405D01*
X3077Y3405D01*
X3078Y3405D01*
X3079Y3405D01*
X3080Y3405D01*
X3081Y3405D01*
X3082Y3405D01*
X3083Y3405D01*
X3084Y3405D01*
X3085Y3405D01*
X3086Y3405D01*
X3087Y3405D01*
X3088Y3405D01*
X3089Y3405D01*
X3090Y3405D01*
X3091Y3405D01*
X3092Y3405D01*
X3093Y3405D01*
X3094Y3405D01*
X3095Y3405D01*
X3096Y3405D01*
X3097Y3405D01*
X3098Y3405D01*
X3099Y3405D01*
X3100Y3405D01*
X3101Y3405D01*
X3102Y3405D01*
X3103Y3405D01*
X3104Y3405D01*
X3105Y3405D01*
X3106Y3405D01*
X3107Y3405D01*
X3108Y3405D01*
X3109Y3405D01*
X3110Y3405D01*
X3111Y3405D01*
X3112Y3405D01*
X3113Y3405D01*
X3114Y3405D01*
X3115Y3405D01*
X3116Y3405D01*
X3117Y3405D01*
X3118Y3405D01*
X3119Y3405D01*
X3120Y3405D01*
X3121Y3405D01*
X3122Y3405D01*
X3123Y3405D01*
X3124Y3405D01*
X3125Y3405D01*
X3126Y3405D01*
X3127Y3405D01*
X3128Y3405D01*
X3129Y3405D01*
X3130Y3405D01*
X3131Y3405D01*
X3132Y3405D01*
X3133Y3405D01*
X3134Y3405D01*
X3135Y3405D01*
X3136Y3405D01*
X3137Y3405D01*
X3138Y3405D01*
X3139Y3405D01*
X3140Y3405D01*
X3141Y3405D01*
X3142Y3405D01*
X3143Y3405D01*
X3144Y3405D01*
X3145Y3405D01*
X3146Y3405D01*
X3147Y3405D01*
X3148Y3405D01*
X3149Y3405D01*
X3150Y3405D01*
X3151Y3405D01*
X3152Y3405D01*
X3153Y3405D01*
X3154Y3405D01*
X3155Y3405D01*
X3156Y3405D01*
X3157Y3405D01*
X3158Y3405D01*
X3159Y3405D01*
X3160Y3405D01*
X3161Y3405D01*
X3162Y3405D01*
X3163Y3405D01*
X3164Y3405D01*
X3165Y3405D01*
X3166Y3405D01*
X3167Y3405D01*
X3168Y3405D01*
X3169Y3405D01*
X3170Y3405D01*
X3171Y3405D01*
X3172Y3405D01*
X3173Y3405D01*
X3174Y3405D01*
X3175Y3405D01*
X3176Y3405D01*
X3177Y3405D01*
X3178Y3405D01*
X3179Y3405D01*
X3180Y3405D01*
X3181Y3405D01*
X3182Y3405D01*
X3183Y3405D01*
X3184Y3405D01*
X3185Y3405D01*
X3186Y3405D01*
X3187Y3405D01*
X3188Y3405D01*
X3189Y3405D01*
X3190Y3405D01*
X3191Y3405D01*
X3192Y3405D01*
X3193Y3405D01*
X3194Y3405D01*
X3195Y3405D01*
X3196Y3405D01*
X3197Y3405D01*
X3198Y3405D01*
X3199Y3405D01*
X3200Y3405D01*
X3201Y3405D01*
X3202Y3405D01*
X3203Y3405D01*
X3204Y3405D01*
X3205Y3405D01*
X3206Y3405D01*
X3207Y3405D01*
X3208Y3405D01*
X3209Y3405D01*
X3210Y3405D01*
X3211Y3405D01*
X3212Y3405D01*
X3213Y3405D01*
X3214Y3405D01*
X3215Y3405D01*
X3216Y3405D01*
X3217Y3405D01*
X3218Y3405D01*
X3219Y3405D01*
X3220Y3405D01*
X3221Y3405D01*
X3222Y3405D01*
X3223Y3405D01*
X3224Y3405D01*
X3225Y3405D01*
X3226Y3405D01*
X3227Y3405D01*
X3228Y3405D01*
X3229Y3405D01*
X3230Y3405D01*
X3231Y3405D01*
X3232Y3405D01*
X3233Y3405D01*
X3234Y3405D01*
X3235Y3405D01*
X3236Y3405D01*
X3237Y3405D01*
X3238Y3405D01*
X3239Y3405D01*
X3240Y3405D01*
X3241Y3405D01*
X3242Y3405D01*
X3243Y3405D01*
X3244Y3405D01*
X3245Y3405D01*
X3246Y3405D01*
X3247Y3405D01*
X3248Y3405D01*
X3249Y3405D01*
X3250Y3405D01*
X3251Y3405D01*
X3252Y3405D01*
X3253Y3405D01*
X3254Y3405D01*
X3255Y3405D01*
X3256Y3405D01*
X3257Y3405D01*
X3258Y3405D01*
X3259Y3405D01*
X3260Y3405D01*
X3261Y3405D01*
X3262Y3405D01*
X3263Y3405D01*
X3264Y3405D01*
X3265Y3405D01*
X3266Y3405D01*
X3267Y3405D01*
X3268Y3405D01*
X3269Y3405D01*
X3270Y3405D01*
X3271Y3405D01*
X3272Y3405D01*
X3273Y3405D01*
X3274Y3405D01*
X3275Y3405D01*
X3276Y3405D01*
X3277Y3405D01*
X3278Y3405D01*
X3279Y3405D01*
X3280Y3405D01*
X3281Y3405D01*
X3282Y3405D01*
X3283Y3405D01*
X3284Y3405D01*
X3285Y3405D01*
X3286Y3405D01*
X3287Y3405D01*
X3288Y3405D01*
X3289Y3405D01*
X3290Y3405D01*
X3291Y3405D01*
X3292Y3405D01*
X3293Y3405D01*
X3294Y3405D01*
X3295Y3405D01*
X3296Y3405D01*
X3297Y3405D01*
X3298Y3405D01*
X3299Y3405D01*
X3300Y3405D01*
X3301Y3405D01*
X3302Y3405D01*
X3303Y3405D01*
X3304Y3405D01*
X3305Y3405D01*
X3306Y3405D01*
X3307Y3405D01*
X3308Y3405D01*
X3309Y3405D01*
X3310Y3405D01*
X3311Y3405D01*
X3312Y3405D01*
X3313Y3405D01*
X3314Y3405D01*
X3315Y3405D01*
X3316Y3405D01*
X3317Y3405D01*
X3318Y3405D01*
X3319Y3405D01*
X3320Y3405D01*
X3321Y3405D01*
X3322Y3405D01*
X3323Y3405D01*
X3324Y3405D01*
X3325Y3405D01*
X3326Y3405D01*
X3327Y3405D01*
X3328Y3405D01*
X3329Y3405D01*
X3330Y3405D01*
X3331Y3405D01*
X3332Y3405D01*
X3333Y3405D01*
X3334Y3405D01*
X3335Y3405D01*
X3336Y3405D01*
X3337Y3405D01*
X3338Y3405D01*
X3339Y3405D01*
X3340Y3405D01*
X3341Y3405D01*
X3342Y3405D01*
X3343Y3405D01*
X3344Y3405D01*
X3345Y3405D01*
X3346Y3405D01*
X3347Y3405D01*
X3348Y3405D01*
X3349Y3405D01*
X3350Y3405D01*
X3351Y3405D01*
X3352Y3405D01*
X3353Y3405D01*
X3354Y3405D01*
X3355Y3405D01*
X3356Y3405D01*
X3357Y3405D01*
X3358Y3405D01*
X3359Y3405D01*
X3360Y3405D01*
X3361Y3405D01*
X3362Y3405D01*
X3363Y3405D01*
X3364Y3405D01*
X3365Y3405D01*
X3366Y3405D01*
X3367Y3405D01*
X3368Y3405D01*
X3369Y3405D01*
X3370Y3405D01*
X3371Y3405D01*
X3372Y3405D01*
X3373Y3405D01*
X3374Y3405D01*
X3375Y3405D01*
X3376Y3405D01*
X3377Y3405D01*
X3378Y3405D01*
X3379Y3405D01*
X3380Y3405D01*
X3381Y3405D01*
X3382Y3405D01*
X3383Y3405D01*
X3384Y3405D01*
X3385Y3405D01*
X3386Y3405D01*
X3387Y3405D01*
X3388Y3405D01*
X3389Y3405D01*
X3390Y3405D01*
X3391Y3405D01*
X3392Y3405D01*
X3393Y3405D01*
X3394Y3405D01*
X3395Y3405D01*
X3396Y3405D01*
X3397Y3405D01*
X3398Y3405D01*
X3399Y3405D01*
X3400Y3405D01*
X3401Y3405D01*
X3402Y3405D01*
X3403Y3405D01*
X3404Y3405D01*
X3405Y3405D01*
X3406Y3405D01*
X3407Y3405D01*
X3408Y3405D01*
X3409Y3405D01*
X3410Y3405D01*
X3411Y3405D01*
X3412Y3405D01*
X3413Y3405D01*
X3414Y3405D01*
X3415Y3405D01*
X3416Y3405D01*
X3417Y3405D01*
X3418Y3405D01*
X3419Y3405D01*
X3420Y3405D01*
X3421Y3405D01*
X3422Y3405D01*
X3423Y3405D01*
X3424Y3405D01*
X3425Y3405D01*
X3426Y3405D01*
X3427Y3405D01*
X3428Y3405D01*
X3429Y3405D01*
X3430Y3405D01*
X3431Y3405D01*
X3432Y3405D01*
X3433Y3405D01*
X3434Y3405D01*
X3435Y3405D01*
X3436Y3405D01*
X3437Y3405D01*
X3438Y3405D01*
X3439Y3405D01*
X3440Y3405D01*
X3441Y3405D01*
X3442Y3405D01*
X3443Y3405D01*
X3444Y3405D01*
X3445Y3405D01*
X3446Y3405D01*
X3447Y3405D01*
X3448Y3405D01*
X3449Y3405D01*
X3450Y3405D01*
X3451Y3405D01*
X3452Y3405D01*
X3453Y3405D01*
X3454Y3405D01*
X3455Y3405D01*
X3456Y3405D01*
X3457Y3405D01*
X3458Y3405D01*
X3459Y3405D01*
X3460Y3405D01*
X3461Y3405D01*
X3462Y3405D01*
X3463Y3405D01*
X3464Y3405D01*
X3465Y3405D01*
X3466Y3405D01*
X3467Y3405D01*
X3468Y3405D01*
X3469Y3405D01*
X3470Y3405D01*
X3471Y3405D01*
X3472Y3405D01*
X3473Y3405D01*
X3474Y3405D01*
X3475Y3405D01*
X3476Y3405D01*
X3477Y3405D01*
X3478Y3405D01*
X3479Y3405D01*
X3480Y3405D01*
X3481Y3405D01*
X3482Y3405D01*
X3483Y3405D01*
X3484Y3405D01*
X3485Y3405D01*
X3486Y3405D01*
X3487Y3405D01*
X3488Y3405D01*
X3489Y3405D01*
X3490Y3405D01*
X3491Y3405D01*
X3492Y3405D01*
X3493Y3405D01*
X3494Y3405D01*
X3495Y3405D01*
X3496Y3405D01*
X3497Y3405D01*
X3498Y3405D01*
X3499Y3405D01*
X3500Y3405D01*
X3501Y3405D01*
X3502Y3405D01*
X3503Y3405D01*
X3504Y3405D01*
X3505Y3405D01*
X3506Y3405D01*
X3507Y3405D01*
X3508Y3405D01*
X3509Y3405D01*
X3510Y3405D01*
X3511Y3405D01*
X3512Y3405D01*
X3513Y3405D01*
X3514Y3405D01*
X3515Y3405D01*
X3516Y3405D01*
X3517Y3405D01*
X3518Y3405D01*
X3519Y3405D01*
X3520Y3405D01*
X3521Y3405D01*
X3522Y3405D01*
X3523Y3405D01*
X3524Y3405D01*
X3525Y3405D01*
X3526Y3405D01*
X3527Y3405D01*
X3528Y3405D01*
X3529Y3405D01*
X3530Y3405D01*
X3531Y3405D01*
X3532Y3405D01*
X3533Y3405D01*
X3534Y3405D01*
X3535Y3405D01*
X3536Y3405D01*
X3537Y3405D01*
X3538Y3405D01*
X3539Y3405D01*
X3540Y3405D01*
X3541Y3405D01*
X3542Y3405D01*
X3543Y3405D01*
X3544Y3405D01*
X3545Y3405D01*
X3546Y3405D01*
X3547Y3405D01*
X3548Y3405D01*
X3549Y3405D01*
X3550Y3405D01*
X3551Y3405D01*
X3552Y3405D01*
X3553Y3405D01*
X3554Y3405D01*
X3555Y3405D01*
X3556Y3405D01*
X3557Y3405D01*
X3558Y3405D01*
X3559Y3405D01*
X3560Y3405D01*
X3561Y3405D01*
X3562Y3405D01*
X3563Y3405D01*
X3564Y3405D01*
X3565Y3405D01*
X3566Y3405D01*
X3567Y3405D01*
X3568Y3405D01*
X3569Y3405D01*
X3570Y3405D01*
X3571Y3405D01*
X3572Y3405D01*
X3573Y3405D01*
X3574Y3405D01*
X3575Y3405D01*
X3576Y3405D01*
X3577Y3405D01*
X3578Y3405D01*
X3579Y3405D01*
X3580Y3405D01*
X3581Y3405D01*
X3582Y3405D01*
X3583Y3405D01*
X3584Y3405D01*
X3585Y3405D01*
X3586Y3405D01*
X3587Y3405D01*
X3588Y3405D01*
X3589Y3405D01*
X3590Y3405D01*
X3591Y3405D01*
X3592Y3405D01*
X3593Y3405D01*
X3594Y3405D01*
X3595Y3405D01*
X3596Y3405D01*
X3597Y3405D01*
X3598Y3405D01*
X3599Y3405D01*
X3600Y3405D01*
X3601Y3405D01*
X3602Y3405D01*
X3603Y3405D01*
X3604Y3405D01*
X3605Y3405D01*
X3606Y3405D01*
X3607Y3405D01*
X3608Y3405D01*
X3609Y3405D01*
X3610Y3405D01*
X3611Y3405D01*
X3612Y3405D01*
X3613Y3405D01*
X3614Y3405D01*
X3615Y3405D01*
X3616Y3405D01*
X3617Y3405D01*
X3618Y3405D01*
X3619Y3405D01*
X3620Y3405D01*
X3621Y3405D01*
X3622Y3405D01*
X3623Y3405D01*
X3624Y3405D01*
X3625Y3405D01*
X3626Y3405D01*
X3627Y3405D01*
X3628Y3405D01*
X3629Y3405D01*
X3630Y3405D01*
X3631Y3405D01*
X3632Y3405D01*
X3633Y3405D01*
X3634Y3405D01*
X3635Y3405D01*
X3636Y3405D01*
X3637Y3405D01*
X3638Y3405D01*
X3639Y3405D01*
X3640Y3405D01*
X3641Y3405D01*
X3642Y3405D01*
X3643Y3405D01*
X3644Y3405D01*
X3645Y3405D01*
X3646Y3405D01*
X3647Y3405D01*
X3648Y3405D01*
X3649Y3405D01*
X3650Y3405D01*
X3651Y3405D01*
X3652Y3405D01*
X3653Y3405D01*
X3654Y3405D01*
X3655Y3405D01*
X3656Y3405D01*
X3657Y3405D01*
X3658Y3405D01*
X3659Y3405D01*
X3660Y3405D01*
X3661Y3405D01*
X3662Y3405D01*
X3663Y3405D01*
X3664Y3405D01*
X3665Y3405D01*
X3666Y3405D01*
X3667Y3405D01*
X3668Y3405D01*
X3669Y3405D01*
X3670Y3405D01*
X3671Y3405D01*
X3672Y3405D01*
X3673Y3405D01*
X3674Y3405D01*
X3675Y3405D01*
X3676Y3405D01*
X3677Y3405D01*
X3678Y3405D01*
X3679Y3405D01*
X3680Y3405D01*
X3681Y3405D01*
X3682Y3405D01*
X3683Y3405D01*
X3684Y3405D01*
X3685Y3405D01*
X3686Y3405D01*
X3687Y3405D01*
X3688Y3405D01*
X3689Y3405D01*
X3690Y3405D01*
X3691Y3405D01*
X3692Y3405D01*
X3693Y3405D01*
X3694Y3405D01*
X3695Y3405D01*
X3696Y3405D01*
X3697Y3405D01*
X3698Y3405D01*
X3699Y3405D01*
X3700Y3405D01*
X3701Y3405D01*
X3702Y3405D01*
X3703Y3405D01*
X3704Y3405D01*
X3705Y3405D01*
X3706Y3405D01*
X3707Y3405D01*
X3708Y3405D01*
X3709Y3405D01*
X3710Y3405D01*
X3711Y3405D01*
X3712Y3405D01*
X3713Y3405D01*
X3714Y3405D01*
X3715Y3405D01*
X3716Y3405D01*
X3717Y3405D01*
X3718Y3405D01*
X3719Y3405D01*
X3720Y3405D01*
X3721Y3405D01*
X3722Y3405D01*
X3723Y3405D01*
X3724Y3405D01*
X3725Y3405D01*
X3726Y3405D01*
X3727Y3405D01*
X3728Y3405D01*
X3729Y3405D01*
X3730Y3405D01*
X3731Y3405D01*
X3732Y3405D01*
X3733Y3405D01*
X3734Y3405D01*
X3735Y3405D01*
X3736Y3405D01*
X3737Y3405D01*
X3738Y3405D01*
X3739Y3405D01*
X3740Y3405D01*
X3741Y3405D01*
X3742Y3405D01*
X3743Y3405D01*
X3744Y3405D01*
X3745Y3405D01*
X3746Y3405D01*
X3747Y3405D01*
X3748Y3405D01*
X3749Y3405D01*
X3750Y3405D01*
X3751Y3405D01*
X3752Y3405D01*
X3753Y3405D01*
X3754Y3405D01*
X3755Y3405D01*
X3756Y3405D01*
X3757Y3405D01*
X3758Y3405D01*
X3759Y3405D01*
X3760Y3405D01*
X3761Y3405D01*
X3762Y3405D01*
X3763Y3405D01*
X3764Y3405D01*
X3765Y3405D01*
X3766Y3405D01*
X3767Y3405D01*
X3768Y3405D01*
X3769Y3405D01*
X3770Y3405D01*
X3771Y3405D01*
X3772Y3405D01*
X3773Y3405D01*
X3774Y3405D01*
X3775Y3405D01*
X3776Y3405D01*
X3777Y3405D01*
X3778Y3405D01*
X3779Y3405D01*
X3780Y3405D01*
X3781Y3405D01*
X3782Y3405D01*
X3783Y3405D01*
X3784Y3405D01*
X3785Y3405D01*
X3786Y3405D01*
X3787Y3405D01*
X3788Y3405D01*
X3789Y3405D01*
X3790Y3405D01*
X3791Y3405D01*
X3792Y3405D01*
X3793Y3405D01*
X3794Y3405D01*
X3795Y3405D01*
X3796Y3405D01*
X3797Y3405D01*
X3798Y3405D01*
X3799Y3405D01*
X3800Y3405D01*
X3801Y3405D01*
X3802Y3405D01*
X3803Y3405D01*
X3804Y3405D01*
X3805Y3405D01*
X3806Y3405D01*
X3807Y3405D01*
X3808Y3405D01*
X3809Y3405D01*
X3810Y3405D01*
X3811Y3405D01*
X3812Y3405D01*
X3813Y3405D01*
X3814Y3405D01*
X3815Y3405D01*
X3816Y3405D01*
X3817Y3405D01*
X3818Y3405D01*
X3819Y3405D01*
X3820Y3405D01*
X3821Y3405D01*
X3822Y3405D01*
X3823Y3405D01*
X3824Y3405D01*
X3825Y3405D01*
X3826Y3405D01*
X3827Y3405D01*
X3828Y3405D01*
X3829Y3405D01*
X3830Y3405D01*
X3831Y3405D01*
X3832Y3405D01*
X3833Y3405D01*
X3834Y3405D01*
X3835Y3405D01*
X3836Y3405D01*
X3837Y3405D01*
X3838Y3405D01*
X3839Y3405D01*
X3840Y3405D01*
X3841Y3405D01*
X3842Y3405D01*
X3843Y3405D01*
X3844Y3405D01*
X3845Y3405D01*
X3846Y3405D01*
X3847Y3405D01*
X3848Y3405D01*
X3849Y3405D01*
X3850Y3405D01*
X3851Y3405D01*
X3852Y3405D01*
X3853Y3405D01*
X3854Y3405D01*
X3855Y3405D01*
X3856Y3405D01*
X3857Y3405D01*
X3858Y3405D01*
X3859Y3405D01*
X3860Y3405D01*
X3861Y3405D01*
X3862Y3405D01*
X3863Y3405D01*
X3864Y3405D01*
X3865Y3405D01*
X3866Y3405D01*
X3867Y3405D01*
X3868Y3405D01*
X3869Y3405D01*
X3870Y3405D01*
X3871Y3405D01*
X3872Y3405D01*
X3873Y3405D01*
X3874Y3405D01*
X3875Y3405D01*
X3876Y3405D01*
X3877Y3405D01*
X3878Y3405D01*
X3879Y3405D01*
X3880Y3405D01*
X3881Y3405D01*
X3882Y3405D01*
X3883Y3405D01*
X3884Y3405D01*
X3885Y3405D01*
X3886Y3405D01*
X3887Y3405D01*
X3888Y3405D01*
X3889Y3405D01*
X3890Y3405D01*
X3891Y3405D01*
X3892Y3405D01*
X3893Y3405D01*
X3894Y3405D01*
X3895Y3405D01*
X3896Y3405D01*
X3897Y3405D01*
X3898Y3405D01*
X3899Y3405D01*
X3900Y3405D01*
X3901Y3405D01*
X3902Y3405D01*
X3903Y3405D01*
X3904Y3405D01*
X3905Y3405D01*
X3906Y3405D01*
X3907Y3405D01*
X3908Y3405D01*
X3909Y3405D01*
X3910Y3405D01*
X3911Y3405D01*
X3912Y3405D01*
X3913Y3405D01*
X3914Y3405D01*
X3915Y3405D01*
X3916Y3405D01*
X3917Y3405D01*
X3918Y3405D01*
X3919Y3405D01*
X3920Y3405D01*
X3921Y3405D01*
X3922Y3405D01*
X3923Y3405D01*
X3924Y3405D01*
X3925Y3405D01*
X3926Y3405D01*
X3927Y3405D01*
X3928Y3405D01*
X3929Y3405D01*
X3930Y3405D01*
X3931Y3405D01*
X3932Y3405D01*
X3933Y3405D01*
X3934Y3405D01*
X3935Y3405D01*
X3936Y3405D01*
X3937Y3405D01*
X3938Y3405D01*
X3939Y3405D01*
X3940Y3405D01*
X3941Y3405D01*
X3942Y3405D01*
X3943Y3405D01*
X3944Y3405D01*
X3945Y3405D01*
X3946Y3405D01*
X3947Y3405D01*
X3948Y3405D01*
X3949Y3405D01*
X3950Y3405D01*
X3951Y3405D01*
X3952Y3405D01*
X3953Y3405D01*
X3954Y3405D01*
X3955Y3405D01*
X3956Y3405D01*
X3957Y3405D01*
X3958Y3405D01*
X3959Y3405D01*
X3960Y3405D01*
X3961Y3405D01*
X3962Y3405D01*
X3963Y3405D01*
X3964Y3405D01*
X3965Y3405D01*
X3966Y3405D01*
X3967Y3405D01*
X3968Y3405D01*
X3969Y3405D01*
X3970Y3405D01*
X3971Y3405D01*
X3972Y3405D01*
X3973Y3405D01*
X3974Y3405D01*
X3975Y3405D01*
X3976Y3405D01*
X3977Y3405D01*
X3978Y3405D01*
X3979Y3405D01*
X3980Y3405D01*
X3981Y3405D01*
X3982Y3405D01*
X3983Y3405D01*
X3984Y3405D01*
X3985Y3405D01*
X3986Y3405D01*
X3987Y3405D01*
X3988Y3405D01*
X3989Y3405D01*
X3990Y3405D01*
X3991Y3405D01*
X3992Y3405D01*
X3993Y3405D01*
X3994Y3405D01*
X3995Y3405D01*
X3996Y3405D01*
X3997Y3405D01*
X3998Y3405D01*
X3999Y3405D01*
X4000Y3405D01*
X4001Y3405D01*
X4002Y3405D01*
X4003Y3405D01*
X4004Y3405D01*
X4005Y3405D01*
X4006Y3405D01*
X4007Y3405D01*
X4008Y3405D01*
X4009Y3405D01*
X4010Y3405D01*
X4011Y3405D01*
X4012Y3405D01*
X4013Y3405D01*
X4014Y3405D01*
X4015Y3405D01*
X4016Y3405D01*
X4017Y3405D01*
X4018Y3405D01*
X4019Y3405D01*
X4020Y3405D01*
X4021Y3405D01*
X4022Y3405D01*
X4023Y3405D01*
X4024Y3405D01*
X4025Y3405D01*
X4026Y3405D01*
X4027Y3405D01*
X4028Y3405D01*
X4029Y3405D01*
X4030Y3405D01*
X4031Y3405D01*
X4032Y3405D01*
X4033Y3405D01*
X4034Y3405D01*
X4035Y3405D01*
X4036Y3405D01*
X4037Y3405D01*
X4038Y3405D01*
X4039Y3405D01*
X4040Y3405D01*
X4041Y3405D01*
X4042Y3405D01*
X4043Y3405D01*
X4044Y3405D01*
X4045Y3405D01*
X4046Y3405D01*
X4047Y3405D01*
X4048Y3405D01*
X4049Y3405D01*
X4050Y3405D01*
X4051Y3405D01*
X4052Y3405D01*
X4053Y3405D01*
X4054Y3405D01*
X4055Y3405D01*
X4056Y3405D01*
X4057Y3405D01*
X4058Y3405D01*
X4059Y3405D01*
X4060Y3405D01*
X4061Y3405D01*
X4062Y3405D01*
X4063Y3405D01*
X4064Y3405D01*
X4065Y3405D01*
X4066Y3405D01*
X4067Y3405D01*
X4068Y3405D01*
X4069Y3405D01*
X4070Y3405D01*
X4071Y3405D01*
X4072Y3405D01*
X4073Y3405D01*
X4074Y3405D01*
X4075Y3405D01*
X4076Y3405D01*
X4077Y3405D01*
X4078Y3405D01*
X4079Y3405D01*
X4080Y3405D01*
X4081Y3405D01*
X4082Y3405D01*
X4083Y3405D01*
X4084Y3405D01*
X4085Y3405D01*
X4086Y3405D01*
X4087Y3405D01*
X4088Y3405D01*
X4089Y3405D01*
X4090Y3405D01*
X4091Y3405D01*
X4092Y3405D01*
X4093Y3405D01*
X4094Y3405D01*
X4095Y3405D01*
X4096Y3405D01*
X4097Y3405D01*
X4098Y3405D01*
X4099Y3405D01*
X4100Y3405D01*
X4101Y3405D01*
X4102Y3405D01*
X4103Y3405D01*
X4104Y3405D01*
X4105Y3405D01*
X4106Y3405D01*
X4107Y3405D01*
X4108Y3405D01*
X4109Y3405D01*
X4110Y3405D01*
X4111Y3405D01*
X4112Y3405D01*
X4113Y3405D01*
X4114Y3405D01*
X4115Y3405D01*
X4116Y3405D01*
X4117Y3405D01*
X4118Y3405D01*
X4119Y3405D01*
X4120Y3405D01*
X4121Y3405D01*
X4122Y3405D01*
X4123Y3405D01*
X4124Y3405D01*
X4125Y3405D01*
X4126Y3405D01*
X4127Y3405D01*
X4128Y3405D01*
X4129Y3405D01*
X4130Y3405D01*
X4131Y3405D01*
X4132Y3405D01*
X4133Y3405D01*
X4134Y3405D01*
X4135Y3405D01*
X4136Y3405D01*
X4137Y3405D01*
X4138Y3405D01*
X4139Y3405D01*
X4140Y3405D01*
X4141Y3405D01*
X4142Y3405D01*
X4143Y3405D01*
X4144Y3405D01*
X4145Y3405D01*
X4146Y3405D01*
X4147Y3405D01*
X4148Y3405D01*
X4149Y3405D01*
X4150Y3405D01*
X4151Y3405D01*
X4152Y3405D01*
X4153Y3405D01*
X4154Y3405D01*
X4155Y3405D01*
X4156Y3405D01*
X4157Y3405D01*
X4158Y3405D01*
X4159Y3405D01*
X4160Y3405D01*
X4161Y3405D01*
X4162Y3405D01*
X4163Y3405D01*
X4164Y3405D01*
X4165Y3405D01*
X4166Y3405D01*
X4167Y3405D01*
X4168Y3405D01*
X4169Y3405D01*
X4170Y3405D01*
X4171Y3405D01*
X4172Y3405D01*
X4173Y3405D01*
X4174Y3405D01*
X4175Y3405D01*
X4176Y3405D01*
X4177Y3405D01*
X4178Y3405D01*
X4179Y3405D01*
X4180Y3405D01*
X4181Y3405D01*
X4182Y3405D01*
X4183Y3405D01*
X4184Y3405D01*
X4185Y3405D01*
X4186Y3405D01*
X4187Y3405D01*
X4188Y3405D01*
X4189Y3405D01*
X4190Y3405D01*
X4191Y3405D01*
X4192Y3405D01*
X4193Y3405D01*
X4194Y3405D01*
X4195Y3405D01*
X4196Y3405D01*
X4197Y3405D01*
X4198Y3405D01*
X4199Y3405D01*
X4200Y3405D01*
X4201Y3405D01*
X4202Y3405D01*
X4203Y3405D01*
X4204Y3405D01*
X4205Y3405D01*
X4206Y3405D01*
X4207Y3405D01*
X4208Y3405D01*
X4209Y3405D01*
X4210Y3405D01*
X4211Y3405D01*
X4212Y3405D01*
X4213Y3405D01*
X4214Y3405D01*
X4215Y3405D01*
X4216Y3405D01*
X4217Y3405D01*
X4218Y3405D01*
X4219Y3405D01*
X4220Y3405D01*
X4221Y3405D01*
X4222Y3405D01*
X4223Y3405D01*
X4224Y3405D01*
X4225Y3405D01*
X4226Y3405D01*
X4227Y3405D01*
X4228Y3405D01*
X4229Y3405D01*
X4230Y3405D01*
X4231Y3405D01*
X4232Y3405D01*
X4233Y3405D01*
X4234Y3405D01*
X4235Y3405D01*
X4236Y3405D01*
X4237Y3405D01*
X4238Y3405D01*
X4239Y3405D01*
X4240Y3405D01*
X4241Y3405D01*
X4242Y3405D01*
X4243Y3405D01*
X4244Y3405D01*
X4245Y3405D01*
X4246Y3405D01*
X4247Y3405D01*
X4248Y3405D01*
X4249Y3405D01*
X4250Y3405D01*
X4251Y3405D01*
X4252Y3405D01*
X4253Y3405D01*
X4254Y3405D01*
X4255Y3405D01*
X4256Y3405D01*
X4257Y3405D01*
X4258Y3405D01*
X4259Y3405D01*
X4260Y3405D01*
X4261Y3405D01*
X4262Y3405D01*
X4263Y3405D01*
X4264Y3405D01*
X4265Y3405D01*
X4266Y3405D01*
X4267Y3405D01*
X4268Y3405D01*
X4269Y3405D01*
X4270Y3405D01*
X4271Y3405D01*
X4272Y3405D01*
X4273Y3405D01*
X4274Y3405D01*
X4275Y3405D01*
X4276Y3405D01*
X4277Y3405D01*
X4278Y3405D01*
X4279Y3405D01*
X4280Y3405D01*
X4281Y3405D01*
X4282Y3405D01*
X4283Y3405D01*
X4284Y3405D01*
X4285Y3405D01*
X4286Y3405D01*
X4287Y3405D01*
X4288Y3405D01*
X4289Y3405D01*
X4290Y3405D01*
X4291Y3405D01*
X4292Y3405D01*
X4293Y3405D01*
X4294Y3405D01*
X4295Y3405D01*
X4296Y3405D01*
X4297Y3405D01*
X4298Y3405D01*
X4299Y3405D01*
X4300Y3405D01*
X4301Y3405D01*
X4302Y3405D01*
X4303Y3405D01*
X4304Y3405D01*
X4305Y3405D01*
X4306Y3405D01*
X4307Y3405D01*
X4308Y3405D01*
X4309Y3405D01*
X4310Y3405D01*
X4311Y3405D01*
X4312Y3405D01*
X4313Y3405D01*
X4314Y3405D01*
X4315Y3405D01*
X4316Y3405D01*
X4317Y3405D01*
X4318Y3405D01*
X4319Y3405D01*
X4320Y3405D01*
X4321Y3405D01*
X4322Y3405D01*
X4323Y3405D01*
X4324Y3405D01*
X4325Y3405D01*
X4326Y3405D01*
X4327Y3405D01*
X4328Y3405D01*
X4329Y3405D01*
X4330Y3405D01*
X4331Y3405D01*
X4332Y3405D01*
X4333Y3405D01*
X4334Y3405D01*
X4335Y3405D01*
X4336Y3405D01*
X4337Y3405D01*
X4338Y3405D01*
X4339Y3405D01*
X4340Y3405D01*
X4341Y3405D01*
X4342Y3405D01*
X4343Y3405D01*
X4344Y3405D01*
X4345Y3405D01*
X4346Y3405D01*
X4347Y3405D01*
X4348Y3405D01*
X4349Y3405D01*
X4350Y3405D01*
X4351Y3405D01*
X4352Y3405D01*
X4353Y3405D01*
X4354Y3405D01*
X4355Y3405D01*
X4356Y3405D01*
X4357Y3405D01*
X4358Y3405D01*
X4359Y3405D01*
X4360Y3405D01*
X4361Y3405D01*
X4362Y3405D01*
X4363Y3405D01*
X4364Y3405D01*
X4365Y3405D01*
X4366Y3405D01*
X4367Y3405D01*
X4368Y3405D01*
X4369Y3405D01*
X4370Y3405D01*
X4371Y3405D01*
X4372Y3405D01*
X4373Y3405D01*
X4374Y3405D01*
X4375Y3405D01*
X4376Y3405D01*
X4377Y3405D01*
X4378Y3405D01*
X4379Y3405D01*
X4380Y3405D01*
X4381Y3405D01*
X4382Y3405D01*
X4383Y3405D01*
X4384Y3405D01*
X4385Y3405D01*
X4386Y3405D01*
X4387Y3405D01*
X4388Y3405D01*
X4389Y3405D01*
X4390Y3405D01*
X4391Y3405D01*
X4392Y3405D01*
X4393Y3405D01*
X4394Y3405D01*
X4395Y3405D01*
X4396Y3405D01*
X4397Y3405D01*
X4398Y3405D01*
X4399Y3405D01*
X4400Y3405D01*
X4401Y3405D01*
X4402Y3405D01*
X4403Y3405D01*
X4404Y3405D01*
X4405Y3405D01*
X4406Y3405D01*
X4407Y3405D01*
X4408Y3405D01*
X4409Y3405D01*
X4410Y3405D01*
X4411Y3405D01*
X4412Y3405D01*
X4413Y3405D01*
X4414Y3405D01*
X4415Y3405D01*
X4416Y3405D01*
X4417Y3405D01*
X4418Y3405D01*
X4419Y3405D01*
X4420Y3405D01*
X4421Y3405D01*
X4422Y3405D01*
X4423Y3405D01*
X4424Y3405D01*
X4425Y3405D01*
X4426Y3405D01*
X4427Y3405D01*
X4428Y3405D01*
X4429Y3405D01*
X4430Y3405D01*
X4431Y3405D01*
X4432Y3405D01*
X4433Y3405D01*
X4434Y3405D01*
X4435Y3405D01*
X4436Y3405D01*
X4437Y3405D01*
X4438Y3405D01*
X4439Y3405D01*
X4440Y3405D01*
X4441Y3405D01*
X4442Y3405D01*
X4443Y3405D01*
X4444Y3405D01*
X4445Y3405D01*
X4446Y3405D01*
X4447Y3405D01*
X4448Y3405D01*
X4449Y3405D01*
X4450Y3405D01*
X4451Y3405D01*
X4452Y3405D01*
X4453Y3405D01*
X4454Y3405D01*
X4455Y3405D01*
X4456Y3405D01*
X4457Y3405D01*
X4458Y3405D01*
X4459Y3405D01*
X4460Y3405D01*
X4461Y3405D01*
X4462Y3405D01*
X4463Y3405D01*
X4464Y3405D01*
X4465Y3405D01*
X4466Y3405D01*
X4467Y3405D01*
X4468Y3405D01*
X4469Y3405D01*
X4470Y3405D01*
X4471Y3405D01*
X4472Y3405D01*
X4473Y3405D01*
X4474Y3405D01*
X4475Y3405D01*
X4476Y3405D01*
X4477Y3405D01*
X4478Y3405D01*
X4479Y3405D01*
X4480Y3405D01*
X4481Y3405D01*
X4482Y3405D01*
X4483Y3405D01*
X4484Y3405D01*
X4485Y3405D01*
X4486Y3405D01*
X4487Y3405D01*
X4488Y3405D01*
X4489Y3405D01*
X4490Y3405D01*
X4491Y3405D01*
X4492Y3405D01*
X4493Y3405D01*
X4494Y3405D01*
X4495Y3405D01*
X4496Y3405D01*
X4497Y3405D01*
X4498Y3405D01*
X4499Y3405D01*
X4500Y3405D01*
X4501Y3405D01*
X4502Y3405D01*
X4503Y3405D01*
X4504Y3405D01*
X4505Y3405D01*
X4506Y3405D01*
X4507Y3405D01*
X4508Y3405D01*
X4509Y3405D01*
X4510Y3405D01*
X4511Y3405D01*
X4512Y3405D01*
X4513Y3405D01*
X4514Y3405D01*
X4515Y3405D01*
X4516Y3405D01*
X4517Y3405D01*
X4518Y3405D01*
X4519Y3405D01*
X4520Y3405D01*
X4521Y3405D01*
X4522Y3405D01*
X4523Y3405D01*
X4524Y3405D01*
X4525Y3405D01*
X4526Y3405D01*
X4527Y3405D01*
X4528Y3405D01*
X4529Y3405D01*
X4530Y3405D01*
X4531Y3405D01*
X4532Y3405D01*
X4533Y3405D01*
X4534Y3405D01*
X4535Y3405D01*
X4536Y3405D01*
X4537Y3405D01*
X4538Y3405D01*
X4539Y3405D01*
X4540Y3405D01*
X4541Y3405D01*
X4542Y3405D01*
X4543Y3405D01*
X4544Y3405D01*
X4545Y3405D01*
X4546Y3405D01*
X4547Y3405D01*
X4548Y3405D01*
X4549Y3405D01*
X4550Y3405D01*
X4551Y3405D01*
X4552Y3405D01*
X4553Y3405D01*
X4554Y3405D01*
X4555Y3405D01*
X4556Y3405D01*
X4557Y3405D01*
X4558Y3405D01*
X4559Y3405D01*
X4560Y3405D01*
X4561Y3405D01*
X4562Y3405D01*
X4563Y3405D01*
X4564Y3405D01*
X4565Y3405D01*
X4566Y3405D01*
X4567Y3405D01*
X4568Y3405D01*
X4569Y3405D01*
X4570Y3405D01*
X4571Y3405D01*
X4572Y3405D01*
X4573Y3405D01*
X4574Y3405D01*
X4575Y3405D01*
X4576Y3405D01*
X4577Y3405D01*
X4578Y3405D01*
X4579Y3405D01*
X4580Y3405D01*
X4581Y3405D01*
X4582Y3405D01*
X4583Y3405D01*
X4584Y3405D01*
X4585Y3405D01*
X4586Y3405D01*
X4587Y3405D01*
X4588Y3405D01*
X4589Y3405D01*
X4590Y3405D01*
X4591Y3405D01*
X4592Y3405D01*
X4593Y3405D01*
X4594Y3405D01*
X4595Y3405D01*
X4596Y3405D01*
X4597Y3405D01*
X4598Y3405D01*
X4599Y3405D01*
X4600Y3405D01*
X4601Y3405D01*
X4602Y3405D01*
X4603Y3405D01*
X4604Y3405D01*
X4605Y3405D01*
X4606Y3405D01*
X4607Y3405D01*
X4608Y3405D01*
X4609Y3405D01*
X4610Y3405D01*
X4611Y3405D01*
X4612Y3405D01*
X4613Y3405D01*
X4614Y3405D01*
X4615Y3405D01*
X4616Y3405D01*
X4617Y3405D01*
X4618Y3405D01*
X4619Y3405D01*
X4620Y3405D01*
X4621Y3405D01*
X4622Y3405D01*
X4623Y3405D01*
X4624Y3405D01*
X4625Y3405D01*
X4626Y3405D01*
X4627Y3405D01*
X4628Y3405D01*
X4629Y3405D01*
X4630Y3405D01*
X4631Y3405D01*
X4632Y3405D01*
X4633Y3405D01*
X4634Y3405D01*
X4635Y3405D01*
X4636Y3405D01*
X4637Y3405D01*
X4638Y3405D01*
X4639Y3405D01*
X4640Y3405D01*
X4641Y3405D01*
X4642Y3405D01*
X4643Y3405D01*
X4644Y3405D01*
X4645Y3405D01*
X4646Y3405D01*
X4647Y3405D01*
X4648Y3405D01*
X4649Y3405D01*
X4650Y3405D01*
X4651Y3405D01*
X4652Y3405D01*
X4653Y3405D01*
X4654Y3405D01*
X4655Y3405D01*
X4656Y3405D01*
X4657Y3405D01*
X4658Y3405D01*
X4659Y3405D01*
X4660Y3405D01*
X4661Y3405D01*
X4662Y3405D01*
X4663Y3405D01*
X4664Y3405D01*
X4665Y3405D01*
X4666Y3405D01*
X4667Y3405D01*
X4668Y3405D01*
X4669Y3405D01*
X4670Y3405D01*
X4671Y3405D01*
X4672Y3405D01*
X4673Y3405D01*
X4674Y3405D01*
X4675Y3405D01*
X4676Y3405D01*
X4677Y3405D01*
X4678Y3405D01*
X4679Y3405D01*
X4680Y3405D01*
X4681Y3405D01*
X4682Y3405D01*
X4683Y3405D01*
X4684Y3405D01*
X4685Y3405D01*
X4686Y3405D01*
X4687Y3405D01*
X4688Y3405D01*
X4689Y3405D01*
X4690Y3405D01*
X4691Y3405D01*
X4692Y3405D01*
X4693Y3405D01*
X4694Y3405D01*
X4695Y3405D01*
X4696Y3405D01*
X4697Y3405D01*
X4698Y3405D01*
X4699Y3405D01*
X4700Y3405D01*
X4701Y3405D01*
X4702Y3405D01*
X4703Y3405D01*
X4704Y3405D01*
X4705Y3405D01*
X4706Y3405D01*
X4707Y3405D01*
X4708Y3405D01*
X4709Y3405D01*
X4710Y3405D01*
X4711Y3405D01*
X4712Y3405D01*
X4713Y3405D01*
X4714Y3405D01*
X4715Y3405D01*
X4716Y3405D01*
X4717Y3405D01*
X4718Y3405D01*
X4719Y3405D01*
X4720Y3405D01*
X4721Y3405D01*
X4722Y3405D01*
X4723Y3405D01*
X4724Y3405D01*
X4725Y3405D01*
X4726Y3405D01*
X4727Y3405D01*
X4728Y3405D01*
X4729Y3405D01*
X4730Y3405D01*
X4731Y3405D01*
X4732Y3405D01*
X4733Y3405D01*
X4734Y3405D01*
X4735Y3405D01*
X4736Y3405D01*
X4737Y3405D01*
X4738Y3405D01*
X4739Y3405D01*
X4740Y3405D01*
X4741Y3405D01*
X4742Y3405D01*
X4743Y3405D01*
X4744Y3405D01*
X4745Y3405D01*
X4746Y3405D01*
X4747Y3405D01*
X4748Y3405D01*
X4749Y3405D01*
X4750Y3405D01*
X4751Y3405D01*
X4752Y3405D01*
X4753Y3405D01*
X4754Y3405D01*
X4755Y3405D01*
X4756Y3405D01*
X4757Y3405D01*
X4758Y3405D01*
X4759Y3405D01*
X4760Y3405D01*
X4761Y3405D01*
X4762Y3405D01*
X4763Y3405D01*
X4764Y3405D01*
X4765Y3405D01*
X4766Y3405D01*
X4767Y3405D01*
X4768Y3405D01*
X4769Y3405D01*
X4770Y3405D01*
X4771Y3405D01*
X4772Y3405D01*
X4773Y3405D01*
X4774Y3405D01*
X4775Y3405D01*
X4776Y3405D01*
X4777Y3405D01*
X4778Y3405D01*
X4779Y3405D01*
X4780Y3405D01*
X4781Y3405D01*
X4782Y3405D01*
X4783Y3405D01*
X4784Y3405D01*
X4785Y3405D01*
X4786Y3405D01*
X4787Y3405D01*
X4788Y3405D01*
X4789Y3405D01*
X4790Y3405D01*
X4791Y3405D01*
X4792Y3405D01*
X4793Y3405D01*
X4794Y3405D01*
X4795Y3405D01*
X4796Y3405D01*
X4797Y3405D01*
X4798Y3405D01*
X4799Y3405D01*
X4800Y3405D01*
X4801Y3405D01*
X4802Y3405D01*
X4803Y3405D01*
X4804Y3405D01*
X4805Y3405D01*
X4806Y3405D01*
X4807Y3405D01*
X4808Y3405D01*
X4809Y3405D01*
X4810Y3405D01*
X4811Y3405D01*
X4812Y3405D01*
X4813Y3405D01*
X4814Y3405D01*
X4815Y3405D01*
X4816Y3405D01*
X4817Y3405D01*
X4818Y3405D01*
X4819Y3405D01*
X4820Y3405D01*
X4821Y3405D01*
X4822Y3405D01*
X4823Y3405D01*
X4824Y3405D01*
X4825Y3405D01*
X4826Y3405D01*
X4827Y3405D01*
X4828Y3405D01*
X4829Y3405D01*
X4830Y3405D01*
X4831Y3405D01*
X4832Y3405D01*
X4833Y3405D01*
X4834Y3405D01*
X4835Y3405D01*
X4836Y3405D01*
X4837Y3405D01*
X4838Y3405D01*
X4839Y3405D01*
X4840Y3405D01*
X4841Y3405D01*
X4842Y3405D01*
X4843Y3405D01*
X4844Y3405D01*
X4845Y3405D01*
X4846Y3405D01*
X4847Y3405D01*
X4848Y3405D01*
X4849Y3405D01*
X4850Y3405D01*
X4851Y3405D01*
X4852Y3405D01*
X4853Y3405D01*
X4854Y3405D01*
X4855Y3405D01*
X4856Y3405D01*
X4857Y3405D01*
X4858Y3405D01*
X4859Y3405D01*
X4860Y3405D01*
X4861Y3405D01*
X4862Y3405D01*
X4863Y3405D01*
X4864Y3405D01*
X4865Y3405D01*
X4866Y3405D01*
X4867Y3405D01*
X4868Y3405D01*
X4869Y3405D01*
X4870Y3405D01*
X4871Y3405D01*
X4872Y3405D01*
X4873Y3405D01*
X4874Y3405D01*
X4875Y3405D01*
X4876Y3405D01*
X4877Y3405D01*
X4878Y3405D01*
X4879Y3405D01*
X4880Y3405D01*
X4881Y3405D01*
X4882Y3405D01*
X4883Y3405D01*
X4884Y3405D01*
X4885Y3405D01*
X4886Y3405D01*
X4887Y3405D01*
X4888Y3405D01*
X4889Y3405D01*
X4890Y3405D01*
X4891Y3405D01*
X4892Y3405D01*
X4893Y3405D01*
X4894Y3405D01*
X4895Y3405D01*
X4896Y3405D01*
X4897Y3405D01*
X4898Y3405D01*
X4899Y3405D01*
X4900Y3405D01*
X4901Y3405D01*
X4902Y3405D01*
X4903Y3405D01*
X4904Y3405D01*
X4905Y3405D01*
X4906Y3405D01*
X4907Y3405D01*
X4908Y3405D01*
X4909Y3405D01*
X4910Y3405D01*
X4911Y3405D01*
X4912Y3405D01*
X4913Y3405D01*
X4914Y3405D01*
X4915Y3405D01*
X4916Y3405D01*
X4917Y3405D01*
X4918Y3405D01*
X4919Y3405D01*
X4920Y3405D01*
X4921Y3405D01*
X4922Y3405D01*
X4923Y3405D01*
X4924Y3405D01*
X4925Y3405D01*
X4926Y3405D01*
X4927Y3405D01*
X4928Y3405D01*
X4929Y3405D01*
X4930Y3405D01*
X4931Y3405D01*
X4932Y3405D01*
X4933Y3405D01*
X4934Y3405D01*
X4935Y3405D01*
X4936Y3405D01*
X4937Y3405D01*
X4938Y3405D01*
X4939Y3405D01*
X4940Y3405D01*
X4941Y3405D01*
X4942Y3405D01*
X4943Y3405D01*
X4944Y3405D01*
X4945Y3405D01*
X4946Y3405D01*
X4947Y3405D01*
X4948Y3405D01*
X4949Y3405D01*
X4950Y3405D01*
X4951Y3405D01*
X4952Y3405D01*
X4953Y3405D01*
X4954Y3405D01*
X4955Y3405D01*
X4956Y3405D01*
X4957Y3405D01*
X4958Y3405D01*
X4959Y3405D01*
X4960Y3405D01*
X4961Y3405D01*
X4962Y3405D01*
X4963Y3405D01*
X4964Y3405D01*
X4965Y3405D01*
X4966Y3405D01*
X4967Y3405D01*
X4968Y3405D01*
X4969Y3405D01*
X4970Y3405D01*
X4971Y3405D01*
X4972Y3405D01*
X4973Y3405D01*
X4974Y3405D01*
X4975Y3405D01*
X4976Y3405D01*
X4977Y3405D01*
X4978Y3405D01*
X4979Y3405D01*
X4980Y3405D01*
X4981Y3405D01*
X4982Y3405D01*
X4983Y3405D01*
X4984Y3405D01*
X4985Y3405D01*
X4986Y3405D01*
X4987Y3405D01*
X4988Y3405D01*
X4989Y3405D01*
X4990Y3405D01*
X4991Y3405D01*
X4992Y3405D01*
X4993Y3405D01*
X4994Y3405D01*
X4995Y3405D01*
X4996Y3405D01*
X4997Y3405D01*
X4998Y3405D01*
X4999Y3405D01*
X5000Y3405D01*
X5001Y3405D01*
X5002Y3405D01*
X5003Y3405D01*
X5004Y3405D01*
X5005Y3405D01*
X5006Y3405D01*
X5007Y3405D01*
X5008Y3405D01*
X5009Y3405D01*
X5010Y3405D01*
X5011Y3405D01*
X5012Y3405D01*
X5013Y3405D01*
X5014Y3405D01*
X5015Y3405D01*
X5016Y3405D01*
X5017Y3405D01*
X5018Y3405D01*
X5019Y3405D01*
X5020Y3405D01*
X5021Y3405D01*
X5022Y3405D01*
X5023Y3405D01*
X5024Y3405D01*
X5025Y3405D01*
X5026Y3405D01*
X5027Y3405D01*
X5028Y3405D01*
X5029Y3405D01*
X5030Y3405D01*
X5031Y3405D01*
X5032Y3405D01*
X5033Y3405D01*
X5034Y3405D01*
X5035Y3405D01*
X5036Y3405D01*
X5037Y3405D01*
X5038Y3405D01*
X5039Y3405D01*
X5040Y3405D01*
X5041Y3405D01*
X5042Y3405D01*
X5043Y3405D01*
X5044Y3405D01*
X5045Y3405D01*
X5046Y3405D01*
X5047Y3405D01*
X5048Y3405D01*
X5049Y3405D01*
X5050Y3405D01*
X5051Y3405D01*
X5052Y3405D01*
X5053Y3405D01*
X5054Y3405D01*
X5055Y3405D01*
X5056Y3405D01*
X5057Y3405D01*
X5058Y3405D01*
X5059Y3405D01*
X5060Y3405D01*
X5061Y3405D01*
X5062Y3405D01*
X5063Y3405D01*
X5064Y3405D01*
X5065Y3405D01*
X5066Y3405D01*
X5067Y3405D01*
X5068Y3405D01*
X5069Y3405D01*
X5070Y3405D01*
X5071Y3405D01*
X5072Y3405D01*
X5073Y3405D01*
X5074Y3405D01*
X5075Y3405D01*
X5076Y3405D01*
X5077Y3405D01*
X5078Y3405D01*
X5079Y3405D01*
X5080Y3405D01*
X5081Y3405D01*
X5082Y3405D01*
X5083Y3405D01*
X5084Y3405D01*
X5085Y3405D01*
X5086Y3405D01*
X5087Y3405D01*
X5088Y3405D01*
X5089Y3405D01*
X5090Y3405D01*
X5091Y3405D01*
X5092Y3405D01*
X5093Y3405D01*
X5094Y3405D01*
X5095Y3405D01*
X5096Y3405D01*
X5097Y3405D01*
X5098Y3405D01*
X5099Y3405D01*
X5100Y3405D01*
X5101Y3405D01*
X5102Y3405D01*
X5103Y3405D01*
X5104Y3405D01*
X5105Y3405D01*
X5106Y3405D01*
X5107Y3405D01*
X5108Y3405D01*
X5109Y3405D01*
X5110Y3405D01*
X5111Y3405D01*
X5112Y3405D01*
X5113Y3405D01*
X5114Y3405D01*
X5115Y3405D01*
X5116Y3405D01*
X5117Y3405D01*
X5118Y3404D01*
X5119Y3404D01*
X5120Y3404D01*
X5121Y3404D01*
X5122Y3404D01*
X5123Y3404D01*
X5124Y3404D01*
X5125Y3404D01*
X5126Y3404D01*
X5127Y3404D01*
X5128Y3404D01*
X5129Y3404D01*
X5130Y3404D01*
X5131Y3404D01*
X5132Y3403D01*
X5133Y3403D01*
X5134Y3403D01*
X5135Y3403D01*
X5136Y3403D01*
X5137Y3403D01*
X5138Y3403D01*
X5139Y3403D01*
X5140Y3403D01*
X5141Y3403D01*
X5142Y3402D01*
X5143Y3402D01*
X5144Y3402D01*
X5145Y3402D01*
X5146Y3402D01*
X5147Y3402D01*
X5148Y3402D01*
X5149Y3402D01*
X5150Y3401D01*
X5151Y3401D01*
X5152Y3401D01*
X5153Y3401D01*
X5154Y3401D01*
X5155Y3401D01*
X5156Y3401D01*
X5157Y3400D01*
X5158Y3400D01*
X5159Y3400D01*
X5160Y3400D01*
X5161Y3400D01*
X5162Y3400D01*
X5163Y3399D01*
X5164Y3399D01*
X5165Y3399D01*
X5166Y3399D01*
X5167Y3399D01*
X5168Y3399D01*
X5169Y3398D01*
X5170Y3398D01*
X5171Y3398D01*
X5172Y3398D01*
X5173Y3398D01*
X5174Y3397D01*
X5175Y3397D01*
X5176Y3397D01*
X5177Y3397D01*
X5178Y3397D01*
X5179Y3396D01*
X5180Y3396D01*
X5181Y3396D01*
X5182Y3396D01*
X5183Y3395D01*
X5184Y3395D01*
X5185Y3395D01*
X5186Y3395D01*
X5187Y3394D01*
X5188Y3394D01*
X5189Y3394D01*
X5190Y3394D01*
X5191Y3393D01*
X5192Y3393D01*
X5193Y3393D01*
X5194Y3393D01*
X5195Y3392D01*
X5196Y3392D01*
X5197Y3392D01*
X5198Y3392D01*
X5199Y3391D01*
X5200Y3391D01*
X5201Y3391D01*
X5202Y3391D01*
X5203Y3390D01*
X5204Y3390D01*
X5205Y3390D01*
X5206Y3389D01*
X5207Y3389D01*
X5208Y3389D01*
X5209Y3388D01*
X5210Y3388D01*
X5211Y3388D01*
X5212Y3388D01*
X5213Y3387D01*
X5214Y3387D01*
X5215Y3387D01*
X5216Y3386D01*
X5217Y3386D01*
X5218Y3386D01*
X5219Y3385D01*
X5220Y3385D01*
X5221Y3385D01*
X5222Y3384D01*
X5223Y3384D01*
X5224Y3383D01*
X5225Y3383D01*
X5226Y3383D01*
X5227Y3382D01*
X5228Y3382D01*
X5229Y3382D01*
X5230Y3381D01*
X5231Y3381D01*
X5232Y3381D01*
X5233Y3380D01*
X5234Y3380D01*
X5235Y3379D01*
X5236Y3379D01*
X5237Y3379D01*
X5238Y3378D01*
X5239Y3378D01*
X5240Y3377D01*
X5241Y3377D01*
X5242Y3377D01*
X5243Y3376D01*
X5244Y3376D01*
X5245Y3375D01*
X5246Y3375D01*
X5247Y3375D01*
X5248Y3374D01*
X5249Y3374D01*
X5250Y3373D01*
X5251Y3373D01*
X5252Y3372D01*
X5253Y3372D01*
X5254Y3372D01*
X5255Y3371D01*
X5256Y3371D01*
X5257Y3370D01*
X5258Y3370D01*
X5259Y3369D01*
X5260Y3369D01*
X5261Y3368D01*
X5262Y3368D01*
X5263Y3367D01*
X5264Y3367D01*
X5265Y3366D01*
X5266Y3366D01*
X5267Y3365D01*
X5268Y3365D01*
X5269Y3364D01*
X5270Y3364D01*
X5271Y3363D01*
X5272Y3363D01*
X5273Y3362D01*
X5274Y3362D01*
X5275Y3361D01*
X5276Y3361D01*
X5277Y3360D01*
X5278Y3360D01*
X5279Y3359D01*
X5280Y3359D01*
X5281Y3358D01*
X5282Y3358D01*
X5283Y3357D01*
X5284Y3357D01*
X5285Y3356D01*
X5286Y3355D01*
X5287Y3355D01*
X5288Y3354D01*
X5289Y3354D01*
X5290Y3353D01*
X5291Y3352D01*
X5292Y3352D01*
X5293Y3351D01*
X5294Y3351D01*
X5295Y3350D01*
X5296Y3350D01*
X5297Y3349D01*
X5298Y3348D01*
X5299Y3348D01*
X5300Y3347D01*
X5301Y3346D01*
X5302Y3346D01*
X5303Y3345D01*
X5304Y3345D01*
X5305Y3344D01*
X5306Y3343D01*
X5307Y3343D01*
X5308Y3342D01*
X5309Y3341D01*
X5310Y3341D01*
X5311Y3340D01*
X5312Y3339D01*
X5313Y3339D01*
X5314Y3338D01*
X5315Y3337D01*
X5316Y3337D01*
X5317Y3336D01*
X5318Y3335D01*
X5319Y3334D01*
X5320Y3334D01*
X5321Y3333D01*
X5322Y3332D01*
X5323Y3332D01*
X5324Y3331D01*
X5325Y3330D01*
X5326Y3329D01*
X5327Y3329D01*
X5328Y3328D01*
X5329Y3327D01*
X5330Y3326D01*
X5331Y3326D01*
X5332Y3325D01*
X5333Y3324D01*
X5334Y3323D01*
X5335Y3322D01*
X5336Y3322D01*
X5337Y3321D01*
X5338Y3320D01*
X5339Y3319D01*
X5340Y3318D01*
X5341Y3318D01*
X5342Y3317D01*
X5343Y3316D01*
X5344Y3315D01*
X5345Y3314D01*
X5346Y3314D01*
X5347Y3313D01*
X5348Y3312D01*
X5349Y3311D01*
X5350Y3310D01*
X5351Y3309D01*
X5352Y3308D01*
X5353Y3307D01*
X5354Y3306D01*
X5355Y3306D01*
X5356Y3305D01*
X5357Y3304D01*
X5358Y3303D01*
X5359Y3302D01*
X5360Y3301D01*
X5361Y3300D01*
X5362Y3299D01*
X5363Y3298D01*
X5364Y3297D01*
X5365Y3296D01*
X5366Y3295D01*
X5367Y3294D01*
X5368Y3293D01*
X5369Y3292D01*
X5370Y3291D01*
X5371Y3290D01*
X5372Y3289D01*
X5373Y3288D01*
X5374Y3287D01*
X5375Y3286D01*
X5376Y3285D01*
X5377Y3284D01*
X5378Y3283D01*
X5379Y3282D01*
X5380Y3281D01*
X5381Y3280D01*
X5382Y3279D01*
X5383Y3278D01*
X5384Y3277D01*
X5385Y3276D01*
X5385Y3275D01*
X5386Y3274D01*
X5387Y3273D01*
X5388Y3272D01*
X5389Y3271D01*
X5390Y3270D01*
X5390Y3269D01*
X5391Y3268D01*
X5392Y3267D01*
X5393Y3266D01*
X5394Y3265D01*
X5395Y3264D01*
X5396Y3263D01*
X5396Y3262D01*
X5397Y3261D01*
X5398Y3260D01*
X5399Y3259D01*
X5400Y3258D01*
X5400Y3257D01*
X5401Y3256D01*
X5402Y3255D01*
X5403Y3254D01*
X5403Y3253D01*
X5404Y3252D01*
X5405Y3251D01*
X5406Y3250D01*
X5406Y3249D01*
X5407Y3248D01*
X5408Y3247D01*
X5409Y3246D01*
X5409Y3245D01*
X5410Y3244D01*
X5411Y3243D01*
X5411Y3242D01*
X5412Y3241D01*
X5413Y3240D01*
X5414Y3239D01*
X5414Y3238D01*
X5415Y3237D01*
X5416Y3236D01*
X5416Y3235D01*
X5417Y3234D01*
X5418Y3233D01*
X5418Y3232D01*
X5419Y3231D01*
X5420Y3230D01*
X5420Y3229D01*
X5421Y3228D01*
X5422Y3227D01*
X5422Y3226D01*
X5423Y3225D01*
X5423Y3224D01*
X5424Y3223D01*
X5425Y3222D01*
X5425Y3221D01*
X5426Y3220D01*
X5427Y3219D01*
X5427Y3218D01*
X5428Y3217D01*
X5429Y3216D01*
X5429Y3215D01*
X5430Y3214D01*
X5430Y3213D01*
X5431Y3212D01*
X5431Y3211D01*
X5432Y3210D01*
X5432Y3209D01*
X5433Y3208D01*
X5434Y3207D01*
X5434Y3206D01*
X5435Y3205D01*
X5435Y3204D01*
X5436Y3203D01*
X5436Y3202D01*
X5437Y3201D01*
X5438Y3200D01*
X5438Y3199D01*
X5439Y3198D01*
X5439Y3197D01*
X5440Y3196D01*
X5440Y3195D01*
X5441Y3194D01*
X5441Y3193D01*
X5442Y3192D01*
X5442Y3191D01*
X5443Y3190D01*
X5443Y3189D01*
X5444Y3188D01*
X5444Y3187D01*
X5445Y3186D01*
X5445Y3185D01*
X5446Y3184D01*
X5446Y3183D01*
X5447Y3182D01*
X5447Y3181D01*
X5448Y3180D01*
X5448Y3178D01*
X5449Y3177D01*
X5449Y3176D01*
X5450Y3175D01*
X5450Y3174D01*
X5451Y3173D01*
X5451Y3172D01*
X5452Y3171D01*
X5452Y3169D01*
X5453Y3168D01*
X5453Y3167D01*
X5454Y3166D01*
X5454Y3165D01*
X5455Y3164D01*
X5455Y3162D01*
X5456Y3161D01*
X5456Y3160D01*
X5457Y3159D01*
X5457Y3157D01*
X5458Y3156D01*
X5458Y3155D01*
X5459Y3154D01*
X5459Y3152D01*
X5460Y3151D01*
X5460Y3149D01*
X5461Y3148D01*
X5461Y3147D01*
X5462Y3146D01*
X5462Y3144D01*
X5463Y3143D01*
X5463Y3141D01*
X5464Y3140D01*
X5464Y3138D01*
X5465Y3137D01*
X5465Y3135D01*
X5466Y3134D01*
X5466Y3132D01*
X5467Y3131D01*
X5467Y3129D01*
X5468Y3128D01*
X5468Y3125D01*
X5469Y3124D01*
X5469Y3122D01*
X5470Y3121D01*
X5470Y3118D01*
X5471Y3117D01*
X5471Y3115D01*
X5472Y3114D01*
X5472Y3111D01*
X5473Y3110D01*
X5473Y3107D01*
X5474Y3106D01*
X5474Y3103D01*
X5475Y3102D01*
X5475Y3098D01*
X5476Y3097D01*
X5476Y3094D01*
X5477Y3093D01*
X5477Y3089D01*
X5478Y3088D01*
X5478Y3083D01*
X5479Y3082D01*
X5479Y3077D01*
X5480Y3076D01*
X5480Y3071D01*
X5481Y3070D01*
X5481Y3064D01*
X5482Y3063D01*
X5482Y3056D01*
X5483Y3055D01*
X5483Y3046D01*
X5484Y3045D01*
X5484Y3030D01*
X5485Y3029D01*
X5485Y378D01*
X5484Y377D01*
X5484Y362D01*
X5483Y361D01*
X5483Y352D01*
X5482Y351D01*
X5482Y344D01*
X5481Y343D01*
X5481Y337D01*
X5480Y336D01*
X5480Y331D01*
X5479Y330D01*
X5479Y325D01*
X5478Y324D01*
X5478Y319D01*
X5477Y318D01*
X5477Y314D01*
X5476Y313D01*
X5476Y310D01*
X5475Y309D01*
X5475Y305D01*
X5474Y304D01*
X5474Y301D01*
X5473Y300D01*
X5473Y297D01*
X5472Y296D01*
X5472Y293D01*
X5471Y292D01*
X5471Y290D01*
X5470Y289D01*
X5470Y286D01*
X5469Y285D01*
X5469Y283D01*
X5468Y282D01*
X5468Y279D01*
X5467Y278D01*
X5467Y276D01*
X5466Y275D01*
X5466Y273D01*
X5465Y272D01*
X5465Y270D01*
X5464Y269D01*
X5464Y267D01*
X5463Y266D01*
X5463Y264D01*
X5462Y263D01*
X5462Y261D01*
X5461Y260D01*
X5461Y259D01*
X5460Y258D01*
X5460Y256D01*
X5459Y255D01*
X5459Y253D01*
X5458Y252D01*
X5458Y251D01*
X5457Y250D01*
X5457Y248D01*
X5456Y247D01*
X5456Y246D01*
X5455Y245D01*
X5455Y243D01*
X5454Y242D01*
X5454Y241D01*
X5453Y240D01*
X5453Y239D01*
X5452Y238D01*
X5452Y236D01*
X5451Y235D01*
X5451Y234D01*
X5450Y233D01*
X5450Y232D01*
X5449Y231D01*
X5449Y230D01*
X5448Y229D01*
X5448Y227D01*
X5447Y226D01*
X5447Y225D01*
X5446Y224D01*
X5446Y223D01*
X5445Y222D01*
X5445Y221D01*
X5444Y220D01*
X5444Y219D01*
X5443Y218D01*
X5443Y217D01*
X5442Y216D01*
X5442Y215D01*
X5441Y214D01*
X5441Y213D01*
X5440Y212D01*
X5440Y211D01*
X5439Y210D01*
X5439Y209D01*
X5438Y208D01*
X5438Y207D01*
X5437Y206D01*
X5436Y205D01*
X5436Y204D01*
X5435Y203D01*
X5435Y202D01*
X5434Y201D01*
X5434Y200D01*
X5433Y199D01*
X5432Y198D01*
X5432Y197D01*
X5431Y196D01*
X5431Y195D01*
X5430Y194D01*
X5430Y193D01*
X5429Y192D01*
X5429Y191D01*
X5428Y190D01*
X5427Y189D01*
X5427Y188D01*
X5426Y187D01*
X5425Y186D01*
X5425Y185D01*
X5424Y184D01*
X5423Y183D01*
X5423Y182D01*
X5422Y181D01*
X5422Y180D01*
X5421Y179D01*
X5420Y178D01*
X5420Y177D01*
X5419Y176D01*
X5418Y175D01*
X5418Y174D01*
X5417Y173D01*
X5416Y172D01*
X5416Y171D01*
X5415Y170D01*
X5414Y169D01*
X5414Y168D01*
X5413Y167D01*
X5412Y166D01*
X5411Y165D01*
X5411Y164D01*
X5410Y163D01*
X5409Y162D01*
X5409Y161D01*
X5408Y160D01*
X5407Y159D01*
X5406Y158D01*
X5406Y157D01*
X5405Y156D01*
X5404Y155D01*
X5403Y154D01*
X5403Y153D01*
X5402Y152D01*
X5401Y151D01*
X5400Y150D01*
X5400Y149D01*
X5399Y148D01*
X5398Y147D01*
X5397Y146D01*
X5396Y145D01*
X5396Y144D01*
X5395Y143D01*
X5394Y142D01*
X5393Y141D01*
X5392Y140D01*
X5391Y139D01*
X5390Y138D01*
X5390Y137D01*
X5389Y136D01*
X5388Y135D01*
X5387Y134D01*
X5386Y133D01*
X5385Y132D01*
X5385Y131D01*
X5384Y130D01*
X5383Y129D01*
X5382Y128D01*
X5381Y127D01*
X5380Y126D01*
X5379Y125D01*
X5378Y124D01*
X5377Y123D01*
X5376Y122D01*
X5375Y121D01*
X5374Y120D01*
X5373Y119D01*
X5372Y118D01*
X5371Y117D01*
X5370Y116D01*
X5369Y115D01*
X5368Y114D01*
X5367Y113D01*
X5366Y112D01*
X5365Y111D01*
X5364Y110D01*
X5363Y109D01*
X5362Y108D01*
X5361Y107D01*
X5360Y106D01*
X5359Y105D01*
X5358Y104D01*
X5357Y103D01*
X5356Y102D01*
X5355Y101D01*
X5354Y101D01*
X5353Y100D01*
X5352Y99D01*
X5351Y98D01*
X5350Y97D01*
X5349Y96D01*
X5348Y95D01*
X5347Y94D01*
X5346Y93D01*
X5345Y93D01*
X5344Y92D01*
X5343Y91D01*
X5342Y90D01*
X5341Y89D01*
X5340Y89D01*
X5339Y88D01*
X5338Y87D01*
X5337Y86D01*
X5336Y85D01*
X5335Y85D01*
X5334Y84D01*
X5333Y83D01*
X5332Y82D01*
X5331Y81D01*
X5330Y81D01*
X5329Y80D01*
X5328Y79D01*
X5327Y78D01*
X5326Y78D01*
X5325Y77D01*
X5324Y76D01*
X5323Y75D01*
X5322Y75D01*
X5321Y74D01*
X5320Y73D01*
X5319Y73D01*
X5318Y72D01*
X5317Y71D01*
X5316Y70D01*
X5315Y70D01*
X5314Y69D01*
X5313Y68D01*
X5312Y68D01*
X5311Y67D01*
X5310Y66D01*
X5309Y66D01*
X5308Y65D01*
X5307Y64D01*
X5306Y64D01*
X5305Y63D01*
X5304Y62D01*
X5303Y62D01*
X5302Y61D01*
X5301Y61D01*
X5300Y60D01*
X5299Y59D01*
X5298Y59D01*
X5297Y58D01*
X5296Y57D01*
X5295Y57D01*
X5294Y56D01*
X5293Y56D01*
X5292Y55D01*
X5291Y55D01*
X5290Y54D01*
X5289Y53D01*
X5288Y53D01*
X5287Y52D01*
X5286Y52D01*
X5285Y51D01*
X5284Y50D01*
X5283Y50D01*
X5282Y49D01*
X5281Y49D01*
X5280Y48D01*
X5279Y48D01*
X5278Y47D01*
X5277Y47D01*
X5276Y46D01*
X5275Y46D01*
X5274Y45D01*
X5273Y45D01*
X5272Y44D01*
X5271Y44D01*
X5270Y43D01*
X5269Y43D01*
X5268Y42D01*
X5267Y42D01*
X5266Y41D01*
X5265Y41D01*
X5264Y40D01*
X5263Y40D01*
X5262Y39D01*
X5261Y39D01*
X5260Y38D01*
X5259Y38D01*
X5258Y37D01*
X5257Y37D01*
X5256Y36D01*
X5255Y36D01*
X5254Y35D01*
X5253Y35D01*
X5252Y35D01*
X5251Y34D01*
X5250Y34D01*
X5249Y33D01*
X5248Y33D01*
X5247Y32D01*
X5246Y32D01*
X5245Y32D01*
X5244Y31D01*
X5243Y31D01*
X5242Y30D01*
X5241Y30D01*
X5240Y30D01*
X5239Y29D01*
X5238Y29D01*
X5237Y28D01*
X5236Y28D01*
X5235Y28D01*
X5234Y27D01*
X5233Y27D01*
X5232Y26D01*
X5231Y26D01*
X5230Y26D01*
X5229Y25D01*
X5228Y25D01*
X5227Y25D01*
X5226Y24D01*
X5225Y24D01*
X5224Y24D01*
X5223Y23D01*
X5222Y23D01*
X5221Y22D01*
X5220Y22D01*
X5219Y22D01*
X5218Y21D01*
X5217Y21D01*
X5216Y21D01*
X5215Y20D01*
X5214Y20D01*
X5213Y20D01*
X5212Y19D01*
X5211Y19D01*
X5210Y19D01*
X5209Y19D01*
X5208Y18D01*
X5207Y18D01*
X5206Y18D01*
X5205Y17D01*
X5204Y17D01*
X5203Y17D01*
X5202Y16D01*
X5201Y16D01*
X5200Y16D01*
X5199Y16D01*
X5198Y15D01*
X5197Y15D01*
X5196Y15D01*
X5195Y15D01*
X5194Y14D01*
X5193Y14D01*
X5192Y14D01*
X5191Y14D01*
X5190Y13D01*
X5189Y13D01*
X5188Y13D01*
X5187Y13D01*
X5186Y12D01*
X5185Y12D01*
X5184Y12D01*
X5183Y12D01*
X5182Y11D01*
X5181Y11D01*
X5180Y11D01*
X5179Y11D01*
X5178Y10D01*
X5177Y10D01*
X5176Y10D01*
X5175Y10D01*
X5174Y10D01*
X5173Y9D01*
X5172Y9D01*
X5171Y9D01*
X5170Y9D01*
X5169Y9D01*
X5168Y8D01*
X5167Y8D01*
X5166Y8D01*
X5165Y8D01*
X5164Y8D01*
X5163Y8D01*
X5162Y7D01*
X5161Y7D01*
X5160Y7D01*
X5159Y7D01*
X5158Y7D01*
X5157Y7D01*
X5156Y6D01*
X5155Y6D01*
X5154Y6D01*
X5153Y6D01*
X5152Y6D01*
X5151Y6D01*
X5150Y6D01*
X5149Y5D01*
X5148Y5D01*
X5147Y5D01*
X5146Y5D01*
X5145Y5D01*
X5144Y5D01*
X5143Y5D01*
X5142Y5D01*
X5141Y4D01*
X5140Y4D01*
X5139Y4D01*
X5138Y4D01*
X5137Y4D01*
X5136Y4D01*
X5135Y4D01*
X5134Y4D01*
X5133Y4D01*
X5132Y4D01*
X5131Y3D01*
X5130Y3D01*
X5129Y3D01*
X5128Y3D01*
X5127Y3D01*
X5126Y3D01*
X5125Y3D01*
X5124Y3D01*
X5123Y3D01*
X5122Y3D01*
X5121Y3D01*
X5120Y3D01*
X5119Y3D01*
X5118Y3D01*
X5117Y2D01*
X5116Y2D01*
X5115Y2D01*
X5114Y2D01*
X5113Y2D01*
X5112Y2D01*
X5111Y2D01*
X5110Y2D01*
X5109Y2D01*
X5108Y2D01*
X5107Y2D01*
X5106Y2D01*
X5105Y2D01*
X5104Y2D01*
X5103Y2D01*
X5102Y2D01*
X5101Y2D01*
X5100Y2D01*
X5099Y2D01*
X5098Y2D01*
X5097Y2D01*
X5096Y2D01*
X5095Y2D01*
X5094Y2D01*
X5093Y2D01*
X5092Y2D01*
X5091Y2D01*
X5090Y2D01*
X5089Y2D01*
X5088Y2D01*
X5087Y2D01*
X5086Y2D01*
X5085Y2D01*
X5084Y2D01*
X5083Y2D01*
X5082Y2D01*
X5081Y2D01*
X5080Y2D01*
X5079Y2D01*
X5078Y2D01*
X5077Y2D01*
X5076Y2D01*
X5075Y2D01*
X5074Y2D01*
X5073Y2D01*
X5072Y2D01*
X5071Y2D01*
X5070Y2D01*
X5069Y2D01*
X5068Y2D01*
X5067Y2D01*
X5066Y2D01*
X5065Y2D01*
X5064Y2D01*
X5063Y2D01*
X5062Y2D01*
X5061Y2D01*
X5060Y2D01*
X5059Y2D01*
X5058Y2D01*
X5057Y2D01*
X5056Y2D01*
X5055Y2D01*
X5054Y2D01*
X5053Y2D01*
X5052Y2D01*
X5051Y2D01*
X5050Y2D01*
X5049Y2D01*
X5048Y2D01*
X5047Y2D01*
X5046Y2D01*
X5045Y2D01*
X5044Y2D01*
X5043Y2D01*
X5042Y2D01*
X5041Y2D01*
X5040Y2D01*
X5039Y2D01*
X5038Y2D01*
X5037Y2D01*
X5036Y2D01*
X5035Y2D01*
X5034Y2D01*
X5033Y2D01*
X5032Y2D01*
X5031Y2D01*
X5030Y2D01*
X5029Y2D01*
X5028Y2D01*
X5027Y2D01*
X5026Y2D01*
X5025Y2D01*
X5024Y2D01*
X5023Y2D01*
X5022Y2D01*
X5021Y2D01*
X5020Y2D01*
X5019Y2D01*
X5018Y2D01*
X5017Y2D01*
X5016Y2D01*
X5015Y2D01*
X5014Y2D01*
X5013Y2D01*
X5012Y2D01*
X5011Y2D01*
X5010Y2D01*
X5009Y2D01*
X5008Y2D01*
X5007Y2D01*
X5006Y2D01*
X5005Y2D01*
X5004Y2D01*
X5003Y2D01*
X5002Y2D01*
X5001Y2D01*
X5000Y2D01*
X4999Y2D01*
X4998Y2D01*
X4997Y2D01*
X4996Y2D01*
X4995Y2D01*
X4994Y2D01*
X4993Y2D01*
X4992Y2D01*
X4991Y2D01*
X4990Y2D01*
X4989Y2D01*
X4988Y2D01*
X4987Y2D01*
X4986Y2D01*
X4985Y2D01*
X4984Y2D01*
X4983Y2D01*
X4982Y2D01*
X4981Y2D01*
X4980Y2D01*
X4979Y2D01*
X4978Y2D01*
X4977Y2D01*
X4976Y2D01*
X4975Y2D01*
X4974Y2D01*
X4973Y2D01*
X4972Y2D01*
X4971Y2D01*
X4970Y2D01*
X4969Y2D01*
X4968Y2D01*
X4967Y2D01*
X4966Y2D01*
X4965Y2D01*
X4964Y2D01*
X4963Y2D01*
X4962Y2D01*
X4961Y2D01*
X4960Y2D01*
X4959Y2D01*
X4958Y2D01*
X4957Y2D01*
X4956Y2D01*
X4955Y2D01*
X4954Y2D01*
X4953Y2D01*
X4952Y2D01*
X4951Y2D01*
X4950Y2D01*
X4949Y2D01*
X4948Y2D01*
X4947Y2D01*
X4946Y2D01*
X4945Y2D01*
X4944Y2D01*
X4943Y2D01*
X4942Y2D01*
X4941Y2D01*
X4940Y2D01*
X4939Y2D01*
X4938Y2D01*
X4937Y2D01*
X4936Y2D01*
X4935Y2D01*
X4934Y2D01*
X4933Y2D01*
X4932Y2D01*
X4931Y2D01*
X4930Y2D01*
X4929Y2D01*
X4928Y2D01*
X4927Y2D01*
X4926Y2D01*
X4925Y2D01*
X4924Y2D01*
X4923Y2D01*
X4922Y2D01*
X4921Y2D01*
X4920Y2D01*
X4919Y2D01*
X4918Y2D01*
X4917Y2D01*
X4916Y2D01*
X4915Y2D01*
X4914Y2D01*
X4913Y2D01*
X4912Y2D01*
X4911Y2D01*
X4910Y2D01*
X4909Y2D01*
X4908Y2D01*
X4907Y2D01*
X4906Y2D01*
X4905Y2D01*
X4904Y2D01*
X4903Y2D01*
X4902Y2D01*
X4901Y2D01*
X4900Y2D01*
X4899Y2D01*
X4898Y2D01*
X4897Y2D01*
X4896Y2D01*
X4895Y2D01*
X4894Y2D01*
X4893Y2D01*
X4892Y2D01*
X4891Y2D01*
X4890Y2D01*
X4889Y2D01*
X4888Y2D01*
X4887Y2D01*
X4886Y2D01*
X4885Y2D01*
X4884Y2D01*
X4883Y2D01*
X4882Y2D01*
X4881Y2D01*
X4880Y2D01*
X4879Y2D01*
X4878Y2D01*
X4877Y2D01*
X4876Y2D01*
X4875Y2D01*
X4874Y2D01*
X4873Y2D01*
X4872Y2D01*
X4871Y2D01*
X4870Y2D01*
X4869Y2D01*
X4868Y2D01*
X4867Y2D01*
X4866Y2D01*
X4865Y2D01*
X4864Y2D01*
X4863Y2D01*
X4862Y2D01*
X4861Y2D01*
X4860Y2D01*
X4859Y2D01*
X4858Y2D01*
X4857Y2D01*
X4856Y2D01*
X4855Y2D01*
X4854Y2D01*
X4853Y2D01*
X4852Y2D01*
X4851Y2D01*
X4850Y2D01*
X4849Y2D01*
X4848Y2D01*
X4847Y2D01*
X4846Y2D01*
X4845Y2D01*
X4844Y2D01*
X4843Y2D01*
X4842Y2D01*
X4841Y2D01*
X4840Y2D01*
X4839Y2D01*
X4838Y2D01*
X4837Y2D01*
X4836Y2D01*
X4835Y2D01*
X4834Y2D01*
X4833Y2D01*
X4832Y2D01*
X4831Y2D01*
X4830Y2D01*
X4829Y2D01*
X4828Y2D01*
X4827Y2D01*
X4826Y2D01*
X4825Y2D01*
X4824Y2D01*
X4823Y2D01*
X4822Y2D01*
X4821Y2D01*
X4820Y2D01*
X4819Y2D01*
X4818Y2D01*
X4817Y2D01*
X4816Y2D01*
X4815Y2D01*
X4814Y2D01*
X4813Y2D01*
X4812Y2D01*
X4811Y2D01*
X4810Y2D01*
X4809Y2D01*
X4808Y2D01*
X4807Y2D01*
X4806Y2D01*
X4805Y2D01*
X4804Y2D01*
X4803Y2D01*
X4802Y2D01*
X4801Y2D01*
X4800Y2D01*
X4799Y2D01*
X4798Y2D01*
X4797Y2D01*
X4796Y2D01*
X4795Y2D01*
X4794Y2D01*
X4793Y2D01*
X4792Y2D01*
X4791Y2D01*
X4790Y2D01*
X4789Y2D01*
X4788Y2D01*
X4787Y2D01*
X4786Y2D01*
X4785Y2D01*
X4784Y2D01*
X4783Y2D01*
X4782Y2D01*
X4781Y2D01*
X4780Y2D01*
X4779Y2D01*
X4778Y2D01*
X4777Y2D01*
X4776Y2D01*
X4775Y2D01*
X4774Y2D01*
X4773Y2D01*
X4772Y2D01*
X4771Y2D01*
X4770Y2D01*
X4769Y2D01*
X4768Y2D01*
X4767Y2D01*
X4766Y2D01*
X4765Y2D01*
X4764Y2D01*
X4763Y2D01*
X4762Y2D01*
X4761Y2D01*
X4760Y2D01*
X4759Y2D01*
X4758Y2D01*
X4757Y2D01*
X4756Y2D01*
X4755Y2D01*
X4754Y2D01*
X4753Y2D01*
X4752Y2D01*
X4751Y2D01*
X4750Y2D01*
X4749Y2D01*
X4748Y2D01*
X4747Y2D01*
X4746Y2D01*
X4745Y2D01*
X4744Y2D01*
X4743Y2D01*
X4742Y2D01*
X4741Y2D01*
X4740Y2D01*
X4739Y2D01*
X4738Y2D01*
X4737Y2D01*
X4736Y2D01*
X4735Y2D01*
X4734Y2D01*
X4733Y2D01*
X4732Y2D01*
X4731Y2D01*
X4730Y2D01*
X4729Y2D01*
X4728Y2D01*
X4727Y2D01*
X4726Y2D01*
X4725Y2D01*
X4724Y2D01*
X4723Y2D01*
X4722Y2D01*
X4721Y2D01*
X4720Y2D01*
X4719Y2D01*
X4718Y2D01*
X4717Y2D01*
X4716Y2D01*
X4715Y2D01*
X4714Y2D01*
X4713Y2D01*
X4712Y2D01*
X4711Y2D01*
X4710Y2D01*
X4709Y2D01*
X4708Y2D01*
X4707Y2D01*
X4706Y2D01*
X4705Y2D01*
X4704Y2D01*
X4703Y2D01*
X4702Y2D01*
X4701Y2D01*
X4700Y2D01*
X4699Y2D01*
X4698Y2D01*
X4697Y2D01*
X4696Y2D01*
X4695Y2D01*
X4694Y2D01*
X4693Y2D01*
X4692Y2D01*
X4691Y2D01*
X4690Y2D01*
X4689Y2D01*
X4688Y2D01*
X4687Y2D01*
X4686Y2D01*
X4685Y2D01*
X4684Y2D01*
X4683Y2D01*
X4682Y2D01*
X4681Y2D01*
X4680Y2D01*
X4679Y2D01*
X4678Y2D01*
X4677Y2D01*
X4676Y2D01*
X4675Y2D01*
X4674Y2D01*
X4673Y2D01*
X4672Y2D01*
X4671Y2D01*
X4670Y2D01*
X4669Y2D01*
X4668Y2D01*
X4667Y2D01*
X4666Y2D01*
X4665Y2D01*
X4664Y2D01*
X4663Y2D01*
X4662Y2D01*
X4661Y2D01*
X4660Y2D01*
X4659Y2D01*
X4658Y2D01*
X4657Y2D01*
X4656Y2D01*
X4655Y2D01*
X4654Y2D01*
X4653Y2D01*
X4652Y2D01*
X4651Y2D01*
X4650Y2D01*
X4649Y2D01*
X4648Y2D01*
X4647Y2D01*
X4646Y2D01*
X4645Y2D01*
X4644Y2D01*
X4643Y2D01*
X4642Y2D01*
X4641Y2D01*
X4640Y2D01*
X4639Y2D01*
X4638Y2D01*
X4637Y2D01*
X4636Y2D01*
X4635Y2D01*
X4634Y2D01*
X4633Y2D01*
X4632Y2D01*
X4631Y2D01*
X4630Y2D01*
X4629Y2D01*
X4628Y2D01*
X4627Y2D01*
X4626Y2D01*
X4625Y2D01*
X4624Y2D01*
X4623Y2D01*
X4622Y2D01*
X4621Y2D01*
X4620Y2D01*
X4619Y2D01*
X4618Y2D01*
X4617Y2D01*
X4616Y2D01*
X4615Y2D01*
X4614Y2D01*
X4613Y2D01*
X4612Y2D01*
X4611Y2D01*
X4610Y2D01*
X4609Y2D01*
X4608Y2D01*
X4607Y2D01*
X4606Y2D01*
X4605Y2D01*
X4604Y2D01*
X4603Y2D01*
X4602Y2D01*
X4601Y2D01*
X4600Y2D01*
X4599Y2D01*
X4598Y2D01*
X4597Y2D01*
X4596Y2D01*
X4595Y2D01*
X4594Y2D01*
X4593Y2D01*
X4592Y2D01*
X4591Y2D01*
X4590Y2D01*
X4589Y2D01*
X4588Y2D01*
X4587Y2D01*
X4586Y2D01*
X4585Y2D01*
X4584Y2D01*
X4583Y2D01*
X4582Y2D01*
X4581Y2D01*
X4580Y2D01*
X4579Y2D01*
X4578Y2D01*
X4577Y2D01*
X4576Y2D01*
X4575Y2D01*
X4574Y2D01*
X4573Y2D01*
X4572Y2D01*
X4571Y2D01*
X4570Y2D01*
X4569Y2D01*
X4568Y2D01*
X4567Y2D01*
X4566Y2D01*
X4565Y2D01*
X4564Y2D01*
X4563Y2D01*
X4562Y2D01*
X4561Y2D01*
X4560Y2D01*
X4559Y2D01*
X4558Y2D01*
X4557Y2D01*
X4556Y2D01*
X4555Y2D01*
X4554Y2D01*
X4553Y2D01*
X4552Y2D01*
X4551Y2D01*
X4550Y2D01*
X4549Y2D01*
X4548Y2D01*
X4547Y2D01*
X4546Y2D01*
X4545Y2D01*
X4544Y2D01*
X4543Y2D01*
X4542Y2D01*
X4541Y2D01*
X4540Y2D01*
X4539Y2D01*
X4538Y2D01*
X4537Y2D01*
X4536Y2D01*
X4535Y2D01*
X4534Y2D01*
X4533Y2D01*
X4532Y2D01*
X4531Y2D01*
X4530Y2D01*
X4529Y2D01*
X4528Y2D01*
X4527Y2D01*
X4526Y2D01*
X4525Y2D01*
X4524Y2D01*
X4523Y2D01*
X4522Y2D01*
X4521Y2D01*
X4520Y2D01*
X4519Y2D01*
X4518Y2D01*
X4517Y2D01*
X4516Y2D01*
X4515Y2D01*
X4514Y2D01*
X4513Y2D01*
X4512Y2D01*
X4511Y2D01*
X4510Y2D01*
X4509Y2D01*
X4508Y2D01*
X4507Y2D01*
X4506Y2D01*
X4505Y2D01*
X4504Y2D01*
X4503Y2D01*
X4502Y2D01*
X4501Y2D01*
X4500Y2D01*
X4499Y2D01*
X4498Y2D01*
X4497Y2D01*
X4496Y2D01*
X4495Y2D01*
X4494Y2D01*
X4493Y2D01*
X4492Y2D01*
X4491Y2D01*
X4490Y2D01*
X4489Y2D01*
X4488Y2D01*
X4487Y2D01*
X4486Y2D01*
X4485Y2D01*
X4484Y2D01*
X4483Y2D01*
X4482Y2D01*
X4481Y2D01*
X4480Y2D01*
X4479Y2D01*
X4478Y2D01*
X4477Y2D01*
X4476Y2D01*
X4475Y2D01*
X4474Y2D01*
X4473Y2D01*
X4472Y2D01*
X4471Y2D01*
X4470Y2D01*
X4469Y2D01*
X4468Y2D01*
X4467Y2D01*
X4466Y2D01*
X4465Y2D01*
X4464Y2D01*
X4463Y2D01*
X4462Y2D01*
X4461Y2D01*
X4460Y2D01*
X4459Y2D01*
X4458Y2D01*
X4457Y2D01*
X4456Y2D01*
X4455Y2D01*
X4454Y2D01*
X4453Y2D01*
X4452Y2D01*
X4451Y2D01*
X4450Y2D01*
X4449Y2D01*
X4448Y2D01*
X4447Y2D01*
X4446Y2D01*
X4445Y2D01*
X4444Y2D01*
X4443Y2D01*
X4442Y2D01*
X4441Y2D01*
X4440Y2D01*
X4439Y2D01*
X4438Y2D01*
X4437Y2D01*
X4436Y2D01*
X4435Y2D01*
X4434Y2D01*
X4433Y2D01*
X4432Y2D01*
X4431Y2D01*
X4430Y2D01*
X4429Y2D01*
X4428Y2D01*
X4427Y2D01*
X4426Y2D01*
X4425Y2D01*
X4424Y2D01*
X4423Y2D01*
X4422Y2D01*
X4421Y2D01*
X4420Y2D01*
X4419Y2D01*
X4418Y2D01*
X4417Y2D01*
X4416Y2D01*
X4415Y2D01*
X4414Y2D01*
X4413Y2D01*
X4412Y2D01*
X4411Y2D01*
X4410Y2D01*
X4409Y2D01*
X4408Y2D01*
X4407Y2D01*
X4406Y2D01*
X4405Y2D01*
X4404Y2D01*
X4403Y2D01*
X4402Y2D01*
X4401Y2D01*
X4400Y2D01*
X4399Y2D01*
X4398Y2D01*
X4397Y2D01*
X4396Y2D01*
X4395Y2D01*
X4394Y2D01*
X4393Y2D01*
X4392Y2D01*
X4391Y2D01*
X4390Y2D01*
X4389Y2D01*
X4388Y2D01*
X4387Y2D01*
X4386Y2D01*
X4385Y2D01*
X4384Y2D01*
X4383Y2D01*
X4382Y2D01*
X4381Y2D01*
X4380Y2D01*
X4379Y2D01*
X4378Y2D01*
X4377Y2D01*
X4376Y2D01*
X4375Y2D01*
X4374Y2D01*
X4373Y2D01*
X4372Y2D01*
X4371Y2D01*
X4370Y2D01*
X4369Y2D01*
X4368Y2D01*
X4367Y2D01*
X4366Y2D01*
X4365Y2D01*
X4364Y2D01*
X4363Y2D01*
X4362Y2D01*
X4361Y2D01*
X4360Y2D01*
X4359Y2D01*
X4358Y2D01*
X4357Y2D01*
X4356Y2D01*
X4355Y2D01*
X4354Y2D01*
X4353Y2D01*
X4352Y2D01*
X4351Y2D01*
X4350Y2D01*
X4349Y2D01*
X4348Y2D01*
X4347Y2D01*
X4346Y2D01*
X4345Y2D01*
X4344Y2D01*
X4343Y2D01*
X4342Y2D01*
X4341Y2D01*
X4340Y2D01*
X4339Y2D01*
X4338Y2D01*
X4337Y2D01*
X4336Y2D01*
X4335Y2D01*
X4334Y2D01*
X4333Y2D01*
X4332Y2D01*
X4331Y2D01*
X4330Y2D01*
X4329Y2D01*
X4328Y2D01*
X4327Y2D01*
X4326Y2D01*
X4325Y2D01*
X4324Y2D01*
X4323Y2D01*
X4322Y2D01*
X4321Y2D01*
X4320Y2D01*
X4319Y2D01*
X4318Y2D01*
X4317Y2D01*
X4316Y2D01*
X4315Y2D01*
X4314Y2D01*
X4313Y2D01*
X4312Y2D01*
X4311Y2D01*
X4310Y2D01*
X4309Y2D01*
X4308Y2D01*
X4307Y2D01*
X4306Y2D01*
X4305Y2D01*
X4304Y2D01*
X4303Y2D01*
X4302Y2D01*
X4301Y2D01*
X4300Y2D01*
X4299Y2D01*
X4298Y2D01*
X4297Y2D01*
X4296Y2D01*
X4295Y2D01*
X4294Y2D01*
X4293Y2D01*
X4292Y2D01*
X4291Y2D01*
X4290Y2D01*
X4289Y2D01*
X4288Y2D01*
X4287Y2D01*
X4286Y2D01*
X4285Y2D01*
X4284Y2D01*
X4283Y2D01*
X4282Y2D01*
X4281Y2D01*
X4280Y2D01*
X4279Y2D01*
X4278Y2D01*
X4277Y2D01*
X4276Y2D01*
X4275Y2D01*
X4274Y2D01*
X4273Y2D01*
X4272Y2D01*
X4271Y2D01*
X4270Y2D01*
X4269Y2D01*
X4268Y2D01*
X4267Y2D01*
X4266Y2D01*
X4265Y2D01*
X4264Y2D01*
X4263Y2D01*
X4262Y2D01*
X4261Y2D01*
X4260Y2D01*
X4259Y2D01*
X4258Y2D01*
X4257Y2D01*
X4256Y2D01*
X4255Y2D01*
X4254Y2D01*
X4253Y2D01*
X4252Y2D01*
X4251Y2D01*
X4250Y2D01*
X4249Y2D01*
X4248Y2D01*
X4247Y2D01*
X4246Y2D01*
X4245Y2D01*
X4244Y2D01*
X4243Y2D01*
X4242Y2D01*
X4241Y2D01*
X4240Y2D01*
X4239Y2D01*
X4238Y2D01*
X4237Y2D01*
X4236Y2D01*
X4235Y2D01*
X4234Y2D01*
X4233Y2D01*
X4232Y2D01*
X4231Y2D01*
X4230Y2D01*
X4229Y2D01*
X4228Y2D01*
X4227Y2D01*
X4226Y2D01*
X4225Y2D01*
X4224Y2D01*
X4223Y2D01*
X4222Y2D01*
X4221Y2D01*
X4220Y2D01*
X4219Y2D01*
X4218Y2D01*
X4217Y2D01*
X4216Y2D01*
X4215Y2D01*
X4214Y2D01*
X4213Y2D01*
X4212Y2D01*
X4211Y2D01*
X4210Y2D01*
X4209Y2D01*
X4208Y2D01*
X4207Y2D01*
X4206Y2D01*
X4205Y2D01*
X4204Y2D01*
X4203Y2D01*
X4202Y2D01*
X4201Y2D01*
X4200Y2D01*
X4199Y2D01*
X4198Y2D01*
X4197Y2D01*
X4196Y2D01*
X4195Y2D01*
X4194Y2D01*
X4193Y2D01*
X4192Y2D01*
X4191Y2D01*
X4190Y2D01*
X4189Y2D01*
X4188Y2D01*
X4187Y2D01*
X4186Y2D01*
X4185Y2D01*
X4184Y2D01*
X4183Y2D01*
X4182Y2D01*
X4181Y2D01*
X4180Y2D01*
X4179Y2D01*
X4178Y2D01*
X4177Y2D01*
X4176Y2D01*
X4175Y2D01*
X4174Y2D01*
X4173Y2D01*
X4172Y2D01*
X4171Y2D01*
X4170Y2D01*
X4169Y2D01*
X4168Y2D01*
X4167Y2D01*
X4166Y2D01*
X4165Y2D01*
X4164Y2D01*
X4163Y2D01*
X4162Y2D01*
X4161Y2D01*
X4160Y2D01*
X4159Y2D01*
X4158Y2D01*
X4157Y2D01*
X4156Y2D01*
X4155Y2D01*
X4154Y2D01*
X4153Y2D01*
X4152Y2D01*
X4151Y2D01*
X4150Y2D01*
X4149Y2D01*
X4148Y2D01*
X4147Y2D01*
X4146Y2D01*
X4145Y2D01*
X4144Y2D01*
X4143Y2D01*
X4142Y2D01*
X4141Y2D01*
X4140Y2D01*
X4139Y2D01*
X4138Y2D01*
X4137Y2D01*
X4136Y2D01*
X4135Y2D01*
X4134Y2D01*
X4133Y2D01*
X4132Y2D01*
X4131Y2D01*
X4130Y2D01*
X4129Y2D01*
X4128Y2D01*
X4127Y2D01*
X4126Y2D01*
X4125Y2D01*
X4124Y2D01*
X4123Y2D01*
X4122Y2D01*
X4121Y2D01*
X4120Y2D01*
X4119Y2D01*
X4118Y2D01*
X4117Y2D01*
X4116Y2D01*
X4115Y2D01*
X4114Y2D01*
X4113Y2D01*
X4112Y2D01*
X4111Y2D01*
X4110Y2D01*
X4109Y2D01*
X4108Y2D01*
X4107Y2D01*
X4106Y2D01*
X4105Y2D01*
X4104Y2D01*
X4103Y2D01*
X4102Y2D01*
X4101Y2D01*
X4100Y2D01*
X4099Y2D01*
X4098Y2D01*
X4097Y2D01*
X4096Y2D01*
X4095Y2D01*
X4094Y2D01*
X4093Y2D01*
X4092Y2D01*
X4091Y2D01*
X4090Y2D01*
X4089Y2D01*
X4088Y2D01*
X4087Y2D01*
X4086Y2D01*
X4085Y2D01*
X4084Y2D01*
X4083Y2D01*
X4082Y2D01*
X4081Y2D01*
X4080Y2D01*
X4079Y2D01*
X4078Y2D01*
X4077Y2D01*
X4076Y2D01*
X4075Y2D01*
X4074Y2D01*
X4073Y2D01*
X4072Y2D01*
X4071Y2D01*
X4070Y2D01*
X4069Y2D01*
X4068Y2D01*
X4067Y2D01*
X4066Y2D01*
X4065Y2D01*
X4064Y2D01*
X4063Y2D01*
X4062Y2D01*
X4061Y2D01*
X4060Y2D01*
X4059Y2D01*
X4058Y2D01*
X4057Y2D01*
X4056Y2D01*
X4055Y2D01*
X4054Y2D01*
X4053Y2D01*
X4052Y2D01*
X4051Y2D01*
X4050Y2D01*
X4049Y2D01*
X4048Y2D01*
X4047Y2D01*
X4046Y2D01*
X4045Y2D01*
X4044Y2D01*
X4043Y2D01*
X4042Y2D01*
X4041Y2D01*
X4040Y2D01*
X4039Y2D01*
X4038Y2D01*
X4037Y2D01*
X4036Y2D01*
X4035Y2D01*
X4034Y2D01*
X4033Y2D01*
X4032Y2D01*
X4031Y2D01*
X4030Y2D01*
X4029Y2D01*
X4028Y2D01*
X4027Y2D01*
X4026Y2D01*
X4025Y2D01*
X4024Y2D01*
X4023Y2D01*
X4022Y2D01*
X4021Y2D01*
X4020Y2D01*
X4019Y2D01*
X4018Y2D01*
X4017Y2D01*
X4016Y2D01*
X4015Y2D01*
X4014Y2D01*
X4013Y2D01*
X4012Y2D01*
X4011Y2D01*
X4010Y2D01*
X4009Y2D01*
X4008Y2D01*
X4007Y2D01*
X4006Y2D01*
X4005Y2D01*
X4004Y2D01*
X4003Y2D01*
X4002Y2D01*
X4001Y2D01*
X4000Y2D01*
X3999Y2D01*
X3998Y2D01*
X3997Y2D01*
X3996Y2D01*
X3995Y2D01*
X3994Y2D01*
X3993Y2D01*
X3992Y2D01*
X3991Y2D01*
X3990Y2D01*
X3989Y2D01*
X3988Y2D01*
X3987Y2D01*
X3986Y2D01*
X3985Y2D01*
X3984Y2D01*
X3983Y2D01*
X3982Y2D01*
X3981Y2D01*
X3980Y2D01*
X3979Y2D01*
X3978Y2D01*
X3977Y2D01*
X3976Y2D01*
X3975Y2D01*
X3974Y2D01*
X3973Y2D01*
X3972Y2D01*
X3971Y2D01*
X3970Y2D01*
X3969Y2D01*
X3968Y2D01*
X3967Y2D01*
X3966Y2D01*
X3965Y2D01*
X3964Y2D01*
X3963Y2D01*
X3962Y2D01*
X3961Y2D01*
X3960Y2D01*
X3959Y2D01*
X3958Y2D01*
X3957Y2D01*
X3956Y2D01*
X3955Y2D01*
X3954Y2D01*
X3953Y2D01*
X3952Y2D01*
X3951Y2D01*
X3950Y2D01*
X3949Y2D01*
X3948Y2D01*
X3947Y2D01*
X3946Y2D01*
X3945Y2D01*
X3944Y2D01*
X3943Y2D01*
X3942Y2D01*
X3941Y2D01*
X3940Y2D01*
X3939Y2D01*
X3938Y2D01*
X3937Y2D01*
X3936Y2D01*
X3935Y2D01*
X3934Y2D01*
X3933Y2D01*
X3932Y2D01*
X3931Y2D01*
X3930Y2D01*
X3929Y2D01*
X3928Y2D01*
X3927Y2D01*
X3926Y2D01*
X3925Y2D01*
X3924Y2D01*
X3923Y2D01*
X3922Y2D01*
X3921Y2D01*
X3920Y2D01*
X3919Y2D01*
X3918Y2D01*
X3917Y2D01*
X3916Y2D01*
X3915Y2D01*
X3914Y2D01*
X3913Y2D01*
X3912Y2D01*
X3911Y2D01*
X3910Y2D01*
X3909Y2D01*
X3908Y2D01*
X3907Y2D01*
X3906Y2D01*
X3905Y2D01*
X3904Y2D01*
X3903Y2D01*
X3902Y2D01*
X3901Y2D01*
X3900Y2D01*
X3899Y2D01*
X3898Y2D01*
X3897Y2D01*
X3896Y2D01*
X3895Y2D01*
X3894Y2D01*
X3893Y2D01*
X3892Y2D01*
X3891Y2D01*
X3890Y2D01*
X3889Y2D01*
X3888Y2D01*
X3887Y2D01*
X3886Y2D01*
X3885Y2D01*
X3884Y2D01*
X3883Y2D01*
X3882Y2D01*
X3881Y2D01*
X3880Y2D01*
X3879Y2D01*
X3878Y2D01*
X3877Y2D01*
X3876Y2D01*
X3875Y2D01*
X3874Y2D01*
X3873Y2D01*
X3872Y2D01*
X3871Y2D01*
X3870Y2D01*
X3869Y2D01*
X3868Y2D01*
X3867Y2D01*
X3866Y2D01*
X3865Y2D01*
X3864Y2D01*
X3863Y2D01*
X3862Y2D01*
X3861Y2D01*
X3860Y2D01*
X3859Y2D01*
X3858Y2D01*
X3857Y2D01*
X3856Y2D01*
X3855Y2D01*
X3854Y2D01*
X3853Y2D01*
X3852Y2D01*
X3851Y2D01*
X3850Y2D01*
X3849Y2D01*
X3848Y2D01*
X3847Y2D01*
X3846Y2D01*
X3845Y2D01*
X3844Y2D01*
X3843Y2D01*
X3842Y2D01*
X3841Y2D01*
X3840Y2D01*
X3839Y2D01*
X3838Y2D01*
X3837Y2D01*
X3836Y2D01*
X3835Y2D01*
X3834Y2D01*
X3833Y2D01*
X3832Y2D01*
X3831Y2D01*
X3830Y2D01*
X3829Y2D01*
X3828Y2D01*
X3827Y2D01*
X3826Y2D01*
X3825Y2D01*
X3824Y2D01*
X3823Y2D01*
X3822Y2D01*
X3821Y2D01*
X3820Y2D01*
X3819Y2D01*
X3818Y2D01*
X3817Y2D01*
X3816Y2D01*
X3815Y2D01*
X3814Y2D01*
X3813Y2D01*
X3812Y2D01*
X3811Y2D01*
X3810Y2D01*
X3809Y2D01*
X3808Y2D01*
X3807Y2D01*
X3806Y2D01*
X3805Y2D01*
X3804Y2D01*
X3803Y2D01*
X3802Y2D01*
X3801Y2D01*
X3800Y2D01*
X3799Y2D01*
X3798Y2D01*
X3797Y2D01*
X3796Y2D01*
X3795Y2D01*
X3794Y2D01*
X3793Y2D01*
X3792Y2D01*
X3791Y2D01*
X3790Y2D01*
X3789Y2D01*
X3788Y2D01*
X3787Y2D01*
X3786Y2D01*
X3785Y2D01*
X3784Y2D01*
X3783Y2D01*
X3782Y2D01*
X3781Y2D01*
X3780Y2D01*
X3779Y2D01*
X3778Y2D01*
X3777Y2D01*
X3776Y2D01*
X3775Y2D01*
X3774Y2D01*
X3773Y2D01*
X3772Y2D01*
X3771Y2D01*
X3770Y2D01*
X3769Y2D01*
X3768Y2D01*
X3767Y2D01*
X3766Y2D01*
X3765Y2D01*
X3764Y2D01*
X3763Y2D01*
X3762Y2D01*
X3761Y2D01*
X3760Y2D01*
X3759Y2D01*
X3758Y2D01*
X3757Y2D01*
X3756Y2D01*
X3755Y2D01*
X3754Y2D01*
X3753Y2D01*
X3752Y2D01*
X3751Y2D01*
X3750Y2D01*
X3749Y2D01*
X3748Y2D01*
X3747Y2D01*
X3746Y2D01*
X3745Y2D01*
X3744Y2D01*
X3743Y2D01*
X3742Y2D01*
X3741Y2D01*
X3740Y2D01*
X3739Y2D01*
X3738Y2D01*
X3737Y2D01*
X3736Y2D01*
X3735Y2D01*
X3734Y2D01*
X3733Y2D01*
X3732Y2D01*
X3731Y2D01*
X3730Y2D01*
X3729Y2D01*
X3728Y2D01*
X3727Y2D01*
X3726Y2D01*
X3725Y2D01*
X3724Y2D01*
X3723Y2D01*
X3722Y2D01*
X3721Y2D01*
X3720Y2D01*
X3719Y2D01*
X3718Y2D01*
X3717Y2D01*
X3716Y2D01*
X3715Y2D01*
X3714Y2D01*
X3713Y2D01*
X3712Y2D01*
X3711Y2D01*
X3710Y2D01*
X3709Y2D01*
X3708Y2D01*
X3707Y2D01*
X3706Y2D01*
X3705Y2D01*
X3704Y2D01*
X3703Y2D01*
X3702Y2D01*
X3701Y2D01*
X3700Y2D01*
X3699Y2D01*
X3698Y2D01*
X3697Y2D01*
X3696Y2D01*
X3695Y2D01*
X3694Y2D01*
X3693Y2D01*
X3692Y2D01*
X3691Y2D01*
X3690Y2D01*
X3689Y2D01*
X3688Y2D01*
X3687Y2D01*
X3686Y2D01*
X3685Y2D01*
X3684Y2D01*
X3683Y2D01*
X3682Y2D01*
X3681Y2D01*
X3680Y2D01*
X3679Y2D01*
X3678Y2D01*
X3677Y2D01*
X3676Y2D01*
X3675Y2D01*
X3674Y2D01*
X3673Y2D01*
X3672Y2D01*
X3671Y2D01*
X3670Y2D01*
X3669Y2D01*
X3668Y2D01*
X3667Y2D01*
X3666Y2D01*
X3665Y2D01*
X3664Y2D01*
X3663Y2D01*
X3662Y2D01*
X3661Y2D01*
X3660Y2D01*
X3659Y2D01*
X3658Y2D01*
X3657Y2D01*
X3656Y2D01*
X3655Y2D01*
X3654Y2D01*
X3653Y2D01*
X3652Y2D01*
X3651Y2D01*
X3650Y2D01*
X3649Y2D01*
X3648Y2D01*
X3647Y2D01*
X3646Y2D01*
X3645Y2D01*
X3644Y2D01*
X3643Y2D01*
X3642Y2D01*
X3641Y2D01*
X3640Y2D01*
X3639Y2D01*
X3638Y2D01*
X3637Y2D01*
X3636Y2D01*
X3635Y2D01*
X3634Y2D01*
X3633Y2D01*
X3632Y2D01*
X3631Y2D01*
X3630Y2D01*
X3629Y2D01*
X3628Y2D01*
X3627Y2D01*
X3626Y2D01*
X3625Y2D01*
X3624Y2D01*
X3623Y2D01*
X3622Y2D01*
X3621Y2D01*
X3620Y2D01*
X3619Y2D01*
X3618Y2D01*
X3617Y2D01*
X3616Y2D01*
X3615Y2D01*
X3614Y2D01*
X3613Y2D01*
X3612Y2D01*
X3611Y2D01*
X3610Y2D01*
X3609Y2D01*
X3608Y2D01*
X3607Y2D01*
X3606Y2D01*
X3605Y2D01*
X3604Y2D01*
X3603Y2D01*
X3602Y2D01*
X3601Y2D01*
X3600Y2D01*
X3599Y2D01*
X3598Y2D01*
X3597Y2D01*
X3596Y2D01*
X3595Y2D01*
X3594Y2D01*
X3593Y2D01*
X3592Y2D01*
X3591Y2D01*
X3590Y2D01*
X3589Y2D01*
X3588Y2D01*
X3587Y2D01*
X3586Y2D01*
X3585Y2D01*
X3584Y2D01*
X3583Y2D01*
X3582Y2D01*
X3581Y2D01*
X3580Y2D01*
X3579Y2D01*
X3578Y2D01*
X3577Y2D01*
X3576Y2D01*
X3575Y2D01*
X3574Y2D01*
X3573Y2D01*
X3572Y2D01*
X3571Y2D01*
X3570Y2D01*
X3569Y2D01*
X3568Y2D01*
X3567Y2D01*
X3566Y2D01*
X3565Y2D01*
X3564Y2D01*
X3563Y2D01*
X3562Y2D01*
X3561Y2D01*
X3560Y2D01*
X3559Y2D01*
X3558Y2D01*
X3557Y2D01*
X3556Y2D01*
X3555Y2D01*
X3554Y2D01*
X3553Y2D01*
X3552Y2D01*
X3551Y2D01*
X3550Y2D01*
X3549Y2D01*
X3548Y2D01*
X3547Y2D01*
X3546Y2D01*
X3545Y2D01*
X3544Y2D01*
X3543Y2D01*
X3542Y2D01*
X3541Y2D01*
X3540Y2D01*
X3539Y2D01*
X3538Y2D01*
X3537Y2D01*
X3536Y2D01*
X3535Y2D01*
X3534Y2D01*
X3533Y2D01*
X3532Y2D01*
X3531Y2D01*
X3530Y2D01*
X3529Y2D01*
X3528Y2D01*
X3527Y2D01*
X3526Y2D01*
X3525Y2D01*
X3524Y2D01*
X3523Y2D01*
X3522Y2D01*
X3521Y2D01*
X3520Y2D01*
X3519Y2D01*
X3518Y2D01*
X3517Y2D01*
X3516Y2D01*
X3515Y2D01*
X3514Y2D01*
X3513Y2D01*
X3512Y2D01*
X3511Y2D01*
X3510Y2D01*
X3509Y2D01*
X3508Y2D01*
X3507Y2D01*
X3506Y2D01*
X3505Y2D01*
X3504Y2D01*
X3503Y2D01*
X3502Y2D01*
X3501Y2D01*
X3500Y2D01*
X3499Y2D01*
X3498Y2D01*
X3497Y2D01*
X3496Y2D01*
X3495Y2D01*
X3494Y2D01*
X3493Y2D01*
X3492Y2D01*
X3491Y2D01*
X3490Y2D01*
X3489Y2D01*
X3488Y2D01*
X3487Y2D01*
X3486Y2D01*
X3485Y2D01*
X3484Y2D01*
X3483Y2D01*
X3482Y2D01*
X3481Y2D01*
X3480Y2D01*
X3479Y2D01*
X3478Y2D01*
X3477Y2D01*
X3476Y2D01*
X3475Y2D01*
X3474Y2D01*
X3473Y2D01*
X3472Y2D01*
X3471Y2D01*
X3470Y2D01*
X3469Y2D01*
X3468Y2D01*
X3467Y2D01*
X3466Y2D01*
X3465Y2D01*
X3464Y2D01*
X3463Y2D01*
X3462Y2D01*
X3461Y2D01*
X3460Y2D01*
X3459Y2D01*
X3458Y2D01*
X3457Y2D01*
X3456Y2D01*
X3455Y2D01*
X3454Y2D01*
X3453Y2D01*
X3452Y2D01*
X3451Y2D01*
X3450Y2D01*
X3449Y2D01*
X3448Y2D01*
X3447Y2D01*
X3446Y2D01*
X3445Y2D01*
X3444Y2D01*
X3443Y2D01*
X3442Y2D01*
X3441Y2D01*
X3440Y2D01*
X3439Y2D01*
X3438Y2D01*
X3437Y2D01*
X3436Y2D01*
X3435Y2D01*
X3434Y2D01*
X3433Y2D01*
X3432Y2D01*
X3431Y2D01*
X3430Y2D01*
X3429Y2D01*
X3428Y2D01*
X3427Y2D01*
X3426Y2D01*
X3425Y2D01*
X3424Y2D01*
X3423Y2D01*
X3422Y2D01*
X3421Y2D01*
X3420Y2D01*
X3419Y2D01*
X3418Y2D01*
X3417Y2D01*
X3416Y2D01*
X3415Y2D01*
X3414Y2D01*
X3413Y2D01*
X3412Y2D01*
X3411Y2D01*
X3410Y2D01*
X3409Y2D01*
X3408Y2D01*
X3407Y2D01*
X3406Y2D01*
X3405Y2D01*
X3404Y2D01*
X3403Y2D01*
X3402Y2D01*
X3401Y2D01*
X3400Y2D01*
X3399Y2D01*
X3398Y2D01*
X3397Y2D01*
X3396Y2D01*
X3395Y2D01*
X3394Y2D01*
X3393Y2D01*
X3392Y2D01*
X3391Y2D01*
X3390Y2D01*
X3389Y2D01*
X3388Y2D01*
X3387Y2D01*
X3386Y2D01*
X3385Y2D01*
X3384Y2D01*
X3383Y2D01*
X3382Y2D01*
X3381Y2D01*
X3380Y2D01*
X3379Y2D01*
X3378Y2D01*
X3377Y2D01*
X3376Y2D01*
X3375Y2D01*
X3374Y2D01*
X3373Y2D01*
X3372Y2D01*
X3371Y2D01*
X3370Y2D01*
X3369Y2D01*
X3368Y2D01*
X3367Y2D01*
X3366Y2D01*
X3365Y2D01*
X3364Y2D01*
X3363Y2D01*
X3362Y2D01*
X3361Y2D01*
X3360Y2D01*
X3359Y2D01*
X3358Y2D01*
X3357Y2D01*
X3356Y2D01*
X3355Y2D01*
X3354Y2D01*
X3353Y2D01*
X3352Y2D01*
X3351Y2D01*
X3350Y2D01*
X3349Y2D01*
X3348Y2D01*
X3347Y2D01*
X3346Y2D01*
X3345Y2D01*
X3344Y2D01*
X3343Y2D01*
X3342Y2D01*
X3341Y2D01*
X3340Y2D01*
X3339Y2D01*
X3338Y2D01*
X3337Y2D01*
X3336Y2D01*
X3335Y2D01*
X3334Y2D01*
X3333Y2D01*
X3332Y2D01*
X3331Y2D01*
X3330Y2D01*
X3329Y2D01*
X3328Y2D01*
X3327Y2D01*
X3326Y2D01*
X3325Y2D01*
X3324Y2D01*
X3323Y2D01*
X3322Y2D01*
X3321Y2D01*
X3320Y2D01*
X3319Y2D01*
X3318Y2D01*
X3317Y2D01*
X3316Y2D01*
X3315Y2D01*
X3314Y2D01*
X3313Y2D01*
X3312Y2D01*
X3311Y2D01*
X3310Y2D01*
X3309Y2D01*
X3308Y2D01*
X3307Y2D01*
X3306Y2D01*
X3305Y2D01*
X3304Y2D01*
X3303Y2D01*
X3302Y2D01*
X3301Y2D01*
X3300Y2D01*
X3299Y2D01*
X3298Y2D01*
X3297Y2D01*
X3296Y2D01*
X3295Y2D01*
X3294Y2D01*
X3293Y2D01*
X3292Y2D01*
X3291Y2D01*
X3290Y2D01*
X3289Y2D01*
X3288Y2D01*
X3287Y2D01*
X3286Y2D01*
X3285Y2D01*
X3284Y2D01*
X3283Y2D01*
X3282Y2D01*
X3281Y2D01*
X3280Y2D01*
X3279Y2D01*
X3278Y2D01*
X3277Y2D01*
X3276Y2D01*
X3275Y2D01*
X3274Y2D01*
X3273Y2D01*
X3272Y2D01*
X3271Y2D01*
X3270Y2D01*
X3269Y2D01*
X3268Y2D01*
X3267Y2D01*
X3266Y2D01*
X3265Y2D01*
X3264Y2D01*
X3263Y2D01*
X3262Y2D01*
X3261Y2D01*
X3260Y2D01*
X3259Y2D01*
X3258Y2D01*
X3257Y2D01*
X3256Y2D01*
X3255Y2D01*
X3254Y2D01*
X3253Y2D01*
X3252Y2D01*
X3251Y2D01*
X3250Y2D01*
X3249Y2D01*
X3248Y2D01*
X3247Y2D01*
X3246Y2D01*
X3245Y2D01*
X3244Y2D01*
X3243Y2D01*
X3242Y2D01*
X3241Y2D01*
X3240Y2D01*
X3239Y2D01*
X3238Y2D01*
X3237Y2D01*
X3236Y2D01*
X3235Y2D01*
X3234Y2D01*
X3233Y2D01*
X3232Y2D01*
X3231Y2D01*
X3230Y2D01*
X3229Y2D01*
X3228Y2D01*
X3227Y2D01*
X3226Y2D01*
X3225Y2D01*
X3224Y2D01*
X3223Y2D01*
X3222Y2D01*
X3221Y2D01*
X3220Y2D01*
X3219Y2D01*
X3218Y2D01*
X3217Y2D01*
X3216Y2D01*
X3215Y2D01*
X3214Y2D01*
X3213Y2D01*
X3212Y2D01*
X3211Y2D01*
X3210Y2D01*
X3209Y2D01*
X3208Y2D01*
X3207Y2D01*
X3206Y2D01*
X3205Y2D01*
X3204Y2D01*
X3203Y2D01*
X3202Y2D01*
X3201Y2D01*
X3200Y2D01*
X3199Y2D01*
X3198Y2D01*
X3197Y2D01*
X3196Y2D01*
X3195Y2D01*
X3194Y2D01*
X3193Y2D01*
X3192Y2D01*
X3191Y2D01*
X3190Y2D01*
X3189Y2D01*
X3188Y2D01*
X3187Y2D01*
X3186Y2D01*
X3185Y2D01*
X3184Y2D01*
X3183Y2D01*
X3182Y2D01*
X3181Y2D01*
X3180Y2D01*
X3179Y2D01*
X3178Y2D01*
X3177Y2D01*
X3176Y2D01*
X3175Y2D01*
X3174Y2D01*
X3173Y2D01*
X3172Y2D01*
X3171Y2D01*
X3170Y2D01*
X3169Y2D01*
X3168Y2D01*
X3167Y2D01*
X3166Y2D01*
X3165Y2D01*
X3164Y2D01*
X3163Y2D01*
X3162Y2D01*
X3161Y2D01*
X3160Y2D01*
X3159Y2D01*
X3158Y2D01*
X3157Y2D01*
X3156Y2D01*
X3155Y2D01*
X3154Y2D01*
X3153Y2D01*
X3152Y2D01*
X3151Y2D01*
X3150Y2D01*
X3149Y2D01*
X3148Y2D01*
X3147Y2D01*
X3146Y2D01*
X3145Y2D01*
X3144Y2D01*
X3143Y2D01*
X3142Y2D01*
X3141Y2D01*
X3140Y2D01*
X3139Y2D01*
X3138Y2D01*
X3137Y2D01*
X3136Y2D01*
X3135Y2D01*
X3134Y2D01*
X3133Y2D01*
X3132Y2D01*
X3131Y2D01*
X3130Y2D01*
X3129Y2D01*
X3128Y2D01*
X3127Y2D01*
X3126Y2D01*
X3125Y2D01*
X3124Y2D01*
X3123Y2D01*
X3122Y2D01*
X3121Y2D01*
X3120Y2D01*
X3119Y2D01*
X3118Y2D01*
X3117Y2D01*
X3116Y2D01*
X3115Y2D01*
X3114Y2D01*
X3113Y2D01*
X3112Y2D01*
X3111Y2D01*
X3110Y2D01*
X3109Y2D01*
X3108Y2D01*
X3107Y2D01*
X3106Y2D01*
X3105Y2D01*
X3104Y2D01*
X3103Y2D01*
X3102Y2D01*
X3101Y2D01*
X3100Y2D01*
X3099Y2D01*
X3098Y2D01*
X3097Y2D01*
X3096Y2D01*
X3095Y2D01*
X3094Y2D01*
X3093Y2D01*
X3092Y2D01*
X3091Y2D01*
X3090Y2D01*
X3089Y2D01*
X3088Y2D01*
X3087Y2D01*
X3086Y2D01*
X3085Y2D01*
X3084Y2D01*
X3083Y2D01*
X3082Y2D01*
X3081Y2D01*
X3080Y2D01*
X3079Y2D01*
X3078Y2D01*
X3077Y2D01*
X3076Y2D01*
X3075Y2D01*
X3074Y2D01*
X3073Y2D01*
X3072Y2D01*
X3071Y2D01*
X3070Y2D01*
X3069Y2D01*
X3068Y2D01*
X3067Y2D01*
X3066Y2D01*
X3065Y2D01*
X3064Y2D01*
X3063Y2D01*
X3062Y2D01*
X3061Y2D01*
X3060Y2D01*
X3059Y2D01*
X3058Y2D01*
X3057Y2D01*
X3056Y2D01*
X3055Y2D01*
X3054Y2D01*
X3053Y2D01*
X3052Y2D01*
X3051Y2D01*
X3050Y2D01*
X3049Y2D01*
X3048Y2D01*
X3047Y2D01*
X3046Y2D01*
X3045Y2D01*
X3044Y2D01*
X3043Y2D01*
X3042Y2D01*
X3041Y2D01*
X3040Y2D01*
X3039Y2D01*
X3038Y2D01*
X3037Y2D01*
X3036Y2D01*
X3035Y2D01*
X3034Y2D01*
X3033Y2D01*
X3032Y2D01*
X3031Y2D01*
X3030Y2D01*
X3029Y2D01*
X3028Y2D01*
X3027Y2D01*
X3026Y2D01*
X3025Y2D01*
X3024Y2D01*
X3023Y2D01*
X3022Y2D01*
X3021Y2D01*
X3020Y2D01*
X3019Y2D01*
X3018Y2D01*
X3017Y2D01*
X3016Y2D01*
X3015Y2D01*
X3014Y2D01*
X3013Y2D01*
X3012Y2D01*
X3011Y2D01*
X3010Y2D01*
X3009Y2D01*
X3008Y2D01*
X3007Y2D01*
X3006Y2D01*
X3005Y2D01*
X3004Y2D01*
X3003Y2D01*
X3002Y2D01*
X3001Y2D01*
X3000Y2D01*
X2999Y2D01*
X2998Y2D01*
X2997Y2D01*
X2996Y2D01*
X2995Y2D01*
X2994Y2D01*
X2993Y2D01*
X2992Y2D01*
X2991Y2D01*
X2990Y2D01*
X2989Y2D01*
X2988Y2D01*
X2987Y2D01*
X2986Y2D01*
X2985Y2D01*
X2984Y2D01*
X2983Y2D01*
X2982Y2D01*
X2981Y2D01*
X2980Y2D01*
X2979Y2D01*
X2978Y2D01*
X2977Y2D01*
X2976Y2D01*
X2975Y2D01*
X2974Y2D01*
X2973Y2D01*
X2972Y2D01*
X2971Y2D01*
X2970Y2D01*
X2969Y2D01*
X2968Y2D01*
X2967Y2D01*
X2966Y2D01*
X2965Y2D01*
X2964Y2D01*
X2963Y2D01*
X2962Y2D01*
X2961Y2D01*
X2960Y2D01*
X2959Y2D01*
X2958Y2D01*
X2957Y2D01*
X2956Y2D01*
X2955Y2D01*
X2954Y2D01*
X2953Y2D01*
X2952Y2D01*
X2951Y2D01*
X2950Y2D01*
X2949Y2D01*
X2948Y2D01*
X2947Y2D01*
X2946Y2D01*
X2945Y2D01*
X2944Y2D01*
X2943Y2D01*
X2942Y2D01*
X2941Y2D01*
X2940Y2D01*
X2939Y2D01*
X2938Y2D01*
X2937Y2D01*
X2936Y2D01*
X2935Y2D01*
X2934Y2D01*
X2933Y2D01*
X2932Y2D01*
X2931Y2D01*
X2930Y2D01*
X2929Y2D01*
X2928Y2D01*
X2927Y2D01*
X2926Y2D01*
X2925Y2D01*
X2924Y2D01*
X2923Y2D01*
X2922Y2D01*
X2921Y2D01*
X2920Y2D01*
X2919Y2D01*
X2918Y2D01*
X2917Y2D01*
X2916Y2D01*
X2915Y2D01*
X2914Y2D01*
X2913Y2D01*
X2912Y2D01*
X2911Y2D01*
X2910Y2D01*
X2909Y2D01*
X2908Y2D01*
X2907Y2D01*
X2906Y2D01*
X2905Y2D01*
X2904Y2D01*
X2903Y2D01*
X2902Y2D01*
X2901Y2D01*
X2900Y2D01*
X2899Y2D01*
X2898Y2D01*
X2897Y2D01*
X2896Y2D01*
X2895Y2D01*
X2894Y2D01*
X2893Y2D01*
X2892Y2D01*
X2891Y2D01*
X2890Y2D01*
X2889Y2D01*
X2888Y2D01*
X2887Y2D01*
X2886Y2D01*
X2885Y2D01*
X2884Y2D01*
X2883Y2D01*
X2882Y2D01*
X2881Y2D01*
X2880Y2D01*
X2879Y2D01*
X2878Y2D01*
X2877Y2D01*
X2876Y2D01*
X2875Y2D01*
X2874Y2D01*
X2873Y2D01*
X2872Y2D01*
X2871Y2D01*
X2870Y2D01*
X2869Y2D01*
X2868Y2D01*
X2867Y2D01*
X2866Y2D01*
X2865Y2D01*
X2864Y2D01*
X2863Y2D01*
X2862Y2D01*
X2861Y2D01*
X2860Y2D01*
X2859Y2D01*
X2858Y2D01*
X2857Y2D01*
X2856Y2D01*
X2855Y2D01*
X2854Y2D01*
X2853Y2D01*
X2852Y2D01*
X2851Y2D01*
X2850Y2D01*
X2849Y2D01*
X2848Y2D01*
X2847Y2D01*
X2846Y2D01*
X2845Y2D01*
X2844Y2D01*
X2843Y2D01*
X2842Y2D01*
X2841Y2D01*
X2840Y2D01*
X2839Y2D01*
X2838Y2D01*
X2837Y2D01*
X2836Y2D01*
X2835Y2D01*
X2834Y2D01*
X2833Y2D01*
X2832Y2D01*
X2831Y2D01*
X2830Y2D01*
X2829Y2D01*
X2828Y2D01*
X2827Y2D01*
X2826Y2D01*
X2825Y2D01*
X2824Y2D01*
X2823Y2D01*
X2822Y2D01*
X2821Y2D01*
X2820Y2D01*
X2819Y2D01*
X2818Y2D01*
X2817Y2D01*
X2816Y2D01*
X2815Y2D01*
X2814Y2D01*
X2813Y2D01*
X2812Y2D01*
X2811Y2D01*
X2810Y2D01*
X2809Y2D01*
X2808Y2D01*
X2807Y2D01*
X2806Y2D01*
X2805Y2D01*
X2804Y2D01*
X2803Y2D01*
X2802Y2D01*
X2801Y2D01*
X2800Y2D01*
X2799Y2D01*
X2798Y2D01*
X2797Y2D01*
X2796Y2D01*
X2795Y2D01*
X2794Y2D01*
X2793Y2D01*
X2792Y2D01*
X2791Y2D01*
X2790Y2D01*
X2789Y2D01*
X2788Y2D01*
X2787Y2D01*
X2786Y2D01*
X2785Y2D01*
X2784Y2D01*
X2783Y2D01*
X2782Y2D01*
X2781Y2D01*
X2780Y2D01*
X2779Y2D01*
X2778Y2D01*
X2777Y2D01*
X2776Y2D01*
X2775Y2D01*
X2774Y2D01*
X2773Y2D01*
X2772Y2D01*
X2771Y2D01*
X2770Y2D01*
X2769Y2D01*
X2768Y2D01*
X2767Y2D01*
X2766Y2D01*
X2765Y2D01*
X2764Y2D01*
X2763Y2D01*
X2762Y2D01*
X2761Y2D01*
X2760Y2D01*
X2759Y2D01*
X2758Y2D01*
X2757Y2D01*
X2756Y2D01*
X2755Y2D01*
X2754Y2D01*
X2753Y2D01*
X2752Y2D01*
X2751Y2D01*
X2750Y2D01*
X2749Y2D01*
X2748Y2D01*
X2747Y2D01*
X2746Y2D01*
X2745Y2D01*
X2744Y2D01*
X2743Y2D01*
X2742Y2D01*
X2741Y2D01*
X2740Y2D01*
X2739Y2D01*
X2738Y2D01*
X2737Y2D01*
X2736Y2D01*
X2735Y2D01*
X2734Y2D01*
X2733Y2D01*
X2732Y2D01*
X2731Y2D01*
X2730Y2D01*
X2729Y2D01*
X2728Y2D01*
X2727Y2D01*
X2726Y2D01*
X2725Y2D01*
X2724Y2D01*
X2723Y2D01*
X2722Y2D01*
X2721Y2D01*
X2720Y2D01*
X2719Y2D01*
X2718Y2D01*
X2717Y2D01*
X2716Y2D01*
X2715Y2D01*
X2714Y2D01*
X2713Y2D01*
X2712Y2D01*
X2711Y2D01*
X2710Y2D01*
X2709Y2D01*
X2708Y2D01*
X2707Y2D01*
X2706Y2D01*
X2705Y2D01*
X2704Y2D01*
X2703Y2D01*
X2702Y2D01*
X2701Y2D01*
X2700Y2D01*
X2699Y2D01*
X2698Y2D01*
X2697Y2D01*
X2696Y2D01*
X2695Y2D01*
X2694Y2D01*
X2693Y2D01*
X2692Y2D01*
X2691Y2D01*
X2690Y2D01*
X2689Y2D01*
X2688Y2D01*
X2687Y2D01*
X2686Y2D01*
X2685Y2D01*
X2684Y2D01*
X2683Y2D01*
X2682Y2D01*
X2681Y2D01*
X2680Y2D01*
X2679Y2D01*
X2678Y2D01*
X2677Y2D01*
X2676Y2D01*
X2675Y2D01*
X2674Y2D01*
X2673Y2D01*
X2672Y2D01*
X2671Y2D01*
X2670Y2D01*
X2669Y2D01*
X2668Y2D01*
X2667Y2D01*
X2666Y2D01*
X2665Y2D01*
X2664Y2D01*
X2663Y2D01*
X2662Y2D01*
X2661Y2D01*
X2660Y2D01*
X2659Y2D01*
X2658Y2D01*
X2657Y2D01*
X2656Y2D01*
X2655Y2D01*
X2654Y2D01*
X2653Y2D01*
X2652Y2D01*
X2651Y2D01*
X2650Y2D01*
X2649Y2D01*
X2648Y2D01*
X2647Y2D01*
X2646Y2D01*
X2645Y2D01*
X2644Y2D01*
X2643Y2D01*
X2642Y2D01*
X2641Y2D01*
X2640Y2D01*
X2639Y2D01*
X2638Y2D01*
X2637Y2D01*
X2636Y2D01*
X2635Y2D01*
X2634Y2D01*
X2633Y2D01*
X2632Y2D01*
X2631Y2D01*
X2630Y2D01*
X2629Y2D01*
X2628Y2D01*
X2627Y2D01*
X2626Y2D01*
X2625Y2D01*
X2624Y2D01*
X2623Y2D01*
X2622Y2D01*
X2621Y2D01*
X2620Y2D01*
X2619Y2D01*
X2618Y2D01*
X2617Y2D01*
X2616Y2D01*
X2615Y2D01*
X2614Y2D01*
X2613Y2D01*
X2612Y2D01*
X2611Y2D01*
X2610Y2D01*
X2609Y2D01*
X2608Y2D01*
X2607Y2D01*
X2606Y2D01*
X2605Y2D01*
X2604Y2D01*
X2603Y2D01*
X2602Y2D01*
X2601Y2D01*
X2600Y2D01*
X2599Y2D01*
X2598Y2D01*
X2597Y2D01*
X2596Y2D01*
X2595Y2D01*
X2594Y2D01*
X2593Y2D01*
X2592Y2D01*
X2591Y2D01*
X2590Y2D01*
X2589Y2D01*
X2588Y2D01*
X2587Y2D01*
X2586Y2D01*
X2585Y2D01*
X2584Y2D01*
X2583Y2D01*
X2582Y2D01*
X2581Y2D01*
X2580Y2D01*
X2579Y2D01*
X2578Y2D01*
X2577Y2D01*
X2576Y2D01*
X2575Y2D01*
X2574Y2D01*
X2573Y2D01*
X2572Y2D01*
X2571Y2D01*
X2570Y2D01*
X2569Y2D01*
X2568Y2D01*
X2567Y2D01*
X2566Y2D01*
X2565Y2D01*
X2564Y2D01*
X2563Y2D01*
X2562Y2D01*
X2561Y2D01*
X2560Y2D01*
X2559Y2D01*
X2558Y2D01*
X2557Y2D01*
X2556Y2D01*
X2555Y2D01*
X2554Y2D01*
X2553Y2D01*
X2552Y2D01*
X2551Y2D01*
X2550Y2D01*
X2549Y2D01*
X2548Y2D01*
X2547Y2D01*
X2546Y2D01*
X2545Y2D01*
X2544Y2D01*
X2543Y2D01*
X2542Y2D01*
X2541Y2D01*
X2540Y2D01*
X2539Y2D01*
X2538Y2D01*
X2537Y2D01*
X2536Y2D01*
X2535Y2D01*
X2534Y2D01*
X2533Y2D01*
X2532Y2D01*
X2531Y2D01*
X2530Y2D01*
X2529Y2D01*
X2528Y2D01*
X2527Y2D01*
X2526Y2D01*
X2525Y2D01*
X2524Y2D01*
X2523Y2D01*
X2522Y2D01*
X2521Y2D01*
X2520Y2D01*
X2519Y2D01*
X2518Y2D01*
X2517Y2D01*
X2516Y2D01*
X2515Y2D01*
X2514Y2D01*
X2513Y2D01*
X2512Y2D01*
X2511Y2D01*
X2510Y2D01*
X2509Y2D01*
X2508Y2D01*
X2507Y2D01*
X2506Y2D01*
X2505Y2D01*
X2504Y2D01*
X2503Y2D01*
X2502Y2D01*
X2501Y2D01*
X2500Y2D01*
X2499Y2D01*
X2498Y2D01*
X2497Y2D01*
X2496Y2D01*
X2495Y2D01*
X2494Y2D01*
X2493Y2D01*
X2492Y2D01*
X2491Y2D01*
X2490Y2D01*
X2489Y2D01*
X2488Y2D01*
X2487Y2D01*
X2486Y2D01*
X2485Y2D01*
X2484Y2D01*
X2483Y2D01*
X2482Y2D01*
X2481Y2D01*
X2480Y2D01*
X2479Y2D01*
X2478Y2D01*
X2477Y2D01*
X2476Y2D01*
X2475Y2D01*
X2474Y2D01*
X2473Y2D01*
X2472Y2D01*
X2471Y2D01*
X2470Y2D01*
X2469Y2D01*
X2468Y2D01*
X2467Y2D01*
X2466Y2D01*
X2465Y2D01*
X2464Y2D01*
X2463Y2D01*
X2462Y2D01*
X2461Y2D01*
X2460Y2D01*
X2459Y2D01*
X2458Y2D01*
X2457Y2D01*
X2456Y2D01*
X2455Y2D01*
X2454Y2D01*
X2453Y2D01*
X2452Y2D01*
X2451Y2D01*
X2450Y2D01*
X2449Y2D01*
X2448Y2D01*
X2447Y2D01*
X2446Y2D01*
X2445Y2D01*
X2444Y2D01*
X2443Y2D01*
X2442Y2D01*
X2441Y2D01*
X2440Y2D01*
X2439Y2D01*
X2438Y2D01*
X2437Y2D01*
X2436Y2D01*
X2435Y2D01*
X2434Y2D01*
X2433Y2D01*
X2432Y2D01*
X2431Y2D01*
X2430Y2D01*
X2429Y2D01*
X2428Y2D01*
X2427Y2D01*
X2426Y2D01*
X2425Y2D01*
X2424Y2D01*
X2423Y2D01*
X2422Y2D01*
X2421Y2D01*
X2420Y2D01*
X2419Y2D01*
X2418Y2D01*
X2417Y2D01*
X2416Y2D01*
X2415Y2D01*
X2414Y2D01*
X2413Y2D01*
X2412Y2D01*
X2411Y2D01*
X2410Y2D01*
X2409Y2D01*
X2408Y2D01*
X2407Y2D01*
X2406Y2D01*
X2405Y2D01*
X2404Y2D01*
X2403Y2D01*
X2402Y2D01*
X2401Y2D01*
X2400Y2D01*
X2399Y2D01*
X2398Y2D01*
X2397Y2D01*
X2396Y2D01*
X2395Y2D01*
X2394Y2D01*
X2393Y2D01*
X2392Y2D01*
X2391Y2D01*
X2390Y2D01*
X2389Y2D01*
X2388Y2D01*
X2387Y2D01*
X2386Y2D01*
X2385Y2D01*
X2384Y2D01*
X2383Y2D01*
X2382Y2D01*
X2381Y2D01*
X2380Y2D01*
X2379Y2D01*
X2378Y2D01*
X2377Y2D01*
X2376Y2D01*
X2375Y2D01*
X2374Y2D01*
X2373Y2D01*
X2372Y2D01*
X2371Y2D01*
X2370Y2D01*
X2369Y2D01*
X2368Y2D01*
X2367Y2D01*
X2366Y2D01*
X2365Y2D01*
X2364Y2D01*
X2363Y2D01*
X2362Y2D01*
X2361Y2D01*
X2360Y2D01*
X2359Y2D01*
X2358Y2D01*
X2357Y2D01*
X2356Y2D01*
X2355Y2D01*
X2354Y2D01*
X2353Y2D01*
X2352Y2D01*
X2351Y2D01*
X2350Y2D01*
X2349Y2D01*
X2348Y2D01*
X2347Y2D01*
X2346Y2D01*
X2345Y2D01*
X2344Y2D01*
X2343Y2D01*
X2342Y2D01*
X2341Y2D01*
X2340Y2D01*
X2339Y2D01*
X2338Y2D01*
X2337Y2D01*
X2336Y2D01*
X2335Y2D01*
X2334Y2D01*
X2333Y2D01*
X2332Y2D01*
X2331Y2D01*
X2330Y2D01*
X2329Y2D01*
X2328Y2D01*
X2327Y2D01*
X2326Y2D01*
X2325Y2D01*
X2324Y2D01*
X2323Y2D01*
X2322Y2D01*
X2321Y2D01*
X2320Y2D01*
X2319Y2D01*
X2318Y2D01*
X2317Y2D01*
X2316Y2D01*
X2315Y2D01*
X2314Y2D01*
X2313Y2D01*
X2312Y2D01*
X2311Y2D01*
X2310Y2D01*
X2309Y2D01*
X2308Y2D01*
X2307Y2D01*
X2306Y2D01*
X2305Y2D01*
X2304Y2D01*
X2303Y2D01*
X2302Y2D01*
X2301Y2D01*
X2300Y2D01*
X2299Y2D01*
X2298Y2D01*
X2297Y2D01*
X2296Y2D01*
X2295Y2D01*
X2294Y2D01*
X2293Y2D01*
X2292Y2D01*
X2291Y2D01*
X2290Y2D01*
X2289Y2D01*
X2288Y2D01*
X2287Y2D01*
X2286Y2D01*
X2285Y2D01*
X2284Y2D01*
X2283Y2D01*
X2282Y2D01*
X2281Y2D01*
X2280Y2D01*
X2279Y2D01*
X2278Y2D01*
X2277Y2D01*
X2276Y2D01*
X2275Y2D01*
X2274Y2D01*
X2273Y2D01*
X2272Y2D01*
X2271Y2D01*
X2270Y2D01*
X2269Y2D01*
X2268Y2D01*
X2267Y2D01*
X2266Y2D01*
X2265Y2D01*
X2264Y2D01*
X2263Y2D01*
X2262Y2D01*
X2261Y2D01*
X2260Y2D01*
X2259Y2D01*
X2258Y2D01*
X2257Y2D01*
X2256Y2D01*
X2255Y2D01*
X2254Y2D01*
X2253Y2D01*
X2252Y2D01*
X2251Y2D01*
X2250Y2D01*
X2249Y2D01*
X2248Y2D01*
X2247Y2D01*
X2246Y2D01*
X2245Y2D01*
X2244Y2D01*
X2243Y2D01*
X2242Y2D01*
X2241Y2D01*
X2240Y2D01*
X2239Y2D01*
X2238Y2D01*
X2237Y2D01*
X2236Y2D01*
X2235Y2D01*
X2234Y2D01*
X2233Y2D01*
X2232Y2D01*
X2231Y2D01*
X2230Y2D01*
X2229Y2D01*
X2228Y2D01*
X2227Y2D01*
X2226Y2D01*
X2225Y2D01*
X2224Y2D01*
X2223Y2D01*
X2222Y2D01*
X2221Y2D01*
X2220Y2D01*
X2219Y2D01*
X2218Y2D01*
X2217Y2D01*
X2216Y2D01*
X2215Y2D01*
X2214Y2D01*
X2213Y2D01*
X2212Y2D01*
X2211Y2D01*
X2210Y2D01*
X2209Y2D01*
X2208Y2D01*
X2207Y2D01*
X2206Y2D01*
X2205Y2D01*
X2204Y2D01*
X2203Y2D01*
X2202Y2D01*
X2201Y2D01*
X2200Y2D01*
X2199Y2D01*
X2198Y2D01*
X2197Y2D01*
X2196Y2D01*
X2195Y2D01*
X2194Y2D01*
X2193Y2D01*
X2192Y2D01*
X2191Y2D01*
X2190Y2D01*
X2189Y2D01*
X2188Y2D01*
X2187Y2D01*
X2186Y2D01*
X2185Y2D01*
X2184Y2D01*
X2183Y2D01*
X2182Y2D01*
X2181Y2D01*
X2180Y2D01*
X2179Y2D01*
X2178Y2D01*
X2177Y2D01*
X2176Y2D01*
X2175Y2D01*
X2174Y2D01*
X2173Y2D01*
X2172Y2D01*
X2171Y2D01*
X2170Y2D01*
X2169Y2D01*
X2168Y2D01*
X2167Y2D01*
X2166Y2D01*
X2165Y2D01*
X2164Y2D01*
X2163Y2D01*
X2162Y2D01*
X2161Y2D01*
X2160Y2D01*
X2159Y2D01*
X2158Y2D01*
X2157Y2D01*
X2156Y2D01*
X2155Y2D01*
X2154Y2D01*
X2153Y2D01*
X2152Y2D01*
X2151Y2D01*
X2150Y2D01*
X2149Y2D01*
X2148Y2D01*
X2147Y2D01*
X2146Y2D01*
X2145Y2D01*
X2144Y2D01*
X2143Y2D01*
X2142Y2D01*
X2141Y2D01*
X2140Y2D01*
X2139Y2D01*
X2138Y2D01*
X2137Y2D01*
X2136Y2D01*
X2135Y2D01*
X2134Y2D01*
X2133Y2D01*
X2132Y2D01*
X2131Y2D01*
X2130Y2D01*
X2129Y2D01*
X2128Y2D01*
X2127Y2D01*
X2126Y2D01*
X2125Y2D01*
X2124Y2D01*
X2123Y2D01*
X2122Y2D01*
X2121Y2D01*
X2120Y2D01*
X2119Y2D01*
X2118Y2D01*
X2117Y2D01*
X2116Y2D01*
X2115Y2D01*
X2114Y2D01*
X2113Y2D01*
X2112Y2D01*
X2111Y2D01*
X2110Y2D01*
X2109Y2D01*
X2108Y2D01*
X2107Y2D01*
X2106Y2D01*
X2105Y2D01*
X2104Y2D01*
X2103Y2D01*
X2102Y2D01*
X2101Y2D01*
X2100Y2D01*
X2099Y2D01*
X2098Y2D01*
X2097Y2D01*
X2096Y2D01*
X2095Y2D01*
X2094Y2D01*
X2093Y2D01*
X2092Y2D01*
X2091Y2D01*
X2090Y2D01*
X2089Y2D01*
X2088Y2D01*
X2087Y2D01*
X2086Y2D01*
X2085Y2D01*
X2084Y2D01*
X2083Y2D01*
X2082Y2D01*
X2081Y2D01*
X2080Y2D01*
X2079Y2D01*
X2078Y2D01*
X2077Y2D01*
X2076Y2D01*
X2075Y2D01*
X2074Y2D01*
X2073Y2D01*
X2072Y2D01*
X2071Y2D01*
X2070Y2D01*
X2069Y2D01*
X2068Y2D01*
X2067Y2D01*
X2066Y2D01*
X2065Y2D01*
X2064Y2D01*
X2063Y2D01*
X2062Y2D01*
X2061Y2D01*
X2060Y2D01*
X2059Y2D01*
X2058Y2D01*
X2057Y2D01*
X2056Y2D01*
X2055Y2D01*
X2054Y2D01*
X2053Y2D01*
X2052Y2D01*
X2051Y2D01*
X2050Y2D01*
X2049Y2D01*
X2048Y2D01*
X2047Y2D01*
X2046Y2D01*
X2045Y2D01*
X2044Y2D01*
X2043Y2D01*
X2042Y2D01*
X2041Y2D01*
X2040Y2D01*
X2039Y2D01*
X2038Y2D01*
X2037Y2D01*
X2036Y2D01*
X2035Y2D01*
X2034Y2D01*
X2033Y2D01*
X2032Y2D01*
X2031Y2D01*
X2030Y2D01*
X2029Y2D01*
X2028Y2D01*
X2027Y2D01*
X2026Y2D01*
X2025Y2D01*
X2024Y2D01*
X2023Y2D01*
X2022Y2D01*
X2021Y2D01*
X2020Y2D01*
X2019Y2D01*
X2018Y2D01*
X2017Y2D01*
X2016Y2D01*
X2015Y2D01*
X2014Y2D01*
X2013Y2D01*
X2012Y2D01*
X2011Y2D01*
X2010Y2D01*
X2009Y2D01*
X2008Y2D01*
X2007Y2D01*
X2006Y2D01*
X2005Y2D01*
X2004Y2D01*
X2003Y2D01*
X2002Y2D01*
X2001Y2D01*
X2000Y2D01*
X1999Y2D01*
X1998Y2D01*
X1997Y2D01*
X1996Y2D01*
X1995Y2D01*
X1994Y2D01*
X1993Y2D01*
X1992Y2D01*
X1991Y2D01*
X1990Y2D01*
X1989Y2D01*
X1988Y2D01*
X1987Y2D01*
X1986Y2D01*
X1985Y2D01*
X1984Y2D01*
X1983Y2D01*
X1982Y2D01*
X1981Y2D01*
X1980Y2D01*
X1979Y2D01*
X1978Y2D01*
X1977Y2D01*
X1976Y2D01*
X1975Y2D01*
X1974Y2D01*
X1973Y2D01*
X1972Y2D01*
X1971Y2D01*
X1970Y2D01*
X1969Y2D01*
X1968Y2D01*
X1967Y2D01*
X1966Y2D01*
X1965Y2D01*
X1964Y2D01*
X1963Y2D01*
X1962Y2D01*
X1961Y2D01*
X1960Y2D01*
X1959Y2D01*
X1958Y2D01*
X1957Y2D01*
X1956Y2D01*
X1955Y2D01*
X1954Y2D01*
X1953Y2D01*
X1952Y2D01*
X1951Y2D01*
X1950Y2D01*
X1949Y2D01*
X1948Y2D01*
X1947Y2D01*
X1946Y2D01*
X1945Y2D01*
X1944Y2D01*
X1943Y2D01*
X1942Y2D01*
X1941Y2D01*
X1940Y2D01*
X1939Y2D01*
X1938Y2D01*
X1937Y2D01*
X1936Y2D01*
X1935Y2D01*
X1934Y2D01*
X1933Y2D01*
X1932Y2D01*
X1931Y2D01*
X1930Y2D01*
X1929Y2D01*
X1928Y2D01*
X1927Y2D01*
X1926Y2D01*
X1925Y2D01*
X1924Y2D01*
X1923Y2D01*
X1922Y2D01*
X1921Y2D01*
X1920Y2D01*
X1919Y2D01*
X1918Y2D01*
X1917Y2D01*
X1916Y2D01*
X1915Y2D01*
X1914Y2D01*
X1913Y2D01*
X1912Y2D01*
X1911Y2D01*
X1910Y2D01*
X1909Y2D01*
X1908Y2D01*
X1907Y2D01*
X1906Y2D01*
X1905Y2D01*
X1904Y2D01*
X1903Y2D01*
X1902Y2D01*
X1901Y2D01*
X1900Y2D01*
X1899Y2D01*
X1898Y2D01*
X1897Y2D01*
X1896Y2D01*
X1895Y2D01*
X1894Y2D01*
X1893Y2D01*
X1892Y2D01*
X1891Y2D01*
X1890Y2D01*
X1889Y2D01*
X1888Y2D01*
X1887Y2D01*
X1886Y2D01*
X1885Y2D01*
X1884Y2D01*
X1883Y2D01*
X1882Y2D01*
X1881Y2D01*
X1880Y2D01*
X1879Y2D01*
X1878Y2D01*
X1877Y2D01*
X1876Y2D01*
X1875Y2D01*
X1874Y2D01*
X1873Y2D01*
X1872Y2D01*
X1871Y2D01*
X1870Y2D01*
X1869Y2D01*
X1868Y2D01*
X1867Y2D01*
X1866Y2D01*
X1865Y2D01*
X1864Y2D01*
X1863Y2D01*
X1862Y2D01*
X1861Y2D01*
X1860Y2D01*
X1859Y2D01*
X1858Y2D01*
X1857Y2D01*
X1856Y2D01*
X1855Y2D01*
X1854Y2D01*
X1853Y2D01*
X1852Y2D01*
X1851Y2D01*
X1850Y2D01*
X1849Y2D01*
X1848Y2D01*
X1847Y2D01*
X1846Y2D01*
X1845Y2D01*
X1844Y2D01*
X1843Y2D01*
X1842Y2D01*
X1841Y2D01*
X1840Y2D01*
X1839Y2D01*
X1838Y2D01*
X1837Y2D01*
X1836Y2D01*
X1835Y2D01*
X1834Y2D01*
X1833Y2D01*
X1832Y2D01*
X1831Y2D01*
X1830Y2D01*
X1829Y2D01*
X1828Y2D01*
X1827Y2D01*
X1826Y2D01*
X1825Y2D01*
X1824Y2D01*
X1823Y2D01*
X1822Y2D01*
X1821Y2D01*
X1820Y2D01*
X1819Y2D01*
X1818Y2D01*
X1817Y2D01*
X1816Y2D01*
X1815Y2D01*
X1814Y2D01*
X1813Y2D01*
X1812Y2D01*
X1811Y2D01*
X1810Y2D01*
X1809Y2D01*
X1808Y2D01*
X1807Y2D01*
X1806Y2D01*
X1805Y2D01*
X1804Y2D01*
X1803Y2D01*
X1802Y2D01*
X1801Y2D01*
X1800Y2D01*
X1799Y2D01*
X1798Y2D01*
X1797Y2D01*
X1796Y2D01*
X1795Y2D01*
X1794Y2D01*
X1793Y2D01*
X1792Y2D01*
X1791Y2D01*
X1790Y2D01*
X1789Y2D01*
X1788Y2D01*
X1787Y2D01*
X1786Y2D01*
X1785Y2D01*
X1784Y2D01*
X1783Y2D01*
X1782Y2D01*
X1781Y2D01*
X1780Y2D01*
X1779Y2D01*
X1778Y2D01*
X1777Y2D01*
X1776Y2D01*
X1775Y2D01*
X1774Y2D01*
X1773Y2D01*
X1772Y2D01*
X1771Y2D01*
X1770Y2D01*
X1769Y2D01*
X1768Y2D01*
X1767Y2D01*
X1766Y2D01*
X1765Y2D01*
X1764Y2D01*
X1763Y2D01*
X1762Y2D01*
X1761Y2D01*
X1760Y2D01*
X1759Y2D01*
X1758Y2D01*
X1757Y2D01*
X1756Y2D01*
X1755Y2D01*
X1754Y2D01*
X1753Y2D01*
X1752Y2D01*
X1751Y2D01*
X1750Y2D01*
X1749Y2D01*
X1748Y2D01*
X1747Y2D01*
X1746Y2D01*
X1745Y2D01*
X1744Y2D01*
X1743Y2D01*
X1742Y2D01*
X1741Y2D01*
X1740Y2D01*
X1739Y2D01*
X1738Y2D01*
X1737Y2D01*
X1736Y2D01*
X1735Y2D01*
X1734Y2D01*
X1733Y2D01*
X1732Y2D01*
X1731Y2D01*
X1730Y2D01*
X1729Y2D01*
X1728Y2D01*
X1727Y2D01*
X1726Y2D01*
X1725Y2D01*
X1724Y2D01*
X1723Y2D01*
X1722Y2D01*
X1721Y2D01*
X1720Y2D01*
X1719Y2D01*
X1718Y2D01*
X1717Y2D01*
X1716Y2D01*
X1715Y2D01*
X1714Y2D01*
X1713Y2D01*
X1712Y2D01*
X1711Y2D01*
X1710Y2D01*
X1709Y2D01*
X1708Y2D01*
X1707Y2D01*
X1706Y2D01*
X1705Y2D01*
X1704Y2D01*
X1703Y2D01*
X1702Y2D01*
X1701Y2D01*
X1700Y2D01*
X1699Y2D01*
X1698Y2D01*
X1697Y2D01*
X1696Y2D01*
X1695Y2D01*
X1694Y2D01*
X1693Y2D01*
X1692Y2D01*
X1691Y2D01*
X1690Y2D01*
X1689Y2D01*
X1688Y2D01*
X1687Y2D01*
X1686Y2D01*
X1685Y2D01*
X1684Y2D01*
X1683Y2D01*
X1682Y2D01*
X1681Y2D01*
X1680Y2D01*
X1679Y2D01*
X1678Y2D01*
X1677Y2D01*
X1676Y2D01*
X1675Y2D01*
X1674Y2D01*
X1673Y2D01*
X1672Y2D01*
X1671Y2D01*
X1670Y2D01*
X1669Y2D01*
X1668Y2D01*
X1667Y2D01*
X1666Y2D01*
X1665Y2D01*
X1664Y2D01*
X1663Y2D01*
X1662Y2D01*
X1661Y2D01*
X1660Y2D01*
X1659Y2D01*
X1658Y2D01*
X1657Y2D01*
X1656Y2D01*
X1655Y2D01*
X1654Y2D01*
X1653Y2D01*
X1652Y2D01*
X1651Y2D01*
X1650Y2D01*
X1649Y2D01*
X1648Y2D01*
X1647Y2D01*
X1646Y2D01*
X1645Y2D01*
X1644Y2D01*
X1643Y2D01*
X1642Y2D01*
X1641Y2D01*
X1640Y2D01*
X1639Y2D01*
X1638Y2D01*
X1637Y2D01*
X1636Y2D01*
X1635Y2D01*
X1634Y2D01*
X1633Y2D01*
X1632Y2D01*
X1631Y2D01*
X1630Y2D01*
X1629Y2D01*
X1628Y2D01*
X1627Y2D01*
X1626Y2D01*
X1625Y2D01*
X1624Y2D01*
X1623Y2D01*
X1622Y2D01*
X1621Y2D01*
X1620Y2D01*
X1619Y2D01*
X1618Y2D01*
X1617Y2D01*
X1616Y2D01*
X1615Y2D01*
X1614Y2D01*
X1613Y2D01*
X1612Y2D01*
X1611Y2D01*
X1610Y2D01*
X1609Y2D01*
X1608Y2D01*
X1607Y2D01*
X1606Y2D01*
X1605Y2D01*
X1604Y2D01*
X1603Y2D01*
X1602Y2D01*
X1601Y2D01*
X1600Y2D01*
X1599Y2D01*
X1598Y2D01*
X1597Y2D01*
X1596Y2D01*
X1595Y2D01*
X1594Y2D01*
X1593Y2D01*
X1592Y2D01*
X1591Y2D01*
X1590Y2D01*
X1589Y2D01*
X1588Y2D01*
X1587Y2D01*
X1586Y2D01*
X1585Y2D01*
X1584Y2D01*
X1583Y2D01*
X1582Y2D01*
X1581Y2D01*
X1580Y2D01*
X1579Y2D01*
X1578Y2D01*
X1577Y2D01*
X1576Y2D01*
X1575Y2D01*
X1574Y2D01*
X1573Y2D01*
X1572Y2D01*
X1571Y2D01*
X1570Y2D01*
X1569Y2D01*
X1568Y2D01*
X1567Y2D01*
X1566Y2D01*
X1565Y2D01*
X1564Y2D01*
X1563Y2D01*
X1562Y2D01*
X1561Y2D01*
X1560Y2D01*
X1559Y2D01*
X1558Y2D01*
X1557Y2D01*
X1556Y2D01*
X1555Y2D01*
X1554Y2D01*
X1553Y2D01*
X1552Y2D01*
X1551Y2D01*
X1550Y2D01*
X1549Y2D01*
X1548Y2D01*
X1547Y2D01*
X1546Y2D01*
X1545Y2D01*
X1544Y2D01*
X1543Y2D01*
X1542Y2D01*
X1541Y2D01*
X1540Y2D01*
X1539Y2D01*
X1538Y2D01*
X1537Y2D01*
X1536Y2D01*
X1535Y2D01*
X1534Y2D01*
X1533Y2D01*
X1532Y2D01*
X1531Y2D01*
X1530Y2D01*
X1529Y2D01*
X1528Y2D01*
X1527Y2D01*
X1526Y2D01*
X1525Y2D01*
X1524Y2D01*
X1523Y2D01*
X1522Y2D01*
X1521Y2D01*
X1520Y2D01*
X1519Y2D01*
X1518Y2D01*
X1517Y2D01*
X1516Y2D01*
X1515Y2D01*
X1514Y2D01*
X1513Y2D01*
X1512Y2D01*
X1511Y2D01*
X1510Y2D01*
X1509Y2D01*
X1508Y2D01*
X1507Y2D01*
X1506Y2D01*
X1505Y2D01*
X1504Y2D01*
X1503Y2D01*
X1502Y2D01*
X1501Y2D01*
X1500Y2D01*
X1499Y2D01*
X1498Y2D01*
X1497Y2D01*
X1496Y2D01*
X1495Y2D01*
X1494Y2D01*
X1493Y2D01*
X1492Y2D01*
X1491Y2D01*
X1490Y2D01*
X1489Y2D01*
X1488Y2D01*
X1487Y2D01*
X1486Y2D01*
X1485Y2D01*
X1484Y2D01*
X1483Y2D01*
X1482Y2D01*
X1481Y2D01*
X1480Y2D01*
X1479Y2D01*
X1478Y2D01*
X1477Y2D01*
X1476Y2D01*
X1475Y2D01*
X1474Y2D01*
X1473Y2D01*
X1472Y2D01*
X1471Y2D01*
X1470Y2D01*
X1469Y2D01*
X1468Y2D01*
X1467Y2D01*
X1466Y2D01*
X1465Y2D01*
X1464Y2D01*
X1463Y2D01*
X1462Y2D01*
X1461Y2D01*
X1460Y2D01*
X1459Y2D01*
X1458Y2D01*
X1457Y2D01*
X1456Y2D01*
X1455Y2D01*
X1454Y2D01*
X1453Y2D01*
X1452Y2D01*
X1451Y2D01*
X1450Y2D01*
X1449Y2D01*
X1448Y2D01*
X1447Y2D01*
X1446Y2D01*
X1445Y2D01*
X1444Y2D01*
X1443Y2D01*
X1442Y2D01*
X1441Y2D01*
X1440Y2D01*
X1439Y2D01*
X1438Y2D01*
X1437Y2D01*
X1436Y2D01*
X1435Y2D01*
X1434Y2D01*
X1433Y2D01*
X1432Y2D01*
X1431Y2D01*
X1430Y2D01*
X1429Y2D01*
X1428Y2D01*
X1427Y2D01*
X1426Y2D01*
X1425Y2D01*
X1424Y2D01*
X1423Y2D01*
X1422Y2D01*
X1421Y2D01*
X1420Y2D01*
X1419Y2D01*
X1418Y2D01*
X1417Y2D01*
X1416Y2D01*
X1415Y2D01*
X1414Y2D01*
X1413Y2D01*
X1412Y2D01*
X1411Y2D01*
X1410Y2D01*
X1409Y2D01*
X1408Y2D01*
X1407Y2D01*
X1406Y2D01*
X1405Y2D01*
X1404Y2D01*
X1403Y2D01*
X1402Y2D01*
X1401Y2D01*
X1400Y2D01*
X1399Y2D01*
X1398Y2D01*
X1397Y2D01*
X1396Y2D01*
X1395Y2D01*
X1394Y2D01*
X1393Y2D01*
X1392Y2D01*
X1391Y2D01*
X1390Y2D01*
X1389Y2D01*
X1388Y2D01*
X1387Y2D01*
X1386Y2D01*
X1385Y2D01*
X1384Y2D01*
X1383Y2D01*
X1382Y2D01*
X1381Y2D01*
X1380Y2D01*
X1379Y2D01*
X1378Y2D01*
X1377Y2D01*
X1376Y2D01*
X1375Y2D01*
X1374Y2D01*
X1373Y2D01*
X1372Y2D01*
X1371Y2D01*
X1370Y2D01*
X1369Y2D01*
X1368Y2D01*
X1367Y2D01*
X1366Y2D01*
X1365Y2D01*
X1364Y2D01*
X1363Y2D01*
X1362Y2D01*
X1361Y2D01*
X1360Y2D01*
X1359Y2D01*
X1358Y2D01*
X1357Y2D01*
X1356Y2D01*
X1355Y2D01*
X1354Y2D01*
X1353Y2D01*
X1352Y2D01*
X1351Y2D01*
X1350Y2D01*
X1349Y2D01*
X1348Y2D01*
X1347Y2D01*
X1346Y2D01*
X1345Y2D01*
X1344Y2D01*
X1343Y2D01*
X1342Y2D01*
X1341Y2D01*
X1340Y2D01*
X1339Y2D01*
X1338Y2D01*
X1337Y2D01*
X1336Y2D01*
X1335Y2D01*
X1334Y2D01*
X1333Y2D01*
X1332Y2D01*
X1331Y2D01*
X1330Y2D01*
X1329Y2D01*
X1328Y2D01*
X1327Y2D01*
X1326Y2D01*
X1325Y2D01*
X1324Y2D01*
X1323Y2D01*
X1322Y2D01*
X1321Y2D01*
X1320Y2D01*
X1319Y2D01*
X1318Y2D01*
X1317Y2D01*
X1316Y2D01*
X1315Y2D01*
X1314Y2D01*
X1313Y2D01*
X1312Y2D01*
X1311Y2D01*
X1310Y2D01*
X1309Y2D01*
X1308Y2D01*
X1307Y2D01*
X1306Y2D01*
X1305Y2D01*
X1304Y2D01*
X1303Y2D01*
X1302Y2D01*
X1301Y2D01*
X1300Y2D01*
X1299Y2D01*
X1298Y2D01*
X1297Y2D01*
X1296Y2D01*
X1295Y2D01*
X1294Y2D01*
X1293Y2D01*
X1292Y2D01*
X1291Y2D01*
X1290Y2D01*
X1289Y2D01*
X1288Y2D01*
X1287Y2D01*
X1286Y2D01*
X1285Y2D01*
X1284Y2D01*
X1283Y2D01*
X1282Y2D01*
X1281Y2D01*
X1280Y2D01*
X1279Y2D01*
X1278Y2D01*
X1277Y2D01*
X1276Y2D01*
X1275Y2D01*
X1274Y2D01*
X1273Y2D01*
X1272Y2D01*
X1271Y2D01*
X1270Y2D01*
X1269Y2D01*
X1268Y2D01*
X1267Y2D01*
X1266Y2D01*
X1265Y2D01*
X1264Y2D01*
X1263Y2D01*
X1262Y2D01*
X1261Y2D01*
X1260Y2D01*
X1259Y2D01*
X1258Y2D01*
X1257Y2D01*
X1256Y2D01*
X1255Y2D01*
X1254Y2D01*
X1253Y2D01*
X1252Y2D01*
X1251Y2D01*
X1250Y2D01*
X1249Y2D01*
X1248Y2D01*
X1247Y2D01*
X1246Y2D01*
X1245Y2D01*
X1244Y2D01*
X1243Y2D01*
X1242Y2D01*
X1241Y2D01*
X1240Y2D01*
X1239Y2D01*
X1238Y2D01*
X1237Y2D01*
X1236Y2D01*
X1235Y2D01*
X1234Y2D01*
X1233Y2D01*
X1232Y2D01*
X1231Y2D01*
X1230Y2D01*
X1229Y2D01*
X1228Y2D01*
X1227Y2D01*
X1226Y2D01*
X1225Y2D01*
X1224Y2D01*
X1223Y2D01*
X1222Y2D01*
X1221Y2D01*
X1220Y2D01*
X1219Y2D01*
X1218Y2D01*
X1217Y2D01*
X1216Y2D01*
X1215Y2D01*
X1214Y2D01*
X1213Y2D01*
X1212Y2D01*
X1211Y2D01*
X1210Y2D01*
X1209Y2D01*
X1208Y2D01*
X1207Y2D01*
X1206Y2D01*
X1205Y2D01*
X1204Y2D01*
X1203Y2D01*
X1202Y2D01*
X1201Y2D01*
X1200Y2D01*
X1199Y2D01*
X1198Y2D01*
X1197Y2D01*
X1196Y2D01*
X1195Y2D01*
X1194Y2D01*
X1193Y2D01*
X1192Y2D01*
X1191Y2D01*
X1190Y2D01*
X1189Y2D01*
X1188Y2D01*
X1187Y2D01*
X1186Y2D01*
X1185Y2D01*
X1184Y2D01*
X1183Y2D01*
X1182Y2D01*
X1181Y2D01*
X1180Y2D01*
X1179Y2D01*
X1178Y2D01*
X1177Y2D01*
X1176Y2D01*
X1175Y2D01*
X1174Y2D01*
X1173Y2D01*
X1172Y2D01*
X1171Y2D01*
X1170Y2D01*
X1169Y2D01*
X1168Y2D01*
X1167Y2D01*
X1166Y2D01*
X1165Y2D01*
X1164Y2D01*
X1163Y2D01*
X1162Y2D01*
X1161Y2D01*
X1160Y2D01*
X1159Y2D01*
X1158Y2D01*
X1157Y2D01*
X1156Y2D01*
X1155Y2D01*
X1154Y2D01*
X1153Y2D01*
X1152Y2D01*
X1151Y2D01*
X1150Y2D01*
X1149Y2D01*
X1148Y2D01*
X1147Y2D01*
X1146Y2D01*
X1145Y2D01*
X1144Y2D01*
X1143Y2D01*
X1142Y2D01*
X1141Y2D01*
X1140Y2D01*
X1139Y2D01*
X1138Y2D01*
X1137Y2D01*
X1136Y2D01*
X1135Y2D01*
X1134Y2D01*
X1133Y2D01*
X1132Y2D01*
X1131Y2D01*
X1130Y2D01*
X1129Y2D01*
X1128Y2D01*
X1127Y2D01*
X1126Y2D01*
X1125Y2D01*
X1124Y2D01*
X1123Y2D01*
X1122Y2D01*
X1121Y2D01*
X1120Y2D01*
X1119Y2D01*
X1118Y2D01*
X1117Y2D01*
X1116Y2D01*
X1115Y2D01*
X1114Y2D01*
X1113Y2D01*
X1112Y2D01*
X1111Y2D01*
X1110Y2D01*
X1109Y2D01*
X1108Y2D01*
X1107Y2D01*
X1106Y2D01*
X1105Y2D01*
X1104Y2D01*
X1103Y2D01*
X1102Y2D01*
X1101Y2D01*
X1100Y2D01*
X1099Y2D01*
X1098Y2D01*
X1097Y2D01*
X1096Y2D01*
X1095Y2D01*
X1094Y2D01*
X1093Y2D01*
X1092Y2D01*
X1091Y2D01*
X1090Y2D01*
X1089Y2D01*
X1088Y2D01*
X1087Y2D01*
X1086Y2D01*
X1085Y2D01*
X1084Y2D01*
X1083Y2D01*
X1082Y2D01*
X1081Y2D01*
X1080Y2D01*
X1079Y2D01*
X1078Y2D01*
X1077Y2D01*
X1076Y2D01*
X1075Y2D01*
X1074Y2D01*
X1073Y2D01*
X1072Y2D01*
X1071Y2D01*
X1070Y2D01*
X1069Y2D01*
X1068Y2D01*
X1067Y2D01*
X1066Y2D01*
X1065Y2D01*
X1064Y2D01*
X1063Y2D01*
X1062Y2D01*
X1061Y2D01*
X1060Y2D01*
X1059Y2D01*
X1058Y2D01*
X1057Y2D01*
X1056Y2D01*
X1055Y2D01*
X1054Y2D01*
X1053Y2D01*
X1052Y2D01*
X1051Y2D01*
X1050Y2D01*
X1049Y2D01*
X1048Y2D01*
X1047Y2D01*
X1046Y2D01*
X1045Y2D01*
X1044Y2D01*
X1043Y2D01*
X1042Y2D01*
X1041Y2D01*
X1040Y2D01*
X1039Y2D01*
X1038Y2D01*
X1037Y2D01*
X1036Y2D01*
X1035Y2D01*
X1034Y2D01*
X1033Y2D01*
X1032Y2D01*
X1031Y2D01*
X1030Y2D01*
X1029Y2D01*
X1028Y2D01*
X1027Y2D01*
X1026Y2D01*
X1025Y2D01*
X1024Y2D01*
X1023Y2D01*
X1022Y2D01*
X1021Y2D01*
X1020Y2D01*
X1019Y2D01*
X1018Y2D01*
X1017Y2D01*
X1016Y2D01*
X1015Y2D01*
X1014Y2D01*
X1013Y2D01*
X1012Y2D01*
X1011Y2D01*
X1010Y2D01*
X1009Y2D01*
X1008Y2D01*
X1007Y2D01*
X1006Y2D01*
X1005Y2D01*
X1004Y2D01*
X1003Y2D01*
X1002Y2D01*
X1001Y2D01*
X1000Y2D01*
X999Y2D01*
X998Y2D01*
X997Y2D01*
X996Y2D01*
X995Y2D01*
X994Y2D01*
X993Y2D01*
X992Y2D01*
X991Y2D01*
X990Y2D01*
X989Y2D01*
X988Y2D01*
X987Y2D01*
X986Y2D01*
X985Y2D01*
X984Y2D01*
X983Y2D01*
X982Y2D01*
X981Y2D01*
X980Y2D01*
X979Y2D01*
X978Y2D01*
X977Y2D01*
X976Y2D01*
X975Y2D01*
X974Y2D01*
X973Y2D01*
X972Y2D01*
X971Y2D01*
X970Y2D01*
X969Y2D01*
X968Y2D01*
X967Y2D01*
X966Y2D01*
X965Y2D01*
X964Y2D01*
X963Y2D01*
X962Y2D01*
X961Y2D01*
X960Y2D01*
X959Y2D01*
X958Y2D01*
X957Y2D01*
X956Y2D01*
X955Y2D01*
X954Y2D01*
X953Y2D01*
X952Y2D01*
X951Y2D01*
X950Y2D01*
X949Y2D01*
X948Y2D01*
X947Y2D01*
X946Y2D01*
X945Y2D01*
X944Y2D01*
X943Y2D01*
X942Y2D01*
X941Y2D01*
X940Y2D01*
X939Y2D01*
X938Y2D01*
X937Y2D01*
X936Y2D01*
X935Y2D01*
X934Y2D01*
X933Y2D01*
X932Y2D01*
X931Y2D01*
X930Y2D01*
X929Y2D01*
X928Y2D01*
X927Y2D01*
X926Y2D01*
X925Y2D01*
X924Y2D01*
X923Y2D01*
X922Y2D01*
X921Y2D01*
X920Y2D01*
X919Y2D01*
X918Y2D01*
X917Y2D01*
X916Y2D01*
X915Y2D01*
X914Y2D01*
X913Y2D01*
X912Y2D01*
X911Y2D01*
X910Y2D01*
X909Y2D01*
X908Y2D01*
X907Y2D01*
X906Y2D01*
X905Y2D01*
X904Y2D01*
X903Y2D01*
X902Y2D01*
X901Y2D01*
X900Y2D01*
X899Y2D01*
X898Y2D01*
X897Y2D01*
X896Y2D01*
X895Y2D01*
X894Y2D01*
X893Y2D01*
X892Y2D01*
X891Y2D01*
X890Y2D01*
X889Y2D01*
X888Y2D01*
X887Y2D01*
X886Y2D01*
X885Y2D01*
X884Y2D01*
X883Y2D01*
X882Y2D01*
X881Y2D01*
X880Y2D01*
X879Y2D01*
X878Y2D01*
X877Y2D01*
X876Y2D01*
X875Y2D01*
X874Y2D01*
X873Y2D01*
X872Y2D01*
X871Y2D01*
X870Y2D01*
X869Y2D01*
X868Y2D01*
X867Y2D01*
X866Y2D01*
X865Y2D01*
X864Y2D01*
X863Y2D01*
X862Y2D01*
X861Y2D01*
X860Y2D01*
X859Y2D01*
X858Y2D01*
X857Y2D01*
X856Y2D01*
X855Y2D01*
X854Y2D01*
X853Y2D01*
X852Y2D01*
X851Y2D01*
X850Y2D01*
X849Y2D01*
X848Y2D01*
X847Y2D01*
X846Y2D01*
X845Y2D01*
X844Y2D01*
X843Y2D01*
X842Y2D01*
X841Y2D01*
X840Y2D01*
X839Y2D01*
X838Y2D01*
X837Y2D01*
X836Y2D01*
X835Y2D01*
X834Y2D01*
X833Y2D01*
X832Y2D01*
X831Y2D01*
X830Y2D01*
X829Y2D01*
X828Y2D01*
X827Y2D01*
X826Y2D01*
X825Y2D01*
X824Y2D01*
X823Y2D01*
X822Y2D01*
X821Y2D01*
X820Y2D01*
X819Y2D01*
X818Y2D01*
X817Y2D01*
X816Y2D01*
X815Y2D01*
X814Y2D01*
X813Y2D01*
X812Y2D01*
X811Y2D01*
X810Y2D01*
X809Y2D01*
X808Y2D01*
X807Y2D01*
X806Y2D01*
X805Y2D01*
X804Y2D01*
X803Y2D01*
X802Y2D01*
X801Y2D01*
X800Y2D01*
X799Y2D01*
X798Y2D01*
X797Y2D01*
X796Y2D01*
X795Y2D01*
X794Y2D01*
X793Y2D01*
X792Y2D01*
X791Y2D01*
X790Y2D01*
X789Y2D01*
X788Y2D01*
X787Y2D01*
X786Y2D01*
X785Y2D01*
X784Y2D01*
X783Y2D01*
X782Y2D01*
X781Y2D01*
X780Y2D01*
X779Y2D01*
X778Y2D01*
X777Y2D01*
X776Y2D01*
X775Y2D01*
X774Y2D01*
X773Y2D01*
X772Y2D01*
X771Y2D01*
X770Y2D01*
X769Y2D01*
X768Y2D01*
X767Y2D01*
X766Y2D01*
X765Y2D01*
X764Y2D01*
X763Y2D01*
X762Y2D01*
X761Y2D01*
X760Y2D01*
X759Y2D01*
X758Y2D01*
X757Y2D01*
X756Y2D01*
X755Y2D01*
X754Y2D01*
X753Y2D01*
X752Y2D01*
X751Y2D01*
X750Y2D01*
X749Y2D01*
X748Y2D01*
X747Y2D01*
X746Y2D01*
X745Y2D01*
X744Y2D01*
X743Y2D01*
X742Y2D01*
X741Y2D01*
X740Y2D01*
X739Y2D01*
X738Y2D01*
X737Y2D01*
X736Y2D01*
X735Y2D01*
X734Y2D01*
X733Y2D01*
X732Y2D01*
X731Y2D01*
X730Y2D01*
X729Y2D01*
X728Y2D01*
X727Y2D01*
X726Y2D01*
X725Y2D01*
X724Y2D01*
X723Y2D01*
X722Y2D01*
X721Y2D01*
X720Y2D01*
X719Y2D01*
X718Y2D01*
X717Y2D01*
X716Y2D01*
X715Y2D01*
X714Y2D01*
X713Y2D01*
X712Y2D01*
X711Y2D01*
X710Y2D01*
X709Y2D01*
X708Y2D01*
X707Y2D01*
X706Y2D01*
X705Y2D01*
X704Y2D01*
X703Y2D01*
X702Y2D01*
X701Y2D01*
X700Y2D01*
X699Y2D01*
X698Y2D01*
X697Y2D01*
X696Y2D01*
X695Y2D01*
X694Y2D01*
X693Y2D01*
X692Y2D01*
X691Y2D01*
X690Y2D01*
X689Y2D01*
X688Y2D01*
X687Y2D01*
X686Y2D01*
X685Y2D01*
X684Y2D01*
X683Y2D01*
X682Y2D01*
X681Y2D01*
X680Y2D01*
X679Y2D01*
X678Y2D01*
X677Y2D01*
X676Y2D01*
X675Y2D01*
X674Y2D01*
X673Y2D01*
X672Y2D01*
X671Y2D01*
X670Y2D01*
X669Y2D01*
X668Y2D01*
X667Y2D01*
X666Y2D01*
X665Y2D01*
X664Y2D01*
X663Y2D01*
X662Y2D01*
X661Y2D01*
X660Y2D01*
X659Y2D01*
X658Y2D01*
X657Y2D01*
X656Y2D01*
X655Y2D01*
X654Y2D01*
X653Y2D01*
X652Y2D01*
X651Y2D01*
X650Y2D01*
X649Y2D01*
X648Y2D01*
X647Y2D01*
X646Y2D01*
X645Y2D01*
X644Y2D01*
X643Y2D01*
X642Y2D01*
X641Y2D01*
X640Y2D01*
X639Y2D01*
X638Y2D01*
X637Y2D01*
X636Y2D01*
X635Y2D01*
X634Y2D01*
X633Y2D01*
X632Y2D01*
X631Y2D01*
X630Y2D01*
X629Y2D01*
X628Y2D01*
X627Y2D01*
X626Y2D01*
X625Y2D01*
X624Y2D01*
X623Y2D01*
X622Y2D01*
X621Y2D01*
X620Y2D01*
X619Y2D01*
X618Y2D01*
X617Y2D01*
X616Y2D01*
X615Y2D01*
X614Y2D01*
X613Y2D01*
X612Y2D01*
X611Y2D01*
X610Y2D01*
X609Y2D01*
X608Y2D01*
X607Y2D01*
X606Y2D01*
X605Y2D01*
X604Y2D01*
X603Y2D01*
X602Y2D01*
X601Y2D01*
X600Y2D01*
X599Y2D01*
X598Y2D01*
X597Y2D01*
X596Y2D01*
X595Y2D01*
X594Y2D01*
X593Y2D01*
X592Y2D01*
X591Y2D01*
X590Y2D01*
X589Y2D01*
X588Y2D01*
X587Y2D01*
X586Y2D01*
X585Y2D01*
X584Y2D01*
X583Y2D01*
X582Y2D01*
X581Y2D01*
X580Y2D01*
X579Y2D01*
X578Y2D01*
X577Y2D01*
X576Y2D01*
X575Y2D01*
X574Y2D01*
X573Y2D01*
X572Y2D01*
X571Y2D01*
X570Y2D01*
X569Y2D01*
X568Y2D01*
X567Y2D01*
X566Y2D01*
X565Y2D01*
X564Y2D01*
X563Y2D01*
X562Y2D01*
X561Y2D01*
X560Y2D01*
X559Y2D01*
X558Y2D01*
X557Y2D01*
X556Y2D01*
X555Y2D01*
X554Y2D01*
X553Y2D01*
X552Y2D01*
X551Y2D01*
X550Y2D01*
X549Y2D01*
X548Y2D01*
X547Y2D01*
X546Y2D01*
X545Y2D01*
X544Y2D01*
X543Y2D01*
X542Y2D01*
X541Y2D01*
X540Y2D01*
X539Y2D01*
X538Y2D01*
X537Y2D01*
X536Y2D01*
X535Y2D01*
X534Y2D01*
X533Y2D01*
X532Y2D01*
X531Y2D01*
X530Y2D01*
X529Y2D01*
X528Y2D01*
X527Y2D01*
X526Y2D01*
X525Y2D01*
X524Y2D01*
X523Y2D01*
X522Y2D01*
X521Y2D01*
X520Y2D01*
X519Y2D01*
X518Y2D01*
X517Y2D01*
X516Y2D01*
X515Y2D01*
X514Y2D01*
X513Y2D01*
X512Y2D01*
X511Y2D01*
X510Y2D01*
X509Y2D01*
X508Y2D01*
X507Y2D01*
X506Y2D01*
X505Y2D01*
X504Y2D01*
X503Y2D01*
X502Y2D01*
X501Y2D01*
X500Y2D01*
X499Y2D01*
X498Y2D01*
X497Y2D01*
X496Y2D01*
X495Y2D01*
X494Y2D01*
X493Y2D01*
X492Y2D01*
X491Y2D01*
X490Y2D01*
X489Y2D01*
X488Y2D01*
X487Y2D01*
X486Y2D01*
X485Y2D01*
X484Y2D01*
X483Y2D01*
X482Y2D01*
X481Y2D01*
X480Y2D01*
X479Y2D01*
X478Y2D01*
X477Y2D01*
X476Y2D01*
X475Y2D01*
X474Y2D01*
X473Y2D01*
X472Y2D01*
X471Y2D01*
X470Y2D01*
X469Y2D01*
X468Y2D01*
X467Y2D01*
X466Y2D01*
X465Y2D01*
X464Y2D01*
X463Y2D01*
X462Y2D01*
X461Y2D01*
X460Y2D01*
X459Y2D01*
X458Y2D01*
X457Y2D01*
X456Y2D01*
X455Y2D01*
X454Y2D01*
X453Y2D01*
X452Y2D01*
X451Y2D01*
X450Y2D01*
X449Y2D01*
X448Y2D01*
X447Y2D01*
X446Y2D01*
X445Y2D01*
X444Y2D01*
X443Y2D01*
X442Y2D01*
X441Y2D01*
X440Y2D01*
X439Y2D01*
X438Y2D01*
X437Y2D01*
X436Y2D01*
X435Y2D01*
X434Y2D01*
X433Y2D01*
X432Y2D01*
X431Y2D01*
X430Y2D01*
X429Y2D01*
X428Y2D01*
X427Y2D01*
X426Y2D01*
X425Y2D01*
X424Y2D01*
X423Y2D01*
X422Y2D01*
X421Y2D01*
X420Y2D01*
X419Y2D01*
X418Y2D01*
X417Y2D01*
X416Y2D01*
X415Y2D01*
X414Y2D01*
X413Y2D01*
X412Y2D01*
X411Y2D01*
X410Y2D01*
X409Y2D01*
X408Y2D01*
X407Y2D01*
X406Y2D01*
X405Y2D01*
X404Y2D01*
X403Y2D01*
X402Y2D01*
X401Y2D01*
X400Y2D01*
X399Y2D01*
X398Y2D01*
X397Y2D01*
X396Y2D01*
X395Y2D01*
X394Y2D01*
X393Y2D01*
X392Y2D01*
X391Y2D01*
X390Y2D01*
X389Y2D01*
X388Y2D01*
X387Y2D01*
X386Y2D01*
X385Y2D01*
X384Y2D01*
X383Y2D01*
X382Y2D01*
X381Y2D01*
X380Y2D01*
X379Y2D01*
X378Y2D01*
X377Y2D01*
X376Y2D01*
X375Y2D01*
X374Y2D01*
X373Y2D01*
X372Y2D01*
X371Y2D01*
X370Y2D01*
X369Y2D01*
X368Y2D01*
X367Y3D01*
X366Y3D01*
X365Y3D01*
X364Y3D01*
X363Y3D01*
X362Y3D01*
X361Y3D01*
X360Y3D01*
X359Y3D01*
X358Y3D01*
X357Y3D01*
X356Y3D01*
X355Y3D01*
X354Y3D01*
X353Y4D01*
X352Y4D01*
X351Y4D01*
X350Y4D01*
X349Y4D01*
X348Y4D01*
X347Y4D01*
X346Y4D01*
X345Y4D01*
X344Y4D01*
X343Y5D01*
X342Y5D01*
X341Y5D01*
X340Y5D01*
X339Y5D01*
X338Y5D01*
X337Y5D01*
X336Y5D01*
X335Y6D01*
X334Y6D01*
X333Y6D01*
X332Y6D01*
X331Y6D01*
X330Y6D01*
X329Y6D01*
X328Y7D01*
X327Y7D01*
X326Y7D01*
X325Y7D01*
X324Y7D01*
X323Y7D01*
X322Y8D01*
X321Y8D01*
X320Y8D01*
X319Y8D01*
X318Y8D01*
X317Y8D01*
X316Y9D01*
X315Y9D01*
X314Y9D01*
X313Y9D01*
X312Y9D01*
X311Y10D01*
X310Y10D01*
X309Y10D01*
X308Y10D01*
X307Y10D01*
X306Y11D01*
X305Y11D01*
X304Y11D01*
X303Y11D01*
X302Y12D01*
X301Y12D01*
X300Y12D01*
X299Y12D01*
X298Y13D01*
X297Y13D01*
X296Y13D01*
X295Y13D01*
X294Y14D01*
X293Y14D01*
X292Y14D01*
X291Y14D01*
X290Y15D01*
X289Y15D01*
X288Y15D01*
X287Y15D01*
X286Y16D01*
X285Y16D01*
X284Y16D01*
X283Y16D01*
X282Y17D01*
X281Y17D01*
X280Y17D01*
X279Y18D01*
X278Y18D01*
X277Y18D01*
X276Y19D01*
X275Y19D01*
X274Y19D01*
X273Y19D01*
X272Y20D01*
X271Y20D01*
X270Y20D01*
X269Y21D01*
X268Y21D01*
X267Y21D01*
X266Y22D01*
X265Y22D01*
X264Y22D01*
X263Y23D01*
X262Y23D01*
X261Y24D01*
X260Y24D01*
X259Y24D01*
X258Y25D01*
X257Y25D01*
X256Y25D01*
X255Y26D01*
X254Y26D01*
X253Y26D01*
X252Y27D01*
X251Y27D01*
X250Y28D01*
X249Y28D01*
X248Y28D01*
X247Y29D01*
X246Y29D01*
X245Y30D01*
X244Y30D01*
X243Y30D01*
X242Y31D01*
X241Y31D01*
X240Y32D01*
X239Y32D01*
X238Y32D01*
X237Y33D01*
X236Y33D01*
X235Y34D01*
X234Y34D01*
X233Y35D01*
X232Y35D01*
X231Y35D01*
X230Y36D01*
X229Y36D01*
X228Y37D01*
X227Y37D01*
X226Y38D01*
X225Y38D01*
X224Y39D01*
X223Y39D01*
X222Y40D01*
X221Y40D01*
X220Y41D01*
X219Y41D01*
X218Y41D01*
X217Y42D01*
X216Y43D01*
X215Y43D01*
X214Y44D01*
X213Y44D01*
X212Y45D01*
X211Y45D01*
X210Y46D01*
X209Y46D01*
X208Y47D01*
X207Y47D01*
X206Y48D01*
X205Y48D01*
X204Y49D01*
X203Y49D01*
X202Y50D01*
X201Y50D01*
X200Y51D01*
X199Y52D01*
X198Y52D01*
X197Y53D01*
X196Y53D01*
X195Y54D01*
X194Y55D01*
X193Y55D01*
X192Y56D01*
X191Y56D01*
X190Y57D01*
X189Y57D01*
X188Y58D01*
X187Y59D01*
X186Y59D01*
X185Y60D01*
X184Y61D01*
X183Y61D01*
X182Y62D01*
X181Y62D01*
X180Y63D01*
X179Y64D01*
X178Y64D01*
X177Y65D01*
X176Y66D01*
X175Y66D01*
X174Y67D01*
X173Y68D01*
X172Y68D01*
X171Y69D01*
X170Y70D01*
X169Y70D01*
X168Y71D01*
X167Y72D01*
X166Y73D01*
X165Y73D01*
X164Y74D01*
X163Y75D01*
X162Y75D01*
X161Y76D01*
X160Y77D01*
X159Y78D01*
X158Y78D01*
X157Y79D01*
X156Y80D01*
X155Y81D01*
X154Y81D01*
X153Y82D01*
X152Y83D01*
X151Y84D01*
X150Y85D01*
X149Y85D01*
X148Y86D01*
X147Y87D01*
X146Y88D01*
X145Y89D01*
X144Y89D01*
X143Y90D01*
X142Y91D01*
X141Y92D01*
X140Y93D01*
X139Y93D01*
X138Y94D01*
X137Y95D01*
X136Y96D01*
X135Y97D01*
X134Y98D01*
X133Y99D01*
X132Y100D01*
X131Y100D01*
X130Y101D01*
X129Y102D01*
X128Y103D01*
X127Y104D01*
X126Y105D01*
X125Y106D01*
X124Y107D01*
X123Y108D01*
X122Y109D01*
X121Y110D01*
X120Y111D01*
X119Y112D01*
X118Y113D01*
X117Y114D01*
X116Y115D01*
X115Y116D01*
X114Y117D01*
X113Y118D01*
X112Y119D01*
X111Y120D01*
X110Y121D01*
X109Y122D01*
X108Y123D01*
X107Y124D01*
X106Y125D01*
X105Y126D01*
X104Y127D01*
X103Y128D01*
X102Y129D01*
X101Y130D01*
X100Y131D01*
X100Y132D01*
X99Y133D01*
X98Y134D01*
X97Y135D01*
X96Y136D01*
X95Y137D01*
X94Y138D01*
X94Y139D01*
X93Y140D01*
X92Y141D01*
X91Y142D01*
X90Y143D01*
X89Y144D01*
X89Y145D01*
X88Y146D01*
X87Y147D01*
X86Y148D01*
X85Y149D01*
X85Y150D01*
X84Y151D01*
X83Y152D01*
X82Y153D01*
X82Y154D01*
X81Y155D01*
X80Y156D01*
X79Y157D01*
X79Y158D01*
X78Y159D01*
X77Y160D01*
X76Y161D01*
X76Y162D01*
X75Y163D01*
X74Y164D01*
X74Y165D01*
X73Y166D01*
X72Y167D01*
X71Y168D01*
X71Y169D01*
X70Y170D01*
X69Y171D01*
X69Y172D01*
X68Y173D01*
X67Y174D01*
X67Y175D01*
X66Y176D01*
X65Y177D01*
X65Y178D01*
X64Y179D01*
X63Y180D01*
X63Y181D01*
X62Y182D01*
X61Y183D01*
X61Y184D01*
X60Y185D01*
X60Y186D01*
X59Y187D01*
X58Y188D01*
X58Y189D01*
X57Y190D01*
X56Y191D01*
X56Y192D01*
X55Y193D01*
X55Y194D01*
X54Y195D01*
X54Y196D01*
X53Y197D01*
X52Y198D01*
X52Y199D01*
X51Y200D01*
X51Y201D01*
X50Y202D01*
X50Y203D01*
X49Y204D01*
X49Y205D01*
X48Y206D01*
X47Y207D01*
X47Y208D01*
X46Y209D01*
X46Y210D01*
X45Y211D01*
X45Y212D01*
X44Y213D01*
X44Y214D01*
X43Y215D01*
X43Y216D01*
X42Y217D01*
X42Y218D01*
X41Y219D01*
X41Y220D01*
X40Y221D01*
X40Y222D01*
X39Y223D01*
X39Y224D01*
X38Y225D01*
X38Y226D01*
X37Y227D01*
X37Y229D01*
X36Y230D01*
X36Y231D01*
X35Y232D01*
X35Y233D01*
X34Y234D01*
X34Y235D01*
X33Y236D01*
X33Y238D01*
X32Y239D01*
X32Y240D01*
X31Y241D01*
X31Y242D01*
X30Y243D01*
X30Y245D01*
X29Y246D01*
X29Y247D01*
X28Y248D01*
X28Y250D01*
X27Y251D01*
X27Y252D01*
X26Y253D01*
X26Y255D01*
X25Y256D01*
X25Y258D01*
X24Y259D01*
X24Y260D01*
X23Y261D01*
X23Y263D01*
X22Y264D01*
X22Y266D01*
X21Y267D01*
X21Y269D01*
X20Y270D01*
X20Y272D01*
X19Y273D01*
X19Y275D01*
X18Y276D01*
X18Y278D01*
X17Y279D01*
X17Y282D01*
X16Y283D01*
X16Y285D01*
X15Y286D01*
X15Y288D01*
X14Y289D01*
X14Y292D01*
X13Y293D01*
X13Y296D01*
X12Y297D01*
X12Y300D01*
X11Y301D01*
X11Y304D01*
X10Y305D01*
X10Y309D01*
X9Y310D01*
X9Y313D01*
X8Y314D01*
X8Y318D01*
X7Y319D01*
X7Y324D01*
X6Y325D01*
X6Y329D01*
X5Y330D01*
X5Y335D01*
X4Y336D01*
X4Y343D01*
X3Y344D01*
X3Y351D01*
X2Y352D01*
X2Y361D01*
X1Y362D01*
X1Y375D01*
X0Y376D01*
X0Y3031D01*
X1Y3032D01*
X1Y3045D01*
X2Y3046D01*
X2Y3055D01*
X3Y3056D01*
X3Y3063D01*
X4Y3064D01*
X4Y3071D01*
X5Y3072D01*
X5Y3077D01*
X6Y3078D01*
X6Y3082D01*
X7Y3083D01*
X7Y3088D01*
X8Y3089D01*
X8Y3093D01*
X9Y3094D01*
X9Y3097D01*
X10Y3098D01*
X10Y3102D01*
X11Y3103D01*
X11Y3106D01*
X12Y3107D01*
X12Y3110D01*
X13Y3111D01*
X13Y3114D01*
X14Y3115D01*
X14Y3118D01*
X15Y3119D01*
X15Y3121D01*
X16Y3122D01*
X16Y3124D01*
X17Y3125D01*
X17Y3128D01*
X18Y3129D01*
X18Y3131D01*
X19Y3132D01*
X19Y3134D01*
X20Y3135D01*
X20Y3137D01*
X21Y3138D01*
X21Y3140D01*
X22Y3141D01*
X22Y3143D01*
X23Y3144D01*
X23Y3146D01*
X24Y3147D01*
X24Y3148D01*
X25Y3149D01*
X25Y3151D01*
X26Y3152D01*
X26Y3154D01*
X27Y3155D01*
X27Y3156D01*
X28Y3157D01*
X28Y3159D01*
X29Y3160D01*
X29Y3161D01*
X30Y3162D01*
X30Y3164D01*
X31Y3165D01*
X31Y3166D01*
X32Y3167D01*
X32Y3168D01*
X33Y3169D01*
X33Y3171D01*
X34Y3172D01*
X34Y3173D01*
X35Y3174D01*
X35Y3175D01*
X36Y3176D01*
X36Y3177D01*
X37Y3178D01*
X37Y3180D01*
X38Y3181D01*
X38Y3182D01*
X39Y3183D01*
X39Y3184D01*
X40Y3185D01*
X40Y3186D01*
X41Y3187D01*
X41Y3188D01*
X42Y3189D01*
X42Y3190D01*
X43Y3191D01*
X43Y3192D01*
X44Y3193D01*
X44Y3194D01*
X45Y3195D01*
X45Y3196D01*
X46Y3197D01*
X46Y3198D01*
X47Y3199D01*
X47Y3200D01*
X48Y3201D01*
X49Y3202D01*
X49Y3203D01*
X50Y3204D01*
X50Y3205D01*
X51Y3206D01*
X51Y3207D01*
X52Y3208D01*
X52Y3209D01*
X53Y3210D01*
X54Y3211D01*
X54Y3212D01*
X55Y3213D01*
X55Y3214D01*
X56Y3215D01*
X56Y3216D01*
X57Y3217D01*
X58Y3218D01*
X58Y3219D01*
X59Y3220D01*
X60Y3221D01*
X60Y3222D01*
X61Y3223D01*
X61Y3224D01*
X62Y3225D01*
X63Y3226D01*
X63Y3227D01*
X64Y3228D01*
X65Y3229D01*
X65Y3230D01*
X66Y3231D01*
X67Y3232D01*
X67Y3233D01*
X68Y3234D01*
X69Y3235D01*
X69Y3236D01*
X70Y3237D01*
X71Y3238D01*
X71Y3239D01*
X72Y3240D01*
X73Y3241D01*
X74Y3242D01*
X74Y3243D01*
X75Y3244D01*
X76Y3245D01*
X76Y3246D01*
X77Y3247D01*
X78Y3248D01*
X79Y3249D01*
X79Y3250D01*
X80Y3251D01*
X81Y3252D01*
X82Y3253D01*
X82Y3254D01*
X83Y3255D01*
X84Y3256D01*
X85Y3257D01*
X85Y3258D01*
X86Y3259D01*
X87Y3260D01*
X88Y3261D01*
X89Y3262D01*
X89Y3263D01*
X90Y3264D01*
X91Y3265D01*
X92Y3266D01*
X93Y3267D01*
X94Y3268D01*
X94Y3269D01*
X95Y3270D01*
X96Y3271D01*
X97Y3272D01*
X98Y3273D01*
X99Y3274D01*
X100Y3275D01*
X100Y3276D01*
X101Y3277D01*
X102Y3278D01*
X103Y3279D01*
X104Y3280D01*
X105Y3281D01*
X106Y3282D01*
X107Y3283D01*
X108Y3284D01*
X109Y3285D01*
X110Y3286D01*
X111Y3287D01*
X112Y3288D01*
X113Y3289D01*
X114Y3290D01*
X115Y3291D01*
X116Y3292D01*
X117Y3293D01*
X118Y3294D01*
X119Y3295D01*
X120Y3296D01*
X121Y3297D01*
X122Y3298D01*
X123Y3299D01*
X124Y3300D01*
X125Y3301D01*
X126Y3302D01*
X127Y3303D01*
X128Y3304D01*
X129Y3305D01*
X130Y3306D01*
X131Y3307D01*
X132Y3307D01*
X133Y3308D01*
X134Y3309D01*
X135Y3310D01*
X136Y3311D01*
X137Y3312D01*
X138Y3313D01*
X139Y3314D01*
X140Y3314D01*
X141Y3315D01*
X142Y3316D01*
X143Y3317D01*
X144Y3318D01*
X145Y3318D01*
X146Y3319D01*
X147Y3320D01*
X148Y3321D01*
X149Y3322D01*
X150Y3322D01*
X151Y3323D01*
X152Y3324D01*
X153Y3325D01*
X154Y3326D01*
X155Y3326D01*
X156Y3327D01*
X157Y3328D01*
X158Y3329D01*
X159Y3329D01*
X160Y3330D01*
X161Y3331D01*
X162Y3332D01*
X163Y3332D01*
X164Y3333D01*
X165Y3334D01*
X166Y3334D01*
X167Y3335D01*
X168Y3336D01*
X169Y3337D01*
X170Y3337D01*
X171Y3338D01*
X172Y3339D01*
X173Y3339D01*
X174Y3340D01*
X175Y3341D01*
X176Y3341D01*
X177Y3342D01*
X178Y3343D01*
X179Y3343D01*
X180Y3344D01*
X181Y3345D01*
X182Y3345D01*
X183Y3346D01*
X184Y3346D01*
X185Y3347D01*
X186Y3348D01*
X187Y3348D01*
X188Y3349D01*
X189Y3350D01*
X190Y3350D01*
X191Y3351D01*
X192Y3351D01*
X193Y3352D01*
X194Y3352D01*
X195Y3353D01*
X196Y3354D01*
X197Y3354D01*
X198Y3355D01*
X199Y3355D01*
X200Y3356D01*
X201Y3357D01*
X202Y3357D01*
X203Y3358D01*
X204Y3358D01*
X205Y3359D01*
X206Y3359D01*
X207Y3360D01*
X208Y3360D01*
X209Y3361D01*
X210Y3361D01*
X211Y3362D01*
X212Y3362D01*
X213Y3363D01*
X214Y3363D01*
X215Y3364D01*
X216Y3364D01*
X217Y3365D01*
X218Y3366D01*
X219Y3366D01*
X220Y3366D01*
X221Y3367D01*
X222Y3367D01*
X223Y3368D01*
X224Y3368D01*
X225Y3369D01*
X226Y3369D01*
X227Y3370D01*
X228Y3370D01*
X229Y3371D01*
X230Y3371D01*
X231Y3372D01*
X232Y3372D01*
X233Y3372D01*
X234Y3373D01*
X235Y3373D01*
X236Y3374D01*
X237Y3374D01*
X238Y3375D01*
X239Y3375D01*
X240Y3375D01*
X241Y3376D01*
X242Y3376D01*
X243Y3377D01*
X244Y3377D01*
X245Y3377D01*
X246Y3378D01*
X247Y3378D01*
X248Y3379D01*
X249Y3379D01*
X250Y3379D01*
X251Y3380D01*
X252Y3380D01*
X253Y3381D01*
X254Y3381D01*
X255Y3381D01*
X256Y3382D01*
X257Y3382D01*
X258Y3382D01*
X259Y3383D01*
X260Y3383D01*
X261Y3383D01*
X262Y3384D01*
X263Y3384D01*
X264Y3385D01*
X265Y3385D01*
X266Y3385D01*
X267Y3386D01*
X268Y3386D01*
X269Y3386D01*
X270Y3387D01*
X271Y3387D01*
X272Y3387D01*
X273Y3388D01*
X274Y3388D01*
X275Y3388D01*
X276Y3388D01*
X277Y3389D01*
X278Y3389D01*
X279Y3389D01*
X280Y3390D01*
X281Y3390D01*
X282Y3390D01*
X283Y3391D01*
X284Y3391D01*
X285Y3391D01*
X286Y3391D01*
X287Y3392D01*
X288Y3392D01*
X289Y3392D01*
X290Y3392D01*
X291Y3393D01*
X292Y3393D01*
X293Y3393D01*
X294Y3393D01*
X295Y3394D01*
X296Y3394D01*
X297Y3394D01*
X298Y3394D01*
X299Y3395D01*
X300Y3395D01*
X301Y3395D01*
X302Y3395D01*
X303Y3396D01*
X304Y3396D01*
X305Y3396D01*
X306Y3396D01*
X307Y3397D01*
X308Y3397D01*
X309Y3397D01*
X310Y3397D01*
X311Y3397D01*
X312Y3398D01*
X313Y3398D01*
X314Y3398D01*
X315Y3398D01*
X316Y3398D01*
X317Y3399D01*
X318Y3399D01*
X319Y3399D01*
X320Y3399D01*
X321Y3399D01*
X322Y3399D01*
X323Y3400D01*
X324Y3400D01*
X325Y3400D01*
X326Y3400D01*
X327Y3400D01*
X328Y3400D01*
X329Y3401D01*
X330Y3401D01*
X331Y3401D01*
X332Y3401D01*
X333Y3401D01*
X334Y3401D01*
X335Y3401D01*
X336Y3402D01*
X337Y3402D01*
X338Y3402D01*
X339Y3402D01*
X340Y3402D01*
X341Y3402D01*
X342Y3402D01*
X343Y3402D01*
X344Y3403D01*
X345Y3403D01*
X346Y3403D01*
X347Y3403D01*
X348Y3403D01*
X349Y3403D01*
X350Y3403D01*
X351Y3403D01*
X352Y3403D01*
X353Y3403D01*
X354Y3404D01*
X355Y3404D01*
X356Y3404D01*
X357Y3404D01*
X358Y3404D01*
X359Y3404D01*
X360Y3404D01*
X361Y3404D01*
X362Y3404D01*
X363Y3404D01*
X364Y3404D01*
X365Y3404D01*
X366Y3404D01*
X367Y3404D01*
X368Y3405D01*
D02*
G04 End of contour*
M02*