; NON-PLATED HOLES START AT T1
; THROUGH (PLATED) HOLES START AT T100
M48
INCH
T1C0.196850
T100C0.038000
T101C0.035000
T102C0.094488
T103C0.069562
%
T1
X003270Y030892
X052270Y030892
T100
X002270Y003892
X002270Y002892
X002270Y004892
T101
X043270Y030892
X042270Y002892
X048270Y005892
X010270Y030892
X052270Y005892
X027270Y002892
X024270Y030892
X002270Y014892
X049270Y014892
X049270Y018892
X048270Y024892
X039270Y030892
X028270Y030892
X002270Y010892
X048270Y028892
X014270Y030892
X014270Y002892
X010270Y002892
X038270Y002892
X023270Y002892
T102
X019467Y002892
X006467Y002892
X008467Y030892
X022467Y030892
X051270Y018695
X020467Y030892
X003270Y017089
X036270Y002892
X021467Y002892
X036467Y030892
X003270Y019089
X051270Y016695
X006467Y030892
X047467Y030892
X008467Y002892
X034270Y002892
X049467Y002892
X047467Y002892
X034467Y030892
X049467Y030892
T103
X003270Y022955
X003270Y026892
T00
M30
