G04 MADE WITH FRITZING*
G04 WWW.FRITZING.ORG*
G04 DOUBLE SIDED*
G04 HOLES PLATED*
G04 CONTOUR ON CENTER OF CONTOUR VECTOR*
%ASAXBY*%
%FSLAX23Y23*%
%MOIN*%
%OFA0B0*%
%SFA1.0B1.0*%
%ADD10C,0.085437*%
%ADD11C,0.145669*%
%ADD12C,0.078000*%
%ADD13C,0.075000*%
%ADD14R,0.078000X0.078000*%
%ADD15C,0.024000*%
%ADD16R,0.001000X0.001000*%
%LNCOPPER1*%
G90*
G70*
G54D10*
X327Y2296D03*
X327Y2689D03*
G54D11*
X4747Y3089D03*
X4947Y3089D03*
X4747Y3089D03*
X4947Y3089D03*
X4747Y3089D03*
X4947Y3089D03*
X3447Y3089D03*
X3647Y3089D03*
X3447Y3089D03*
X3647Y3089D03*
X3447Y3089D03*
X3647Y3089D03*
X2047Y3089D03*
X2247Y3089D03*
X2047Y3089D03*
X2247Y3089D03*
X2047Y3089D03*
X2247Y3089D03*
X647Y3089D03*
X847Y3089D03*
X647Y3089D03*
X847Y3089D03*
X647Y3089D03*
X847Y3089D03*
X327Y1709D03*
X327Y1909D03*
X327Y1709D03*
X327Y1909D03*
X327Y1709D03*
X327Y1909D03*
X647Y289D03*
X847Y289D03*
X647Y289D03*
X847Y289D03*
X647Y289D03*
X847Y289D03*
X1947Y289D03*
X2147Y289D03*
X1947Y289D03*
X2147Y289D03*
X1947Y289D03*
X2147Y289D03*
X3427Y289D03*
X3627Y289D03*
X3427Y289D03*
X3627Y289D03*
X3427Y289D03*
X3627Y289D03*
X4747Y289D03*
X4947Y289D03*
X4747Y289D03*
X4947Y289D03*
X4747Y289D03*
X4947Y289D03*
X5127Y1870D03*
X5127Y1670D03*
X5127Y1870D03*
X5127Y1670D03*
X5127Y1870D03*
X5127Y1670D03*
G54D12*
X227Y489D03*
X227Y389D03*
X227Y289D03*
G54D13*
X1427Y3089D03*
X1027Y3089D03*
X2827Y3089D03*
X2427Y3089D03*
X4327Y3089D03*
X3927Y3089D03*
X4827Y2489D03*
X4827Y2889D03*
X4927Y1489D03*
X4927Y1889D03*
X227Y1089D03*
X227Y1489D03*
X4827Y589D03*
X5227Y589D03*
X4227Y289D03*
X3827Y289D03*
X2327Y289D03*
X2727Y289D03*
X1427Y289D03*
X1027Y289D03*
G54D14*
X227Y489D03*
G54D15*
X4769Y3035D02*
X4816Y2916D01*
D02*
X2087Y3047D02*
X2148Y2985D01*
X2148Y2985D02*
X2340Y2985D01*
X2340Y2985D02*
X2409Y3067D01*
D02*
X684Y3044D02*
X732Y2985D01*
D02*
X732Y2985D02*
X948Y2985D01*
D02*
X948Y2985D02*
X1010Y3066D01*
D02*
X3486Y3046D02*
X3540Y2985D01*
X3540Y2985D02*
X3756Y2985D01*
X3756Y2985D02*
X3903Y3074D01*
D02*
X239Y1515D02*
X303Y1656D01*
D02*
X684Y334D02*
X732Y393D01*
D02*
X732Y393D02*
X948Y393D01*
D02*
X948Y393D02*
X1010Y312D01*
D02*
X4801Y576D02*
X4253Y302D01*
D02*
X2855Y3083D02*
X3492Y2937D01*
X3492Y2937D02*
X3900Y2937D01*
X3900Y2937D02*
X4300Y3080D01*
D02*
X1403Y305D02*
X251Y1073D01*
D02*
X2309Y312D02*
X2244Y393D01*
X2244Y393D02*
X1860Y393D01*
X1860Y393D02*
X1455Y296D01*
D02*
X1455Y3095D02*
X2004Y3201D01*
X2004Y3201D02*
X2340Y3201D01*
X2340Y3201D02*
X2799Y3096D01*
D02*
X370Y2705D02*
X1400Y3079D01*
D02*
X4937Y347D02*
X4884Y657D01*
X4884Y657D02*
X4740Y657D01*
X4740Y657D02*
X3682Y308D01*
D02*
X5113Y1613D02*
X4884Y657D01*
D02*
X4950Y3031D02*
X5028Y1809D01*
X5028Y1809D02*
X5093Y1717D01*
D02*
X3701Y3110D02*
X3876Y3177D01*
X3876Y3177D02*
X4668Y3201D01*
X4668Y3201D02*
X4908Y3153D01*
X4908Y3153D02*
X4916Y3139D01*
D02*
X129Y891D02*
X129Y2089D01*
D02*
X129Y2089D02*
X295Y2262D01*
D02*
X221Y419D02*
X129Y891D01*
G54D16*
X774Y3162D02*
X919Y3162D01*
X2174Y3162D02*
X2318Y3162D01*
X3574Y3162D02*
X3718Y3162D01*
X4873Y3162D02*
X5018Y3162D01*
X774Y3161D02*
X919Y3161D01*
X2174Y3161D02*
X2318Y3161D01*
X3574Y3161D02*
X3718Y3161D01*
X4873Y3161D02*
X5018Y3161D01*
X774Y3160D02*
X919Y3160D01*
X2174Y3160D02*
X2318Y3160D01*
X3574Y3160D02*
X3718Y3160D01*
X4873Y3160D02*
X5018Y3160D01*
X774Y3159D02*
X919Y3159D01*
X2174Y3159D02*
X2318Y3159D01*
X3574Y3159D02*
X3718Y3159D01*
X4873Y3159D02*
X5018Y3159D01*
X774Y3158D02*
X919Y3158D01*
X2174Y3158D02*
X2318Y3158D01*
X3574Y3158D02*
X3718Y3158D01*
X4873Y3158D02*
X5018Y3158D01*
X774Y3157D02*
X919Y3157D01*
X2174Y3157D02*
X2318Y3157D01*
X3574Y3157D02*
X3718Y3157D01*
X4873Y3157D02*
X5018Y3157D01*
X774Y3156D02*
X919Y3156D01*
X2174Y3156D02*
X2318Y3156D01*
X3574Y3156D02*
X3718Y3156D01*
X4873Y3156D02*
X5018Y3156D01*
X774Y3155D02*
X919Y3155D01*
X2174Y3155D02*
X2318Y3155D01*
X3574Y3155D02*
X3718Y3155D01*
X4873Y3155D02*
X5018Y3155D01*
X774Y3154D02*
X919Y3154D01*
X2174Y3154D02*
X2318Y3154D01*
X3574Y3154D02*
X3718Y3154D01*
X4873Y3154D02*
X5018Y3154D01*
X774Y3153D02*
X919Y3153D01*
X2174Y3153D02*
X2318Y3153D01*
X3574Y3153D02*
X3718Y3153D01*
X4873Y3153D02*
X5018Y3153D01*
X774Y3152D02*
X919Y3152D01*
X2174Y3152D02*
X2318Y3152D01*
X3574Y3152D02*
X3718Y3152D01*
X4873Y3152D02*
X5018Y3152D01*
X774Y3151D02*
X919Y3151D01*
X2174Y3151D02*
X2318Y3151D01*
X3574Y3151D02*
X3718Y3151D01*
X4873Y3151D02*
X5018Y3151D01*
X774Y3150D02*
X919Y3150D01*
X2174Y3150D02*
X2318Y3150D01*
X3574Y3150D02*
X3718Y3150D01*
X4873Y3150D02*
X5018Y3150D01*
X774Y3149D02*
X919Y3149D01*
X2174Y3149D02*
X2318Y3149D01*
X3574Y3149D02*
X3718Y3149D01*
X4873Y3149D02*
X5018Y3149D01*
X774Y3148D02*
X919Y3148D01*
X2174Y3148D02*
X2318Y3148D01*
X3574Y3148D02*
X3718Y3148D01*
X4873Y3148D02*
X5018Y3148D01*
X774Y3147D02*
X919Y3147D01*
X2174Y3147D02*
X2318Y3147D01*
X3574Y3147D02*
X3718Y3147D01*
X4873Y3147D02*
X5018Y3147D01*
X774Y3146D02*
X919Y3146D01*
X2174Y3146D02*
X2318Y3146D01*
X3574Y3146D02*
X3718Y3146D01*
X4873Y3146D02*
X5018Y3146D01*
X774Y3145D02*
X919Y3145D01*
X2174Y3145D02*
X2318Y3145D01*
X3574Y3145D02*
X3718Y3145D01*
X4873Y3145D02*
X5018Y3145D01*
X774Y3144D02*
X919Y3144D01*
X2174Y3144D02*
X2318Y3144D01*
X3574Y3144D02*
X3718Y3144D01*
X4873Y3144D02*
X5018Y3144D01*
X774Y3143D02*
X919Y3143D01*
X2174Y3143D02*
X2318Y3143D01*
X3574Y3143D02*
X3718Y3143D01*
X4873Y3143D02*
X5018Y3143D01*
X774Y3142D02*
X919Y3142D01*
X2174Y3142D02*
X2318Y3142D01*
X3574Y3142D02*
X3718Y3142D01*
X4873Y3142D02*
X5018Y3142D01*
X774Y3141D02*
X919Y3141D01*
X2174Y3141D02*
X2318Y3141D01*
X3574Y3141D02*
X3718Y3141D01*
X4873Y3141D02*
X5018Y3141D01*
X774Y3140D02*
X919Y3140D01*
X2174Y3140D02*
X2318Y3140D01*
X3574Y3140D02*
X3718Y3140D01*
X4873Y3140D02*
X5018Y3140D01*
X774Y3139D02*
X919Y3139D01*
X2174Y3139D02*
X2318Y3139D01*
X3574Y3139D02*
X3718Y3139D01*
X4873Y3139D02*
X5018Y3139D01*
X774Y3138D02*
X919Y3138D01*
X2174Y3138D02*
X2318Y3138D01*
X3574Y3138D02*
X3718Y3138D01*
X4873Y3138D02*
X5018Y3138D01*
X774Y3137D02*
X842Y3137D01*
X850Y3137D02*
X919Y3137D01*
X2174Y3137D02*
X2242Y3137D01*
X2250Y3137D02*
X2318Y3137D01*
X3574Y3137D02*
X3642Y3137D01*
X3650Y3137D02*
X3718Y3137D01*
X4873Y3137D02*
X4942Y3137D01*
X4950Y3137D02*
X5018Y3137D01*
X774Y3136D02*
X835Y3136D01*
X857Y3136D02*
X919Y3136D01*
X2174Y3136D02*
X2235Y3136D01*
X2257Y3136D02*
X2318Y3136D01*
X3574Y3136D02*
X3635Y3136D01*
X3657Y3136D02*
X3718Y3136D01*
X4873Y3136D02*
X4935Y3136D01*
X4957Y3136D02*
X5018Y3136D01*
X774Y3135D02*
X831Y3135D01*
X861Y3135D02*
X919Y3135D01*
X2174Y3135D02*
X2231Y3135D01*
X2261Y3135D02*
X2318Y3135D01*
X3574Y3135D02*
X3631Y3135D01*
X3661Y3135D02*
X3718Y3135D01*
X4873Y3135D02*
X4931Y3135D01*
X4961Y3135D02*
X5018Y3135D01*
X774Y3134D02*
X829Y3134D01*
X864Y3134D02*
X919Y3134D01*
X2174Y3134D02*
X2229Y3134D01*
X2264Y3134D02*
X2318Y3134D01*
X3574Y3134D02*
X3628Y3134D01*
X3663Y3134D02*
X3718Y3134D01*
X4873Y3134D02*
X4928Y3134D01*
X4963Y3134D02*
X5018Y3134D01*
X774Y3133D02*
X826Y3133D01*
X866Y3133D02*
X919Y3133D01*
X2174Y3133D02*
X2226Y3133D01*
X2266Y3133D02*
X2318Y3133D01*
X3574Y3133D02*
X3626Y3133D01*
X3666Y3133D02*
X3718Y3133D01*
X4873Y3133D02*
X4926Y3133D01*
X4966Y3133D02*
X5018Y3133D01*
X774Y3132D02*
X824Y3132D01*
X868Y3132D02*
X919Y3132D01*
X2174Y3132D02*
X2224Y3132D01*
X2268Y3132D02*
X2318Y3132D01*
X3574Y3132D02*
X3624Y3132D01*
X3668Y3132D02*
X3718Y3132D01*
X4873Y3132D02*
X4924Y3132D01*
X4968Y3132D02*
X5018Y3132D01*
X774Y3131D02*
X822Y3131D01*
X870Y3131D02*
X919Y3131D01*
X2174Y3131D02*
X2222Y3131D01*
X2270Y3131D02*
X2318Y3131D01*
X3574Y3131D02*
X3622Y3131D01*
X3670Y3131D02*
X3718Y3131D01*
X4873Y3131D02*
X4922Y3131D01*
X4970Y3131D02*
X5018Y3131D01*
X774Y3130D02*
X821Y3130D01*
X872Y3130D02*
X919Y3130D01*
X2174Y3130D02*
X2221Y3130D01*
X2272Y3130D02*
X2318Y3130D01*
X3574Y3130D02*
X3620Y3130D01*
X3671Y3130D02*
X3718Y3130D01*
X4873Y3130D02*
X4920Y3130D01*
X4971Y3130D02*
X5018Y3130D01*
X774Y3129D02*
X819Y3129D01*
X873Y3129D02*
X919Y3129D01*
X2174Y3129D02*
X2219Y3129D01*
X2273Y3129D02*
X2318Y3129D01*
X3574Y3129D02*
X3619Y3129D01*
X3673Y3129D02*
X3718Y3129D01*
X4873Y3129D02*
X4919Y3129D01*
X4973Y3129D02*
X5018Y3129D01*
X774Y3128D02*
X818Y3128D01*
X875Y3128D02*
X919Y3128D01*
X2174Y3128D02*
X2218Y3128D01*
X2274Y3128D02*
X2318Y3128D01*
X3574Y3128D02*
X3618Y3128D01*
X3674Y3128D02*
X3718Y3128D01*
X4873Y3128D02*
X4917Y3128D01*
X4974Y3128D02*
X5018Y3128D01*
X774Y3127D02*
X816Y3127D01*
X876Y3127D02*
X919Y3127D01*
X2174Y3127D02*
X2216Y3127D01*
X2276Y3127D02*
X2318Y3127D01*
X3574Y3127D02*
X3616Y3127D01*
X3676Y3127D02*
X3718Y3127D01*
X4873Y3127D02*
X4916Y3127D01*
X4976Y3127D02*
X5018Y3127D01*
X774Y3126D02*
X815Y3126D01*
X877Y3126D02*
X919Y3126D01*
X2174Y3126D02*
X2215Y3126D01*
X2277Y3126D02*
X2318Y3126D01*
X3574Y3126D02*
X3615Y3126D01*
X3677Y3126D02*
X3718Y3126D01*
X4873Y3126D02*
X4915Y3126D01*
X4977Y3126D02*
X5018Y3126D01*
X774Y3125D02*
X814Y3125D01*
X878Y3125D02*
X919Y3125D01*
X2174Y3125D02*
X2214Y3125D01*
X2278Y3125D02*
X2318Y3125D01*
X3574Y3125D02*
X3614Y3125D01*
X3678Y3125D02*
X3718Y3125D01*
X4873Y3125D02*
X4914Y3125D01*
X4978Y3125D02*
X5018Y3125D01*
X774Y3124D02*
X813Y3124D01*
X879Y3124D02*
X919Y3124D01*
X2174Y3124D02*
X2213Y3124D01*
X2279Y3124D02*
X2318Y3124D01*
X3574Y3124D02*
X3613Y3124D01*
X3679Y3124D02*
X3718Y3124D01*
X4873Y3124D02*
X4913Y3124D01*
X4979Y3124D02*
X5018Y3124D01*
X774Y3123D02*
X812Y3123D01*
X880Y3123D02*
X919Y3123D01*
X2174Y3123D02*
X2212Y3123D01*
X2280Y3123D02*
X2318Y3123D01*
X3574Y3123D02*
X3612Y3123D01*
X3680Y3123D02*
X3718Y3123D01*
X4873Y3123D02*
X4912Y3123D01*
X4980Y3123D02*
X5018Y3123D01*
X774Y3122D02*
X811Y3122D01*
X881Y3122D02*
X919Y3122D01*
X2174Y3122D02*
X2211Y3122D01*
X2281Y3122D02*
X2318Y3122D01*
X3574Y3122D02*
X3611Y3122D01*
X3681Y3122D02*
X3718Y3122D01*
X4873Y3122D02*
X4911Y3122D01*
X4981Y3122D02*
X5018Y3122D01*
X774Y3121D02*
X810Y3121D01*
X882Y3121D02*
X919Y3121D01*
X2174Y3121D02*
X2210Y3121D01*
X2282Y3121D02*
X2318Y3121D01*
X3574Y3121D02*
X3610Y3121D01*
X3682Y3121D02*
X3718Y3121D01*
X4873Y3121D02*
X4910Y3121D01*
X4982Y3121D02*
X5018Y3121D01*
X774Y3120D02*
X809Y3120D01*
X883Y3120D02*
X919Y3120D01*
X2174Y3120D02*
X2209Y3120D01*
X2283Y3120D02*
X2318Y3120D01*
X3574Y3120D02*
X3609Y3120D01*
X3683Y3120D02*
X3718Y3120D01*
X4873Y3120D02*
X4909Y3120D01*
X4983Y3120D02*
X5018Y3120D01*
X774Y3119D02*
X808Y3119D01*
X884Y3119D02*
X919Y3119D01*
X2174Y3119D02*
X2208Y3119D01*
X2284Y3119D02*
X2318Y3119D01*
X3574Y3119D02*
X3608Y3119D01*
X3684Y3119D02*
X3718Y3119D01*
X4873Y3119D02*
X4908Y3119D01*
X4984Y3119D02*
X5018Y3119D01*
X774Y3118D02*
X808Y3118D01*
X885Y3118D02*
X919Y3118D01*
X2174Y3118D02*
X2208Y3118D01*
X2285Y3118D02*
X2318Y3118D01*
X3574Y3118D02*
X3607Y3118D01*
X3684Y3118D02*
X3718Y3118D01*
X4873Y3118D02*
X4907Y3118D01*
X4984Y3118D02*
X5018Y3118D01*
X774Y3117D02*
X807Y3117D01*
X885Y3117D02*
X919Y3117D01*
X2174Y3117D02*
X2207Y3117D01*
X2285Y3117D02*
X2318Y3117D01*
X3574Y3117D02*
X3607Y3117D01*
X3685Y3117D02*
X3718Y3117D01*
X4873Y3117D02*
X4907Y3117D01*
X4985Y3117D02*
X5018Y3117D01*
X774Y3116D02*
X806Y3116D01*
X886Y3116D02*
X919Y3116D01*
X2174Y3116D02*
X2206Y3116D01*
X2286Y3116D02*
X2318Y3116D01*
X3574Y3116D02*
X3606Y3116D01*
X3686Y3116D02*
X3718Y3116D01*
X4873Y3116D02*
X4906Y3116D01*
X4986Y3116D02*
X5018Y3116D01*
X774Y3115D02*
X806Y3115D01*
X887Y3115D02*
X919Y3115D01*
X2174Y3115D02*
X2206Y3115D01*
X2287Y3115D02*
X2318Y3115D01*
X3574Y3115D02*
X3605Y3115D01*
X3686Y3115D02*
X3718Y3115D01*
X4873Y3115D02*
X4905Y3115D01*
X4986Y3115D02*
X5018Y3115D01*
X774Y3114D02*
X805Y3114D01*
X887Y3114D02*
X919Y3114D01*
X2174Y3114D02*
X2205Y3114D01*
X2287Y3114D02*
X2318Y3114D01*
X3574Y3114D02*
X3605Y3114D01*
X3687Y3114D02*
X3718Y3114D01*
X4873Y3114D02*
X4905Y3114D01*
X4987Y3114D02*
X5018Y3114D01*
X774Y3113D02*
X804Y3113D01*
X888Y3113D02*
X919Y3113D01*
X2174Y3113D02*
X2204Y3113D01*
X2288Y3113D02*
X2318Y3113D01*
X3574Y3113D02*
X3604Y3113D01*
X3688Y3113D02*
X3718Y3113D01*
X4873Y3113D02*
X4904Y3113D01*
X4988Y3113D02*
X5018Y3113D01*
X774Y3112D02*
X804Y3112D01*
X888Y3112D02*
X919Y3112D01*
X2174Y3112D02*
X2204Y3112D01*
X2288Y3112D02*
X2318Y3112D01*
X3574Y3112D02*
X3604Y3112D01*
X3688Y3112D02*
X3718Y3112D01*
X4873Y3112D02*
X4904Y3112D01*
X4988Y3112D02*
X5018Y3112D01*
X774Y3111D02*
X803Y3111D01*
X889Y3111D02*
X919Y3111D01*
X2174Y3111D02*
X2203Y3111D01*
X2289Y3111D02*
X2318Y3111D01*
X3574Y3111D02*
X3603Y3111D01*
X3689Y3111D02*
X3718Y3111D01*
X4873Y3111D02*
X4903Y3111D01*
X4989Y3111D02*
X5018Y3111D01*
X774Y3110D02*
X803Y3110D01*
X889Y3110D02*
X919Y3110D01*
X2174Y3110D02*
X2203Y3110D01*
X2289Y3110D02*
X2318Y3110D01*
X3574Y3110D02*
X3603Y3110D01*
X3689Y3110D02*
X3718Y3110D01*
X4873Y3110D02*
X4903Y3110D01*
X4989Y3110D02*
X5018Y3110D01*
X774Y3109D02*
X802Y3109D01*
X890Y3109D02*
X919Y3109D01*
X2174Y3109D02*
X2202Y3109D01*
X2290Y3109D02*
X2318Y3109D01*
X3574Y3109D02*
X3602Y3109D01*
X3690Y3109D02*
X3718Y3109D01*
X4873Y3109D02*
X4902Y3109D01*
X4990Y3109D02*
X5018Y3109D01*
X774Y3108D02*
X802Y3108D01*
X890Y3108D02*
X919Y3108D01*
X2174Y3108D02*
X2202Y3108D01*
X2290Y3108D02*
X2318Y3108D01*
X3574Y3108D02*
X3602Y3108D01*
X3690Y3108D02*
X3718Y3108D01*
X4873Y3108D02*
X4902Y3108D01*
X4990Y3108D02*
X5018Y3108D01*
X774Y3107D02*
X802Y3107D01*
X891Y3107D02*
X919Y3107D01*
X2174Y3107D02*
X2202Y3107D01*
X2291Y3107D02*
X2318Y3107D01*
X3574Y3107D02*
X3601Y3107D01*
X3690Y3107D02*
X3718Y3107D01*
X4873Y3107D02*
X4901Y3107D01*
X4990Y3107D02*
X5018Y3107D01*
X774Y3106D02*
X801Y3106D01*
X891Y3106D02*
X919Y3106D01*
X2174Y3106D02*
X2201Y3106D01*
X2291Y3106D02*
X2318Y3106D01*
X3574Y3106D02*
X3601Y3106D01*
X3691Y3106D02*
X3718Y3106D01*
X4873Y3106D02*
X4901Y3106D01*
X4991Y3106D02*
X5018Y3106D01*
X774Y3105D02*
X801Y3105D01*
X891Y3105D02*
X919Y3105D01*
X2174Y3105D02*
X2201Y3105D01*
X2291Y3105D02*
X2318Y3105D01*
X3574Y3105D02*
X3601Y3105D01*
X3691Y3105D02*
X3718Y3105D01*
X4873Y3105D02*
X4901Y3105D01*
X4991Y3105D02*
X5018Y3105D01*
X774Y3104D02*
X801Y3104D01*
X892Y3104D02*
X919Y3104D01*
X2174Y3104D02*
X2200Y3104D01*
X2292Y3104D02*
X2318Y3104D01*
X3574Y3104D02*
X3600Y3104D01*
X3692Y3104D02*
X3718Y3104D01*
X4873Y3104D02*
X4900Y3104D01*
X4991Y3104D02*
X5018Y3104D01*
X774Y3103D02*
X800Y3103D01*
X892Y3103D02*
X919Y3103D01*
X2174Y3103D02*
X2200Y3103D01*
X2292Y3103D02*
X2318Y3103D01*
X3574Y3103D02*
X3600Y3103D01*
X3692Y3103D02*
X3718Y3103D01*
X4873Y3103D02*
X4900Y3103D01*
X4992Y3103D02*
X5018Y3103D01*
X774Y3102D02*
X800Y3102D01*
X892Y3102D02*
X919Y3102D01*
X2174Y3102D02*
X2200Y3102D01*
X2292Y3102D02*
X2318Y3102D01*
X3574Y3102D02*
X3600Y3102D01*
X3692Y3102D02*
X3718Y3102D01*
X4873Y3102D02*
X4900Y3102D01*
X4992Y3102D02*
X5018Y3102D01*
X774Y3101D02*
X800Y3101D01*
X893Y3101D02*
X919Y3101D01*
X2174Y3101D02*
X2200Y3101D01*
X2292Y3101D02*
X2318Y3101D01*
X3574Y3101D02*
X3600Y3101D01*
X3692Y3101D02*
X3718Y3101D01*
X4873Y3101D02*
X4899Y3101D01*
X4992Y3101D02*
X5018Y3101D01*
X774Y3100D02*
X800Y3100D01*
X893Y3100D02*
X919Y3100D01*
X2174Y3100D02*
X2199Y3100D01*
X2293Y3100D02*
X2318Y3100D01*
X3574Y3100D02*
X3599Y3100D01*
X3693Y3100D02*
X3718Y3100D01*
X4873Y3100D02*
X4899Y3100D01*
X4992Y3100D02*
X5018Y3100D01*
X774Y3099D02*
X799Y3099D01*
X893Y3099D02*
X919Y3099D01*
X2174Y3099D02*
X2199Y3099D01*
X2293Y3099D02*
X2318Y3099D01*
X3574Y3099D02*
X3599Y3099D01*
X3693Y3099D02*
X3718Y3099D01*
X4873Y3099D02*
X4899Y3099D01*
X4993Y3099D02*
X5018Y3099D01*
X774Y3098D02*
X799Y3098D01*
X893Y3098D02*
X919Y3098D01*
X2174Y3098D02*
X2199Y3098D01*
X2293Y3098D02*
X2318Y3098D01*
X3574Y3098D02*
X3599Y3098D01*
X3693Y3098D02*
X3718Y3098D01*
X4873Y3098D02*
X4899Y3098D01*
X4993Y3098D02*
X5018Y3098D01*
X774Y3097D02*
X799Y3097D01*
X893Y3097D02*
X919Y3097D01*
X2174Y3097D02*
X2199Y3097D01*
X2293Y3097D02*
X2318Y3097D01*
X3574Y3097D02*
X3599Y3097D01*
X3693Y3097D02*
X3718Y3097D01*
X4873Y3097D02*
X4899Y3097D01*
X4993Y3097D02*
X5018Y3097D01*
X774Y3096D02*
X799Y3096D01*
X893Y3096D02*
X919Y3096D01*
X2174Y3096D02*
X2199Y3096D01*
X2293Y3096D02*
X2318Y3096D01*
X3574Y3096D02*
X3599Y3096D01*
X3693Y3096D02*
X3718Y3096D01*
X4873Y3096D02*
X4898Y3096D01*
X4993Y3096D02*
X5018Y3096D01*
X774Y3095D02*
X799Y3095D01*
X894Y3095D02*
X919Y3095D01*
X2174Y3095D02*
X2199Y3095D01*
X2294Y3095D02*
X2318Y3095D01*
X3574Y3095D02*
X3598Y3095D01*
X3693Y3095D02*
X3718Y3095D01*
X4873Y3095D02*
X4898Y3095D01*
X4993Y3095D02*
X5018Y3095D01*
X774Y3094D02*
X799Y3094D01*
X894Y3094D02*
X919Y3094D01*
X2174Y3094D02*
X2199Y3094D01*
X2294Y3094D02*
X2318Y3094D01*
X3574Y3094D02*
X3598Y3094D01*
X3693Y3094D02*
X3718Y3094D01*
X4873Y3094D02*
X4898Y3094D01*
X4993Y3094D02*
X5018Y3094D01*
X774Y3093D02*
X799Y3093D01*
X894Y3093D02*
X919Y3093D01*
X2174Y3093D02*
X2198Y3093D01*
X2294Y3093D02*
X2318Y3093D01*
X3574Y3093D02*
X3598Y3093D01*
X3694Y3093D02*
X3718Y3093D01*
X4873Y3093D02*
X4898Y3093D01*
X4993Y3093D02*
X5018Y3093D01*
X774Y3092D02*
X799Y3092D01*
X894Y3092D02*
X919Y3092D01*
X2174Y3092D02*
X2198Y3092D01*
X2294Y3092D02*
X2318Y3092D01*
X3574Y3092D02*
X3598Y3092D01*
X3694Y3092D02*
X3718Y3092D01*
X4873Y3092D02*
X4898Y3092D01*
X4993Y3092D02*
X5018Y3092D01*
X774Y3091D02*
X798Y3091D01*
X894Y3091D02*
X919Y3091D01*
X2174Y3091D02*
X2198Y3091D01*
X2294Y3091D02*
X2318Y3091D01*
X3574Y3091D02*
X3598Y3091D01*
X3694Y3091D02*
X3718Y3091D01*
X4873Y3091D02*
X4898Y3091D01*
X4993Y3091D02*
X5018Y3091D01*
X774Y3090D02*
X798Y3090D01*
X894Y3090D02*
X919Y3090D01*
X2174Y3090D02*
X2198Y3090D01*
X2294Y3090D02*
X2318Y3090D01*
X3574Y3090D02*
X3598Y3090D01*
X3694Y3090D02*
X3718Y3090D01*
X4873Y3090D02*
X4898Y3090D01*
X4994Y3090D02*
X5018Y3090D01*
X774Y3089D02*
X798Y3089D01*
X894Y3089D02*
X919Y3089D01*
X2174Y3089D02*
X2198Y3089D01*
X2294Y3089D02*
X2318Y3089D01*
X3574Y3089D02*
X3598Y3089D01*
X3694Y3089D02*
X3718Y3089D01*
X4873Y3089D02*
X4898Y3089D01*
X4993Y3089D02*
X5018Y3089D01*
X774Y3088D02*
X799Y3088D01*
X894Y3088D02*
X919Y3088D01*
X2174Y3088D02*
X2198Y3088D01*
X2294Y3088D02*
X2318Y3088D01*
X3574Y3088D02*
X3598Y3088D01*
X3694Y3088D02*
X3718Y3088D01*
X4873Y3088D02*
X4898Y3088D01*
X4993Y3088D02*
X5018Y3088D01*
X774Y3087D02*
X799Y3087D01*
X894Y3087D02*
X919Y3087D01*
X2174Y3087D02*
X2198Y3087D01*
X2294Y3087D02*
X2318Y3087D01*
X3574Y3087D02*
X3598Y3087D01*
X3694Y3087D02*
X3718Y3087D01*
X4873Y3087D02*
X4898Y3087D01*
X4993Y3087D02*
X5018Y3087D01*
X774Y3086D02*
X799Y3086D01*
X894Y3086D02*
X919Y3086D01*
X2174Y3086D02*
X2199Y3086D01*
X2294Y3086D02*
X2318Y3086D01*
X3574Y3086D02*
X3598Y3086D01*
X3693Y3086D02*
X3718Y3086D01*
X4873Y3086D02*
X4898Y3086D01*
X4993Y3086D02*
X5018Y3086D01*
X774Y3085D02*
X799Y3085D01*
X894Y3085D02*
X919Y3085D01*
X2174Y3085D02*
X2199Y3085D01*
X2294Y3085D02*
X2318Y3085D01*
X3574Y3085D02*
X3598Y3085D01*
X3693Y3085D02*
X3718Y3085D01*
X4873Y3085D02*
X4898Y3085D01*
X4993Y3085D02*
X5018Y3085D01*
X774Y3084D02*
X799Y3084D01*
X894Y3084D02*
X919Y3084D01*
X2174Y3084D02*
X2199Y3084D01*
X2293Y3084D02*
X2318Y3084D01*
X3574Y3084D02*
X3599Y3084D01*
X3693Y3084D02*
X3718Y3084D01*
X4873Y3084D02*
X4898Y3084D01*
X4993Y3084D02*
X5018Y3084D01*
X774Y3083D02*
X799Y3083D01*
X893Y3083D02*
X919Y3083D01*
X2174Y3083D02*
X2199Y3083D01*
X2293Y3083D02*
X2318Y3083D01*
X3574Y3083D02*
X3599Y3083D01*
X3693Y3083D02*
X3718Y3083D01*
X4873Y3083D02*
X4899Y3083D01*
X4993Y3083D02*
X5018Y3083D01*
X774Y3082D02*
X799Y3082D01*
X893Y3082D02*
X919Y3082D01*
X2174Y3082D02*
X2199Y3082D01*
X2293Y3082D02*
X2318Y3082D01*
X3574Y3082D02*
X3599Y3082D01*
X3693Y3082D02*
X3718Y3082D01*
X4873Y3082D02*
X4899Y3082D01*
X4993Y3082D02*
X5018Y3082D01*
X774Y3081D02*
X799Y3081D01*
X893Y3081D02*
X919Y3081D01*
X2174Y3081D02*
X2199Y3081D01*
X2293Y3081D02*
X2318Y3081D01*
X3574Y3081D02*
X3599Y3081D01*
X3693Y3081D02*
X3718Y3081D01*
X4873Y3081D02*
X4899Y3081D01*
X4993Y3081D02*
X5018Y3081D01*
X774Y3080D02*
X800Y3080D01*
X893Y3080D02*
X919Y3080D01*
X2174Y3080D02*
X2199Y3080D01*
X2293Y3080D02*
X2318Y3080D01*
X3574Y3080D02*
X3599Y3080D01*
X3693Y3080D02*
X3718Y3080D01*
X4873Y3080D02*
X4899Y3080D01*
X4992Y3080D02*
X5018Y3080D01*
X774Y3079D02*
X800Y3079D01*
X893Y3079D02*
X919Y3079D01*
X2174Y3079D02*
X2200Y3079D01*
X2292Y3079D02*
X2318Y3079D01*
X3574Y3079D02*
X3600Y3079D01*
X3692Y3079D02*
X3718Y3079D01*
X4873Y3079D02*
X4899Y3079D01*
X4992Y3079D02*
X5018Y3079D01*
X774Y3078D02*
X800Y3078D01*
X892Y3078D02*
X919Y3078D01*
X2174Y3078D02*
X2200Y3078D01*
X2292Y3078D02*
X2318Y3078D01*
X3574Y3078D02*
X3600Y3078D01*
X3692Y3078D02*
X3718Y3078D01*
X4873Y3078D02*
X4900Y3078D01*
X4992Y3078D02*
X5018Y3078D01*
X774Y3077D02*
X800Y3077D01*
X892Y3077D02*
X919Y3077D01*
X2174Y3077D02*
X2200Y3077D01*
X2292Y3077D02*
X2318Y3077D01*
X3574Y3077D02*
X3600Y3077D01*
X3692Y3077D02*
X3718Y3077D01*
X4873Y3077D02*
X4900Y3077D01*
X4992Y3077D02*
X5018Y3077D01*
X774Y3076D02*
X801Y3076D01*
X892Y3076D02*
X919Y3076D01*
X2174Y3076D02*
X2200Y3076D01*
X2292Y3076D02*
X2318Y3076D01*
X3574Y3076D02*
X3600Y3076D01*
X3692Y3076D02*
X3718Y3076D01*
X4873Y3076D02*
X4900Y3076D01*
X4991Y3076D02*
X5018Y3076D01*
X774Y3075D02*
X801Y3075D01*
X891Y3075D02*
X919Y3075D01*
X2174Y3075D02*
X2201Y3075D01*
X2291Y3075D02*
X2318Y3075D01*
X3574Y3075D02*
X3601Y3075D01*
X3691Y3075D02*
X3718Y3075D01*
X4873Y3075D02*
X4901Y3075D01*
X4991Y3075D02*
X5018Y3075D01*
X774Y3074D02*
X801Y3074D01*
X891Y3074D02*
X919Y3074D01*
X2174Y3074D02*
X2201Y3074D01*
X2291Y3074D02*
X2318Y3074D01*
X3574Y3074D02*
X3601Y3074D01*
X3691Y3074D02*
X3718Y3074D01*
X4873Y3074D02*
X4901Y3074D01*
X4991Y3074D02*
X5018Y3074D01*
X774Y3073D02*
X802Y3073D01*
X891Y3073D02*
X919Y3073D01*
X2174Y3073D02*
X2202Y3073D01*
X2291Y3073D02*
X2318Y3073D01*
X3574Y3073D02*
X3601Y3073D01*
X3690Y3073D02*
X3718Y3073D01*
X4873Y3073D02*
X4901Y3073D01*
X4990Y3073D02*
X5018Y3073D01*
X774Y3072D02*
X802Y3072D01*
X890Y3072D02*
X919Y3072D01*
X2174Y3072D02*
X2202Y3072D01*
X2290Y3072D02*
X2318Y3072D01*
X3574Y3072D02*
X3602Y3072D01*
X3690Y3072D02*
X3718Y3072D01*
X4873Y3072D02*
X4902Y3072D01*
X4990Y3072D02*
X5018Y3072D01*
X774Y3071D02*
X802Y3071D01*
X890Y3071D02*
X919Y3071D01*
X2174Y3071D02*
X2202Y3071D01*
X2290Y3071D02*
X2318Y3071D01*
X3574Y3071D02*
X3602Y3071D01*
X3690Y3071D02*
X3718Y3071D01*
X4873Y3071D02*
X4902Y3071D01*
X4990Y3071D02*
X5018Y3071D01*
X774Y3070D02*
X803Y3070D01*
X889Y3070D02*
X919Y3070D01*
X2174Y3070D02*
X2203Y3070D01*
X2289Y3070D02*
X2318Y3070D01*
X3574Y3070D02*
X3603Y3070D01*
X3689Y3070D02*
X3718Y3070D01*
X4873Y3070D02*
X4903Y3070D01*
X4989Y3070D02*
X5018Y3070D01*
X774Y3069D02*
X803Y3069D01*
X889Y3069D02*
X919Y3069D01*
X2174Y3069D02*
X2203Y3069D01*
X2289Y3069D02*
X2318Y3069D01*
X3574Y3069D02*
X3603Y3069D01*
X3689Y3069D02*
X3718Y3069D01*
X4873Y3069D02*
X4903Y3069D01*
X4989Y3069D02*
X5018Y3069D01*
X774Y3068D02*
X804Y3068D01*
X888Y3068D02*
X919Y3068D01*
X2174Y3068D02*
X2204Y3068D01*
X2288Y3068D02*
X2318Y3068D01*
X3574Y3068D02*
X3604Y3068D01*
X3688Y3068D02*
X3718Y3068D01*
X4873Y3068D02*
X4904Y3068D01*
X4988Y3068D02*
X5018Y3068D01*
X774Y3067D02*
X804Y3067D01*
X888Y3067D02*
X919Y3067D01*
X2174Y3067D02*
X2204Y3067D01*
X2288Y3067D02*
X2318Y3067D01*
X3574Y3067D02*
X3604Y3067D01*
X3688Y3067D02*
X3718Y3067D01*
X4873Y3067D02*
X4904Y3067D01*
X4988Y3067D02*
X5018Y3067D01*
X774Y3066D02*
X805Y3066D01*
X887Y3066D02*
X919Y3066D01*
X2174Y3066D02*
X2205Y3066D01*
X2287Y3066D02*
X2318Y3066D01*
X3574Y3066D02*
X3605Y3066D01*
X3687Y3066D02*
X3718Y3066D01*
X4873Y3066D02*
X4905Y3066D01*
X4987Y3066D02*
X5018Y3066D01*
X774Y3065D02*
X806Y3065D01*
X887Y3065D02*
X919Y3065D01*
X2174Y3065D02*
X2206Y3065D01*
X2287Y3065D02*
X2318Y3065D01*
X3574Y3065D02*
X3605Y3065D01*
X3686Y3065D02*
X3718Y3065D01*
X4873Y3065D02*
X4905Y3065D01*
X4986Y3065D02*
X5018Y3065D01*
X774Y3064D02*
X806Y3064D01*
X886Y3064D02*
X919Y3064D01*
X2174Y3064D02*
X2206Y3064D01*
X2286Y3064D02*
X2318Y3064D01*
X3574Y3064D02*
X3606Y3064D01*
X3686Y3064D02*
X3718Y3064D01*
X4873Y3064D02*
X4906Y3064D01*
X4986Y3064D02*
X5018Y3064D01*
X774Y3063D02*
X807Y3063D01*
X885Y3063D02*
X919Y3063D01*
X2174Y3063D02*
X2207Y3063D01*
X2285Y3063D02*
X2318Y3063D01*
X3574Y3063D02*
X3607Y3063D01*
X3685Y3063D02*
X3718Y3063D01*
X4873Y3063D02*
X4907Y3063D01*
X4985Y3063D02*
X5018Y3063D01*
X774Y3062D02*
X808Y3062D01*
X885Y3062D02*
X919Y3062D01*
X2174Y3062D02*
X2208Y3062D01*
X2285Y3062D02*
X2318Y3062D01*
X3574Y3062D02*
X3607Y3062D01*
X3684Y3062D02*
X3718Y3062D01*
X4873Y3062D02*
X4907Y3062D01*
X4984Y3062D02*
X5018Y3062D01*
X774Y3061D02*
X808Y3061D01*
X884Y3061D02*
X919Y3061D01*
X2174Y3061D02*
X2208Y3061D01*
X2284Y3061D02*
X2318Y3061D01*
X3574Y3061D02*
X3608Y3061D01*
X3684Y3061D02*
X3718Y3061D01*
X4873Y3061D02*
X4908Y3061D01*
X4984Y3061D02*
X5018Y3061D01*
X774Y3060D02*
X809Y3060D01*
X883Y3060D02*
X919Y3060D01*
X2174Y3060D02*
X2209Y3060D01*
X2283Y3060D02*
X2318Y3060D01*
X3574Y3060D02*
X3609Y3060D01*
X3683Y3060D02*
X3718Y3060D01*
X4873Y3060D02*
X4909Y3060D01*
X4983Y3060D02*
X5018Y3060D01*
X774Y3059D02*
X810Y3059D01*
X882Y3059D02*
X919Y3059D01*
X2174Y3059D02*
X2210Y3059D01*
X2282Y3059D02*
X2318Y3059D01*
X3574Y3059D02*
X3610Y3059D01*
X3682Y3059D02*
X3718Y3059D01*
X4873Y3059D02*
X4910Y3059D01*
X4982Y3059D02*
X5018Y3059D01*
X774Y3058D02*
X811Y3058D01*
X881Y3058D02*
X919Y3058D01*
X2174Y3058D02*
X2211Y3058D01*
X2281Y3058D02*
X2318Y3058D01*
X3574Y3058D02*
X3611Y3058D01*
X3681Y3058D02*
X3718Y3058D01*
X4873Y3058D02*
X4911Y3058D01*
X4981Y3058D02*
X5018Y3058D01*
X774Y3057D02*
X812Y3057D01*
X880Y3057D02*
X919Y3057D01*
X2174Y3057D02*
X2212Y3057D01*
X2280Y3057D02*
X2318Y3057D01*
X3574Y3057D02*
X3612Y3057D01*
X3680Y3057D02*
X3718Y3057D01*
X4873Y3057D02*
X4912Y3057D01*
X4980Y3057D02*
X5018Y3057D01*
X774Y3056D02*
X813Y3056D01*
X879Y3056D02*
X919Y3056D01*
X2174Y3056D02*
X2213Y3056D01*
X2279Y3056D02*
X2318Y3056D01*
X3574Y3056D02*
X3613Y3056D01*
X3679Y3056D02*
X3718Y3056D01*
X4873Y3056D02*
X4913Y3056D01*
X4979Y3056D02*
X5018Y3056D01*
X774Y3055D02*
X814Y3055D01*
X878Y3055D02*
X919Y3055D01*
X2174Y3055D02*
X2214Y3055D01*
X2278Y3055D02*
X2318Y3055D01*
X3574Y3055D02*
X3614Y3055D01*
X3678Y3055D02*
X3718Y3055D01*
X4873Y3055D02*
X4914Y3055D01*
X4978Y3055D02*
X5018Y3055D01*
X774Y3054D02*
X815Y3054D01*
X877Y3054D02*
X919Y3054D01*
X2174Y3054D02*
X2215Y3054D01*
X2277Y3054D02*
X2318Y3054D01*
X3574Y3054D02*
X3615Y3054D01*
X3677Y3054D02*
X3718Y3054D01*
X4873Y3054D02*
X4915Y3054D01*
X4977Y3054D02*
X5018Y3054D01*
X774Y3053D02*
X816Y3053D01*
X876Y3053D02*
X919Y3053D01*
X2174Y3053D02*
X2216Y3053D01*
X2276Y3053D02*
X2318Y3053D01*
X3574Y3053D02*
X3616Y3053D01*
X3676Y3053D02*
X3718Y3053D01*
X4873Y3053D02*
X4916Y3053D01*
X4976Y3053D02*
X5018Y3053D01*
X774Y3052D02*
X818Y3052D01*
X875Y3052D02*
X919Y3052D01*
X2174Y3052D02*
X2218Y3052D01*
X2275Y3052D02*
X2318Y3052D01*
X3574Y3052D02*
X3617Y3052D01*
X3674Y3052D02*
X3718Y3052D01*
X4873Y3052D02*
X4917Y3052D01*
X4974Y3052D02*
X5018Y3052D01*
X774Y3051D02*
X819Y3051D01*
X873Y3051D02*
X919Y3051D01*
X2174Y3051D02*
X2219Y3051D01*
X2273Y3051D02*
X2318Y3051D01*
X3574Y3051D02*
X3619Y3051D01*
X3673Y3051D02*
X3718Y3051D01*
X4873Y3051D02*
X4919Y3051D01*
X4973Y3051D02*
X5018Y3051D01*
X774Y3050D02*
X821Y3050D01*
X872Y3050D02*
X919Y3050D01*
X2174Y3050D02*
X2220Y3050D01*
X2272Y3050D02*
X2318Y3050D01*
X3574Y3050D02*
X3620Y3050D01*
X3672Y3050D02*
X3718Y3050D01*
X4873Y3050D02*
X4920Y3050D01*
X4971Y3050D02*
X5018Y3050D01*
X774Y3049D02*
X822Y3049D01*
X870Y3049D02*
X919Y3049D01*
X2174Y3049D02*
X2222Y3049D01*
X2270Y3049D02*
X2318Y3049D01*
X3574Y3049D02*
X3622Y3049D01*
X3670Y3049D02*
X3718Y3049D01*
X4873Y3049D02*
X4922Y3049D01*
X4970Y3049D02*
X5018Y3049D01*
X774Y3048D02*
X824Y3048D01*
X868Y3048D02*
X919Y3048D01*
X2174Y3048D02*
X2224Y3048D01*
X2268Y3048D02*
X2318Y3048D01*
X3574Y3048D02*
X3624Y3048D01*
X3668Y3048D02*
X3718Y3048D01*
X4873Y3048D02*
X4924Y3048D01*
X4968Y3048D02*
X5018Y3048D01*
X774Y3047D02*
X826Y3047D01*
X866Y3047D02*
X919Y3047D01*
X2174Y3047D02*
X2226Y3047D01*
X2266Y3047D02*
X2318Y3047D01*
X3574Y3047D02*
X3626Y3047D01*
X3666Y3047D02*
X3718Y3047D01*
X4873Y3047D02*
X4926Y3047D01*
X4966Y3047D02*
X5018Y3047D01*
X774Y3046D02*
X828Y3046D01*
X864Y3046D02*
X919Y3046D01*
X2174Y3046D02*
X2228Y3046D01*
X2264Y3046D02*
X2318Y3046D01*
X3574Y3046D02*
X3628Y3046D01*
X3664Y3046D02*
X3718Y3046D01*
X4873Y3046D02*
X4928Y3046D01*
X4963Y3046D02*
X5018Y3046D01*
X774Y3045D02*
X831Y3045D01*
X861Y3045D02*
X919Y3045D01*
X2174Y3045D02*
X2231Y3045D01*
X2261Y3045D02*
X2318Y3045D01*
X3574Y3045D02*
X3631Y3045D01*
X3661Y3045D02*
X3718Y3045D01*
X4873Y3045D02*
X4931Y3045D01*
X4961Y3045D02*
X5018Y3045D01*
X774Y3044D02*
X835Y3044D01*
X857Y3044D02*
X919Y3044D01*
X2174Y3044D02*
X2235Y3044D01*
X2257Y3044D02*
X2318Y3044D01*
X3574Y3044D02*
X3635Y3044D01*
X3657Y3044D02*
X3718Y3044D01*
X4873Y3044D02*
X4935Y3044D01*
X4957Y3044D02*
X5018Y3044D01*
X774Y3043D02*
X841Y3043D01*
X852Y3043D02*
X919Y3043D01*
X2174Y3043D02*
X2241Y3043D01*
X2252Y3043D02*
X2318Y3043D01*
X3574Y3043D02*
X3640Y3043D01*
X3651Y3043D02*
X3718Y3043D01*
X4873Y3043D02*
X4940Y3043D01*
X4951Y3043D02*
X5018Y3043D01*
X774Y3042D02*
X919Y3042D01*
X2174Y3042D02*
X2318Y3042D01*
X3574Y3042D02*
X3718Y3042D01*
X4873Y3042D02*
X5018Y3042D01*
X774Y3041D02*
X919Y3041D01*
X2174Y3041D02*
X2318Y3041D01*
X3574Y3041D02*
X3718Y3041D01*
X4873Y3041D02*
X5018Y3041D01*
X774Y3040D02*
X919Y3040D01*
X2174Y3040D02*
X2318Y3040D01*
X3574Y3040D02*
X3718Y3040D01*
X4873Y3040D02*
X5018Y3040D01*
X774Y3039D02*
X919Y3039D01*
X2174Y3039D02*
X2318Y3039D01*
X3574Y3039D02*
X3718Y3039D01*
X4873Y3039D02*
X5018Y3039D01*
X774Y3038D02*
X919Y3038D01*
X2174Y3038D02*
X2318Y3038D01*
X3574Y3038D02*
X3718Y3038D01*
X4873Y3038D02*
X5018Y3038D01*
X774Y3037D02*
X919Y3037D01*
X2174Y3037D02*
X2318Y3037D01*
X3574Y3037D02*
X3718Y3037D01*
X4873Y3037D02*
X5018Y3037D01*
X774Y3036D02*
X919Y3036D01*
X2174Y3036D02*
X2318Y3036D01*
X3574Y3036D02*
X3718Y3036D01*
X4873Y3036D02*
X5018Y3036D01*
X774Y3035D02*
X919Y3035D01*
X2174Y3035D02*
X2318Y3035D01*
X3574Y3035D02*
X3718Y3035D01*
X4873Y3035D02*
X5018Y3035D01*
X774Y3034D02*
X919Y3034D01*
X2174Y3034D02*
X2318Y3034D01*
X3574Y3034D02*
X3718Y3034D01*
X4873Y3034D02*
X5018Y3034D01*
X774Y3033D02*
X919Y3033D01*
X2174Y3033D02*
X2318Y3033D01*
X3574Y3033D02*
X3718Y3033D01*
X4873Y3033D02*
X5018Y3033D01*
X774Y3032D02*
X919Y3032D01*
X2174Y3032D02*
X2318Y3032D01*
X3574Y3032D02*
X3718Y3032D01*
X4873Y3032D02*
X5018Y3032D01*
X774Y3031D02*
X919Y3031D01*
X2174Y3031D02*
X2318Y3031D01*
X3574Y3031D02*
X3718Y3031D01*
X4873Y3031D02*
X5018Y3031D01*
X774Y3030D02*
X919Y3030D01*
X2174Y3030D02*
X2318Y3030D01*
X3574Y3030D02*
X3718Y3030D01*
X4873Y3030D02*
X5018Y3030D01*
X774Y3029D02*
X919Y3029D01*
X2174Y3029D02*
X2318Y3029D01*
X3574Y3029D02*
X3718Y3029D01*
X4873Y3029D02*
X5018Y3029D01*
X774Y3028D02*
X919Y3028D01*
X2174Y3028D02*
X2318Y3028D01*
X3574Y3028D02*
X3718Y3028D01*
X4873Y3028D02*
X5018Y3028D01*
X774Y3027D02*
X919Y3027D01*
X2174Y3027D02*
X2318Y3027D01*
X3574Y3027D02*
X3718Y3027D01*
X4873Y3027D02*
X5018Y3027D01*
X774Y3026D02*
X919Y3026D01*
X2174Y3026D02*
X2318Y3026D01*
X3574Y3026D02*
X3718Y3026D01*
X4873Y3026D02*
X5018Y3026D01*
X774Y3025D02*
X919Y3025D01*
X2174Y3025D02*
X2318Y3025D01*
X3574Y3025D02*
X3718Y3025D01*
X4873Y3025D02*
X5018Y3025D01*
X774Y3024D02*
X919Y3024D01*
X2174Y3024D02*
X2318Y3024D01*
X3574Y3024D02*
X3718Y3024D01*
X4873Y3024D02*
X5018Y3024D01*
X774Y3023D02*
X919Y3023D01*
X2174Y3023D02*
X2318Y3023D01*
X3574Y3023D02*
X3718Y3023D01*
X4873Y3023D02*
X5018Y3023D01*
X774Y3022D02*
X919Y3022D01*
X2174Y3022D02*
X2318Y3022D01*
X3574Y3022D02*
X3718Y3022D01*
X4873Y3022D02*
X5018Y3022D01*
X774Y3021D02*
X919Y3021D01*
X2174Y3021D02*
X2318Y3021D01*
X3574Y3021D02*
X3718Y3021D01*
X4873Y3021D02*
X5018Y3021D01*
X774Y3020D02*
X919Y3020D01*
X2174Y3020D02*
X2318Y3020D01*
X3574Y3020D02*
X3718Y3020D01*
X4873Y3020D02*
X5018Y3020D01*
X774Y3019D02*
X919Y3019D01*
X2174Y3019D02*
X2318Y3019D01*
X3574Y3019D02*
X3718Y3019D01*
X4873Y3019D02*
X5018Y3019D01*
X774Y3018D02*
X919Y3018D01*
X2174Y3018D02*
X2318Y3018D01*
X3574Y3018D02*
X3718Y3018D01*
X4873Y3018D02*
X5018Y3018D01*
X254Y1982D02*
X399Y1982D01*
X254Y1981D02*
X399Y1981D01*
X254Y1980D02*
X399Y1980D01*
X254Y1979D02*
X399Y1979D01*
X254Y1978D02*
X399Y1978D01*
X254Y1977D02*
X399Y1977D01*
X254Y1976D02*
X399Y1976D01*
X254Y1975D02*
X399Y1975D01*
X254Y1974D02*
X399Y1974D01*
X254Y1973D02*
X399Y1973D01*
X254Y1972D02*
X399Y1972D01*
X254Y1971D02*
X399Y1971D01*
X254Y1970D02*
X399Y1970D01*
X254Y1969D02*
X399Y1969D01*
X254Y1968D02*
X399Y1968D01*
X254Y1967D02*
X399Y1967D01*
X254Y1966D02*
X399Y1966D01*
X254Y1965D02*
X399Y1965D01*
X254Y1964D02*
X399Y1964D01*
X254Y1963D02*
X399Y1963D01*
X254Y1962D02*
X399Y1962D01*
X254Y1961D02*
X399Y1961D01*
X254Y1960D02*
X399Y1960D01*
X254Y1959D02*
X399Y1959D01*
X254Y1958D02*
X399Y1958D01*
X254Y1957D02*
X322Y1957D01*
X331Y1957D02*
X399Y1957D01*
X254Y1956D02*
X316Y1956D01*
X337Y1956D02*
X399Y1956D01*
X254Y1955D02*
X312Y1955D01*
X341Y1955D02*
X399Y1955D01*
X254Y1954D02*
X309Y1954D01*
X344Y1954D02*
X399Y1954D01*
X254Y1953D02*
X307Y1953D01*
X346Y1953D02*
X399Y1953D01*
X254Y1952D02*
X305Y1952D01*
X349Y1952D02*
X399Y1952D01*
X254Y1951D02*
X303Y1951D01*
X350Y1951D02*
X399Y1951D01*
X254Y1950D02*
X301Y1950D01*
X352Y1950D02*
X399Y1950D01*
X254Y1949D02*
X300Y1949D01*
X354Y1949D02*
X399Y1949D01*
X254Y1948D02*
X298Y1948D01*
X355Y1948D02*
X399Y1948D01*
X254Y1947D02*
X297Y1947D01*
X356Y1947D02*
X399Y1947D01*
X254Y1946D02*
X296Y1946D01*
X358Y1946D02*
X399Y1946D01*
X254Y1945D02*
X294Y1945D01*
X359Y1945D02*
X399Y1945D01*
X254Y1944D02*
X293Y1944D01*
X360Y1944D02*
X399Y1944D01*
X254Y1943D02*
X292Y1943D01*
X361Y1943D02*
X399Y1943D01*
X254Y1942D02*
X291Y1942D01*
X362Y1942D02*
X399Y1942D01*
X254Y1941D02*
X291Y1941D01*
X363Y1941D02*
X399Y1941D01*
X254Y1940D02*
X290Y1940D01*
X363Y1940D02*
X399Y1940D01*
X254Y1939D02*
X289Y1939D01*
X364Y1939D02*
X399Y1939D01*
X254Y1938D02*
X288Y1938D01*
X365Y1938D02*
X399Y1938D01*
X254Y1937D02*
X287Y1937D01*
X366Y1937D02*
X399Y1937D01*
X254Y1936D02*
X287Y1936D01*
X366Y1936D02*
X399Y1936D01*
X254Y1935D02*
X286Y1935D01*
X367Y1935D02*
X399Y1935D01*
X254Y1934D02*
X285Y1934D01*
X368Y1934D02*
X399Y1934D01*
X254Y1933D02*
X285Y1933D01*
X368Y1933D02*
X399Y1933D01*
X254Y1932D02*
X284Y1932D01*
X369Y1932D02*
X399Y1932D01*
X254Y1931D02*
X284Y1931D01*
X369Y1931D02*
X399Y1931D01*
X254Y1930D02*
X283Y1930D01*
X370Y1930D02*
X399Y1930D01*
X254Y1929D02*
X283Y1929D01*
X370Y1929D02*
X399Y1929D01*
X254Y1928D02*
X282Y1928D01*
X371Y1928D02*
X399Y1928D01*
X254Y1927D02*
X282Y1927D01*
X371Y1927D02*
X399Y1927D01*
X254Y1926D02*
X282Y1926D01*
X371Y1926D02*
X399Y1926D01*
X254Y1925D02*
X281Y1925D01*
X372Y1925D02*
X399Y1925D01*
X254Y1924D02*
X281Y1924D01*
X372Y1924D02*
X399Y1924D01*
X254Y1923D02*
X281Y1923D01*
X372Y1923D02*
X399Y1923D01*
X254Y1922D02*
X280Y1922D01*
X373Y1922D02*
X399Y1922D01*
X254Y1921D02*
X280Y1921D01*
X373Y1921D02*
X399Y1921D01*
X254Y1920D02*
X280Y1920D01*
X373Y1920D02*
X399Y1920D01*
X254Y1919D02*
X280Y1919D01*
X373Y1919D02*
X399Y1919D01*
X254Y1918D02*
X280Y1918D01*
X374Y1918D02*
X399Y1918D01*
X254Y1917D02*
X279Y1917D01*
X374Y1917D02*
X399Y1917D01*
X254Y1916D02*
X279Y1916D01*
X374Y1916D02*
X399Y1916D01*
X254Y1915D02*
X279Y1915D01*
X374Y1915D02*
X399Y1915D01*
X254Y1914D02*
X279Y1914D01*
X374Y1914D02*
X399Y1914D01*
X254Y1913D02*
X279Y1913D01*
X374Y1913D02*
X399Y1913D01*
X254Y1912D02*
X279Y1912D01*
X374Y1912D02*
X399Y1912D01*
X254Y1911D02*
X279Y1911D01*
X374Y1911D02*
X399Y1911D01*
X254Y1910D02*
X279Y1910D01*
X374Y1910D02*
X399Y1910D01*
X254Y1909D02*
X279Y1909D01*
X374Y1909D02*
X399Y1909D01*
X254Y1908D02*
X279Y1908D01*
X374Y1908D02*
X399Y1908D01*
X254Y1907D02*
X279Y1907D01*
X374Y1907D02*
X399Y1907D01*
X254Y1906D02*
X279Y1906D01*
X374Y1906D02*
X399Y1906D01*
X254Y1905D02*
X279Y1905D01*
X374Y1905D02*
X399Y1905D01*
X254Y1904D02*
X279Y1904D01*
X374Y1904D02*
X399Y1904D01*
X254Y1903D02*
X279Y1903D01*
X374Y1903D02*
X399Y1903D01*
X254Y1902D02*
X280Y1902D01*
X374Y1902D02*
X399Y1902D01*
X254Y1901D02*
X280Y1901D01*
X373Y1901D02*
X399Y1901D01*
X254Y1900D02*
X280Y1900D01*
X373Y1900D02*
X399Y1900D01*
X254Y1899D02*
X280Y1899D01*
X373Y1899D02*
X399Y1899D01*
X254Y1898D02*
X280Y1898D01*
X373Y1898D02*
X399Y1898D01*
X254Y1897D02*
X281Y1897D01*
X372Y1897D02*
X399Y1897D01*
X254Y1896D02*
X281Y1896D01*
X372Y1896D02*
X399Y1896D01*
X254Y1895D02*
X281Y1895D01*
X372Y1895D02*
X399Y1895D01*
X254Y1894D02*
X282Y1894D01*
X371Y1894D02*
X399Y1894D01*
X254Y1893D02*
X282Y1893D01*
X371Y1893D02*
X399Y1893D01*
X254Y1892D02*
X282Y1892D01*
X371Y1892D02*
X399Y1892D01*
X254Y1891D02*
X283Y1891D01*
X370Y1891D02*
X399Y1891D01*
X254Y1890D02*
X283Y1890D01*
X370Y1890D02*
X399Y1890D01*
X254Y1889D02*
X284Y1889D01*
X369Y1889D02*
X399Y1889D01*
X254Y1888D02*
X284Y1888D01*
X369Y1888D02*
X399Y1888D01*
X254Y1887D02*
X285Y1887D01*
X368Y1887D02*
X399Y1887D01*
X254Y1886D02*
X285Y1886D01*
X368Y1886D02*
X399Y1886D01*
X254Y1885D02*
X286Y1885D01*
X367Y1885D02*
X399Y1885D01*
X254Y1884D02*
X287Y1884D01*
X367Y1884D02*
X399Y1884D01*
X254Y1883D02*
X287Y1883D01*
X366Y1883D02*
X399Y1883D01*
X254Y1882D02*
X288Y1882D01*
X365Y1882D02*
X399Y1882D01*
X254Y1881D02*
X289Y1881D01*
X364Y1881D02*
X399Y1881D01*
X254Y1880D02*
X290Y1880D01*
X364Y1880D02*
X399Y1880D01*
X254Y1879D02*
X290Y1879D01*
X363Y1879D02*
X399Y1879D01*
X254Y1878D02*
X291Y1878D01*
X362Y1878D02*
X399Y1878D01*
X254Y1877D02*
X292Y1877D01*
X361Y1877D02*
X399Y1877D01*
X254Y1876D02*
X293Y1876D01*
X360Y1876D02*
X399Y1876D01*
X254Y1875D02*
X294Y1875D01*
X359Y1875D02*
X399Y1875D01*
X254Y1874D02*
X295Y1874D01*
X358Y1874D02*
X399Y1874D01*
X254Y1873D02*
X297Y1873D01*
X356Y1873D02*
X399Y1873D01*
X254Y1872D02*
X298Y1872D01*
X355Y1872D02*
X399Y1872D01*
X254Y1871D02*
X299Y1871D01*
X354Y1871D02*
X399Y1871D01*
X254Y1870D02*
X301Y1870D01*
X352Y1870D02*
X399Y1870D01*
X254Y1869D02*
X303Y1869D01*
X351Y1869D02*
X399Y1869D01*
X254Y1868D02*
X304Y1868D01*
X349Y1868D02*
X399Y1868D01*
X254Y1867D02*
X306Y1867D01*
X347Y1867D02*
X399Y1867D01*
X254Y1866D02*
X309Y1866D01*
X344Y1866D02*
X399Y1866D01*
X254Y1865D02*
X312Y1865D01*
X342Y1865D02*
X399Y1865D01*
X254Y1864D02*
X315Y1864D01*
X338Y1864D02*
X399Y1864D01*
X254Y1863D02*
X321Y1863D01*
X332Y1863D02*
X399Y1863D01*
X254Y1862D02*
X399Y1862D01*
X254Y1861D02*
X399Y1861D01*
X254Y1860D02*
X399Y1860D01*
X254Y1859D02*
X399Y1859D01*
X254Y1858D02*
X399Y1858D01*
X254Y1857D02*
X399Y1857D01*
X254Y1856D02*
X399Y1856D01*
X254Y1855D02*
X399Y1855D01*
X254Y1854D02*
X399Y1854D01*
X254Y1853D02*
X399Y1853D01*
X254Y1852D02*
X399Y1852D01*
X254Y1851D02*
X399Y1851D01*
X254Y1850D02*
X399Y1850D01*
X254Y1849D02*
X399Y1849D01*
X254Y1848D02*
X399Y1848D01*
X254Y1847D02*
X399Y1847D01*
X254Y1846D02*
X399Y1846D01*
X254Y1845D02*
X399Y1845D01*
X254Y1844D02*
X399Y1844D01*
X254Y1843D02*
X399Y1843D01*
X254Y1842D02*
X399Y1842D01*
X254Y1841D02*
X399Y1841D01*
X254Y1840D02*
X399Y1840D01*
X254Y1839D02*
X399Y1839D01*
X254Y1838D02*
X399Y1838D01*
X5054Y1743D02*
X5198Y1743D01*
X5054Y1742D02*
X5198Y1742D01*
X5054Y1741D02*
X5198Y1741D01*
X5054Y1740D02*
X5198Y1740D01*
X5054Y1739D02*
X5198Y1739D01*
X5054Y1738D02*
X5198Y1738D01*
X5054Y1737D02*
X5198Y1737D01*
X5054Y1736D02*
X5198Y1736D01*
X5054Y1735D02*
X5198Y1735D01*
X5054Y1734D02*
X5198Y1734D01*
X5054Y1733D02*
X5198Y1733D01*
X5054Y1732D02*
X5198Y1732D01*
X5054Y1731D02*
X5198Y1731D01*
X5054Y1730D02*
X5198Y1730D01*
X5054Y1729D02*
X5198Y1729D01*
X5054Y1728D02*
X5198Y1728D01*
X5054Y1727D02*
X5198Y1727D01*
X5054Y1726D02*
X5198Y1726D01*
X5054Y1725D02*
X5198Y1725D01*
X5054Y1724D02*
X5198Y1724D01*
X5054Y1723D02*
X5198Y1723D01*
X5054Y1722D02*
X5198Y1722D01*
X5054Y1721D02*
X5198Y1721D01*
X5054Y1720D02*
X5198Y1720D01*
X5054Y1719D02*
X5198Y1719D01*
X5054Y1718D02*
X5198Y1718D01*
X5054Y1717D02*
X5117Y1717D01*
X5136Y1717D02*
X5198Y1717D01*
X5054Y1716D02*
X5113Y1716D01*
X5140Y1716D02*
X5198Y1716D01*
X5054Y1715D02*
X5110Y1715D01*
X5143Y1715D02*
X5198Y1715D01*
X5054Y1714D02*
X5107Y1714D01*
X5145Y1714D02*
X5198Y1714D01*
X5054Y1713D02*
X5105Y1713D01*
X5147Y1713D02*
X5198Y1713D01*
X5054Y1712D02*
X5103Y1712D01*
X5149Y1712D02*
X5198Y1712D01*
X5054Y1711D02*
X5101Y1711D01*
X5151Y1711D02*
X5198Y1711D01*
X5054Y1710D02*
X5100Y1710D01*
X5153Y1710D02*
X5198Y1710D01*
X5054Y1709D02*
X5098Y1709D01*
X5154Y1709D02*
X5198Y1709D01*
X5054Y1708D02*
X5097Y1708D01*
X5155Y1708D02*
X5198Y1708D01*
X5054Y1707D02*
X5095Y1707D01*
X5157Y1707D02*
X5198Y1707D01*
X5054Y1706D02*
X5094Y1706D01*
X5158Y1706D02*
X5198Y1706D01*
X5054Y1705D02*
X5093Y1705D01*
X5159Y1705D02*
X5198Y1705D01*
X5054Y1704D02*
X5092Y1704D01*
X5160Y1704D02*
X5198Y1704D01*
X5054Y1703D02*
X5091Y1703D01*
X5161Y1703D02*
X5198Y1703D01*
X5054Y1702D02*
X5090Y1702D01*
X5162Y1702D02*
X5198Y1702D01*
X5054Y1701D02*
X5089Y1701D01*
X5163Y1701D02*
X5198Y1701D01*
X5054Y1700D02*
X5089Y1700D01*
X5164Y1700D02*
X5198Y1700D01*
X5054Y1699D02*
X5088Y1699D01*
X5164Y1699D02*
X5198Y1699D01*
X5054Y1698D02*
X5087Y1698D01*
X5165Y1698D02*
X5198Y1698D01*
X5054Y1697D02*
X5086Y1697D01*
X5166Y1697D02*
X5198Y1697D01*
X5054Y1696D02*
X5086Y1696D01*
X5166Y1696D02*
X5198Y1696D01*
X5054Y1695D02*
X5085Y1695D01*
X5167Y1695D02*
X5198Y1695D01*
X5054Y1694D02*
X5085Y1694D01*
X5168Y1694D02*
X5198Y1694D01*
X5054Y1693D02*
X5084Y1693D01*
X5168Y1693D02*
X5198Y1693D01*
X5054Y1692D02*
X5084Y1692D01*
X5169Y1692D02*
X5198Y1692D01*
X5054Y1691D02*
X5083Y1691D01*
X5169Y1691D02*
X5198Y1691D01*
X5054Y1690D02*
X5083Y1690D01*
X5170Y1690D02*
X5198Y1690D01*
X5054Y1689D02*
X5082Y1689D01*
X5170Y1689D02*
X5198Y1689D01*
X5054Y1688D02*
X5082Y1688D01*
X5171Y1688D02*
X5198Y1688D01*
X5054Y1687D02*
X5081Y1687D01*
X5171Y1687D02*
X5198Y1687D01*
X5054Y1686D02*
X5081Y1686D01*
X5171Y1686D02*
X5198Y1686D01*
X5054Y1685D02*
X5081Y1685D01*
X5172Y1685D02*
X5198Y1685D01*
X5054Y1684D02*
X5080Y1684D01*
X5172Y1684D02*
X5198Y1684D01*
X5054Y1683D02*
X5080Y1683D01*
X5172Y1683D02*
X5198Y1683D01*
X5054Y1682D02*
X5080Y1682D01*
X5172Y1682D02*
X5198Y1682D01*
X5054Y1681D02*
X5080Y1681D01*
X5173Y1681D02*
X5198Y1681D01*
X5054Y1680D02*
X5079Y1680D01*
X5173Y1680D02*
X5198Y1680D01*
X5054Y1679D02*
X5079Y1679D01*
X5173Y1679D02*
X5198Y1679D01*
X5054Y1678D02*
X5079Y1678D01*
X5173Y1678D02*
X5198Y1678D01*
X5054Y1677D02*
X5079Y1677D01*
X5173Y1677D02*
X5198Y1677D01*
X5054Y1676D02*
X5079Y1676D01*
X5174Y1676D02*
X5198Y1676D01*
X5054Y1675D02*
X5079Y1675D01*
X5174Y1675D02*
X5198Y1675D01*
X5054Y1674D02*
X5079Y1674D01*
X5174Y1674D02*
X5198Y1674D01*
X5054Y1673D02*
X5078Y1673D01*
X5174Y1673D02*
X5198Y1673D01*
X5054Y1672D02*
X5078Y1672D01*
X5174Y1672D02*
X5198Y1672D01*
X5054Y1671D02*
X5078Y1671D01*
X5174Y1671D02*
X5198Y1671D01*
X5054Y1670D02*
X5078Y1670D01*
X5174Y1670D02*
X5198Y1670D01*
X5054Y1669D02*
X5078Y1669D01*
X5174Y1669D02*
X5198Y1669D01*
X5054Y1668D02*
X5079Y1668D01*
X5174Y1668D02*
X5198Y1668D01*
X5054Y1667D02*
X5079Y1667D01*
X5174Y1667D02*
X5198Y1667D01*
X5054Y1666D02*
X5079Y1666D01*
X5174Y1666D02*
X5198Y1666D01*
X5054Y1665D02*
X5079Y1665D01*
X5173Y1665D02*
X5198Y1665D01*
X5054Y1664D02*
X5079Y1664D01*
X5173Y1664D02*
X5198Y1664D01*
X5054Y1663D02*
X5079Y1663D01*
X5173Y1663D02*
X5198Y1663D01*
X5054Y1662D02*
X5079Y1662D01*
X5173Y1662D02*
X5198Y1662D01*
X5054Y1661D02*
X5079Y1661D01*
X5173Y1661D02*
X5198Y1661D01*
X5054Y1660D02*
X5080Y1660D01*
X5173Y1660D02*
X5198Y1660D01*
X5054Y1659D02*
X5080Y1659D01*
X5172Y1659D02*
X5198Y1659D01*
X5054Y1658D02*
X5080Y1658D01*
X5172Y1658D02*
X5198Y1658D01*
X5054Y1657D02*
X5080Y1657D01*
X5172Y1657D02*
X5198Y1657D01*
X5054Y1656D02*
X5081Y1656D01*
X5172Y1656D02*
X5198Y1656D01*
X5054Y1655D02*
X5081Y1655D01*
X5171Y1655D02*
X5198Y1655D01*
X5054Y1654D02*
X5081Y1654D01*
X5171Y1654D02*
X5198Y1654D01*
X5054Y1653D02*
X5082Y1653D01*
X5170Y1653D02*
X5198Y1653D01*
X5054Y1652D02*
X5082Y1652D01*
X5170Y1652D02*
X5198Y1652D01*
X5054Y1651D02*
X5083Y1651D01*
X5170Y1651D02*
X5198Y1651D01*
X5054Y1650D02*
X5083Y1650D01*
X5169Y1650D02*
X5198Y1650D01*
X5054Y1649D02*
X5084Y1649D01*
X5169Y1649D02*
X5198Y1649D01*
X5054Y1648D02*
X5084Y1648D01*
X5168Y1648D02*
X5198Y1648D01*
X5054Y1647D02*
X5085Y1647D01*
X5167Y1647D02*
X5198Y1647D01*
X5054Y1646D02*
X5085Y1646D01*
X5167Y1646D02*
X5198Y1646D01*
X5054Y1645D02*
X5086Y1645D01*
X5166Y1645D02*
X5198Y1645D01*
X5054Y1644D02*
X5087Y1644D01*
X5166Y1644D02*
X5198Y1644D01*
X5054Y1643D02*
X5087Y1643D01*
X5165Y1643D02*
X5198Y1643D01*
X5054Y1642D02*
X5088Y1642D01*
X5164Y1642D02*
X5198Y1642D01*
X5054Y1641D02*
X5089Y1641D01*
X5163Y1641D02*
X5198Y1641D01*
X5054Y1640D02*
X5090Y1640D01*
X5163Y1640D02*
X5198Y1640D01*
X5054Y1639D02*
X5091Y1639D01*
X5162Y1639D02*
X5198Y1639D01*
X5054Y1638D02*
X5092Y1638D01*
X5161Y1638D02*
X5198Y1638D01*
X5054Y1637D02*
X5092Y1637D01*
X5160Y1637D02*
X5198Y1637D01*
X5054Y1636D02*
X5094Y1636D01*
X5159Y1636D02*
X5198Y1636D01*
X5054Y1635D02*
X5095Y1635D01*
X5158Y1635D02*
X5198Y1635D01*
X5054Y1634D02*
X5096Y1634D01*
X5156Y1634D02*
X5198Y1634D01*
X5054Y1633D02*
X5097Y1633D01*
X5155Y1633D02*
X5198Y1633D01*
X5054Y1632D02*
X5098Y1632D01*
X5154Y1632D02*
X5198Y1632D01*
X5054Y1631D02*
X5100Y1631D01*
X5152Y1631D02*
X5198Y1631D01*
X5054Y1630D02*
X5102Y1630D01*
X5151Y1630D02*
X5198Y1630D01*
X5054Y1629D02*
X5103Y1629D01*
X5149Y1629D02*
X5198Y1629D01*
X5054Y1628D02*
X5105Y1628D01*
X5147Y1628D02*
X5198Y1628D01*
X5054Y1627D02*
X5108Y1627D01*
X5145Y1627D02*
X5198Y1627D01*
X5054Y1626D02*
X5110Y1626D01*
X5142Y1626D02*
X5198Y1626D01*
X5054Y1625D02*
X5114Y1625D01*
X5139Y1625D02*
X5198Y1625D01*
X5054Y1624D02*
X5118Y1624D01*
X5134Y1624D02*
X5198Y1624D01*
X5054Y1623D02*
X5198Y1623D01*
X5054Y1622D02*
X5198Y1622D01*
X5054Y1621D02*
X5198Y1621D01*
X5054Y1620D02*
X5198Y1620D01*
X5054Y1619D02*
X5198Y1619D01*
X5054Y1618D02*
X5198Y1618D01*
X5054Y1617D02*
X5198Y1617D01*
X5054Y1616D02*
X5198Y1616D01*
X5054Y1615D02*
X5198Y1615D01*
X5054Y1614D02*
X5198Y1614D01*
X5054Y1613D02*
X5198Y1613D01*
X5054Y1612D02*
X5198Y1612D01*
X5054Y1611D02*
X5198Y1611D01*
X5054Y1610D02*
X5198Y1610D01*
X5054Y1609D02*
X5198Y1609D01*
X5054Y1608D02*
X5198Y1608D01*
X5054Y1607D02*
X5198Y1607D01*
X5054Y1606D02*
X5198Y1606D01*
X5054Y1605D02*
X5198Y1605D01*
X5054Y1604D02*
X5198Y1604D01*
X5054Y1603D02*
X5198Y1603D01*
X5054Y1602D02*
X5198Y1602D01*
X5054Y1601D02*
X5198Y1601D01*
X5054Y1600D02*
X5198Y1600D01*
X5054Y1599D02*
X5198Y1599D01*
X5054Y1598D02*
X5198Y1598D01*
X774Y363D02*
X919Y363D01*
X2074Y363D02*
X2218Y363D01*
X3554Y363D02*
X3699Y363D01*
X4873Y363D02*
X5018Y363D01*
X774Y362D02*
X919Y362D01*
X2074Y362D02*
X2218Y362D01*
X3554Y362D02*
X3699Y362D01*
X4873Y362D02*
X5018Y362D01*
X774Y361D02*
X919Y361D01*
X2074Y361D02*
X2218Y361D01*
X3554Y361D02*
X3699Y361D01*
X4873Y361D02*
X5018Y361D01*
X774Y360D02*
X919Y360D01*
X2074Y360D02*
X2218Y360D01*
X3554Y360D02*
X3699Y360D01*
X4873Y360D02*
X5018Y360D01*
X774Y359D02*
X919Y359D01*
X2074Y359D02*
X2218Y359D01*
X3554Y359D02*
X3699Y359D01*
X4873Y359D02*
X5018Y359D01*
X774Y358D02*
X919Y358D01*
X2074Y358D02*
X2218Y358D01*
X3554Y358D02*
X3699Y358D01*
X4873Y358D02*
X5018Y358D01*
X774Y357D02*
X919Y357D01*
X2074Y357D02*
X2218Y357D01*
X3554Y357D02*
X3699Y357D01*
X4873Y357D02*
X5018Y357D01*
X774Y356D02*
X919Y356D01*
X2074Y356D02*
X2218Y356D01*
X3554Y356D02*
X3699Y356D01*
X4873Y356D02*
X5018Y356D01*
X774Y355D02*
X919Y355D01*
X2074Y355D02*
X2218Y355D01*
X3554Y355D02*
X3699Y355D01*
X4873Y355D02*
X5018Y355D01*
X774Y354D02*
X919Y354D01*
X2074Y354D02*
X2218Y354D01*
X3554Y354D02*
X3699Y354D01*
X4873Y354D02*
X5018Y354D01*
X774Y353D02*
X919Y353D01*
X2074Y353D02*
X2218Y353D01*
X3554Y353D02*
X3699Y353D01*
X4873Y353D02*
X5018Y353D01*
X774Y352D02*
X919Y352D01*
X2074Y352D02*
X2218Y352D01*
X3554Y352D02*
X3699Y352D01*
X4873Y352D02*
X5018Y352D01*
X774Y351D02*
X919Y351D01*
X2074Y351D02*
X2218Y351D01*
X3554Y351D02*
X3699Y351D01*
X4873Y351D02*
X5018Y351D01*
X774Y350D02*
X919Y350D01*
X2074Y350D02*
X2218Y350D01*
X3554Y350D02*
X3699Y350D01*
X4873Y350D02*
X5018Y350D01*
X774Y349D02*
X919Y349D01*
X2074Y349D02*
X2218Y349D01*
X3554Y349D02*
X3699Y349D01*
X4873Y349D02*
X5018Y349D01*
X774Y348D02*
X919Y348D01*
X2074Y348D02*
X2218Y348D01*
X3554Y348D02*
X3699Y348D01*
X4873Y348D02*
X5018Y348D01*
X774Y347D02*
X919Y347D01*
X2074Y347D02*
X2218Y347D01*
X3554Y347D02*
X3699Y347D01*
X4873Y347D02*
X5018Y347D01*
X774Y346D02*
X919Y346D01*
X2074Y346D02*
X2218Y346D01*
X3554Y346D02*
X3699Y346D01*
X4873Y346D02*
X5018Y346D01*
X774Y345D02*
X919Y345D01*
X2074Y345D02*
X2218Y345D01*
X3554Y345D02*
X3699Y345D01*
X4873Y345D02*
X5018Y345D01*
X774Y344D02*
X919Y344D01*
X2074Y344D02*
X2218Y344D01*
X3554Y344D02*
X3699Y344D01*
X4873Y344D02*
X5018Y344D01*
X774Y343D02*
X919Y343D01*
X2074Y343D02*
X2218Y343D01*
X3554Y343D02*
X3699Y343D01*
X4873Y343D02*
X5018Y343D01*
X774Y342D02*
X919Y342D01*
X2074Y342D02*
X2218Y342D01*
X3554Y342D02*
X3699Y342D01*
X4873Y342D02*
X5018Y342D01*
X774Y341D02*
X919Y341D01*
X2074Y341D02*
X2218Y341D01*
X3554Y341D02*
X3699Y341D01*
X4873Y341D02*
X5018Y341D01*
X774Y340D02*
X919Y340D01*
X2074Y340D02*
X2218Y340D01*
X3554Y340D02*
X3699Y340D01*
X4873Y340D02*
X5018Y340D01*
X774Y339D02*
X919Y339D01*
X2074Y339D02*
X2218Y339D01*
X3554Y339D02*
X3699Y339D01*
X4873Y339D02*
X5018Y339D01*
X774Y338D02*
X919Y338D01*
X2074Y338D02*
X2218Y338D01*
X3554Y338D02*
X3699Y338D01*
X4873Y338D02*
X5018Y338D01*
X774Y337D02*
X837Y337D01*
X856Y337D02*
X919Y337D01*
X2074Y337D02*
X2136Y337D01*
X2156Y337D02*
X2218Y337D01*
X3554Y337D02*
X3617Y337D01*
X3636Y337D02*
X3699Y337D01*
X4873Y337D02*
X4936Y337D01*
X4955Y337D02*
X5018Y337D01*
X774Y336D02*
X832Y336D01*
X860Y336D02*
X919Y336D01*
X2074Y336D02*
X2132Y336D01*
X2160Y336D02*
X2218Y336D01*
X3554Y336D02*
X3613Y336D01*
X3640Y336D02*
X3699Y336D01*
X4873Y336D02*
X4932Y336D01*
X4960Y336D02*
X5018Y336D01*
X774Y335D02*
X830Y335D01*
X863Y335D02*
X919Y335D01*
X2074Y335D02*
X2129Y335D01*
X2163Y335D02*
X2218Y335D01*
X3554Y335D02*
X3610Y335D01*
X3643Y335D02*
X3699Y335D01*
X4873Y335D02*
X4929Y335D01*
X4962Y335D02*
X5018Y335D01*
X774Y334D02*
X827Y334D01*
X865Y334D02*
X919Y334D01*
X2074Y334D02*
X2127Y334D01*
X2165Y334D02*
X2218Y334D01*
X3554Y334D02*
X3607Y334D01*
X3646Y334D02*
X3699Y334D01*
X4873Y334D02*
X4927Y334D01*
X4965Y334D02*
X5018Y334D01*
X774Y333D02*
X825Y333D01*
X868Y333D02*
X919Y333D01*
X2074Y333D02*
X2125Y333D01*
X2167Y333D02*
X2218Y333D01*
X3554Y333D02*
X3605Y333D01*
X3648Y333D02*
X3699Y333D01*
X4873Y333D02*
X4924Y333D01*
X4967Y333D02*
X5018Y333D01*
X774Y332D02*
X823Y332D01*
X870Y332D02*
X919Y332D01*
X2074Y332D02*
X2123Y332D01*
X2169Y332D02*
X2218Y332D01*
X3554Y332D02*
X3603Y332D01*
X3650Y332D02*
X3699Y332D01*
X4873Y332D02*
X4922Y332D01*
X4969Y332D02*
X5018Y332D01*
X774Y331D02*
X821Y331D01*
X871Y331D02*
X919Y331D01*
X2074Y331D02*
X2121Y331D01*
X2171Y331D02*
X2218Y331D01*
X3554Y331D02*
X3601Y331D01*
X3651Y331D02*
X3699Y331D01*
X4873Y331D02*
X4921Y331D01*
X4971Y331D02*
X5018Y331D01*
X774Y330D02*
X820Y330D01*
X873Y330D02*
X919Y330D01*
X2074Y330D02*
X2119Y330D01*
X2173Y330D02*
X2218Y330D01*
X3554Y330D02*
X3600Y330D01*
X3653Y330D02*
X3699Y330D01*
X4873Y330D02*
X4919Y330D01*
X4972Y330D02*
X5018Y330D01*
X774Y329D02*
X818Y329D01*
X874Y329D02*
X919Y329D01*
X2074Y329D02*
X2118Y329D01*
X2174Y329D02*
X2218Y329D01*
X3554Y329D02*
X3598Y329D01*
X3654Y329D02*
X3699Y329D01*
X4873Y329D02*
X4918Y329D01*
X4974Y329D02*
X5018Y329D01*
X774Y328D02*
X817Y328D01*
X876Y328D02*
X919Y328D01*
X2074Y328D02*
X2117Y328D01*
X2175Y328D02*
X2218Y328D01*
X3554Y328D02*
X3597Y328D01*
X3656Y328D02*
X3699Y328D01*
X4873Y328D02*
X4916Y328D01*
X4975Y328D02*
X5018Y328D01*
X774Y327D02*
X816Y327D01*
X877Y327D02*
X919Y327D01*
X2074Y327D02*
X2115Y327D01*
X2177Y327D02*
X2218Y327D01*
X3554Y327D02*
X3596Y327D01*
X3657Y327D02*
X3699Y327D01*
X4873Y327D02*
X4915Y327D01*
X4976Y327D02*
X5018Y327D01*
X774Y326D02*
X814Y326D01*
X878Y326D02*
X919Y326D01*
X2074Y326D02*
X2114Y326D01*
X2178Y326D02*
X2218Y326D01*
X3554Y326D02*
X3594Y326D01*
X3658Y326D02*
X3699Y326D01*
X4873Y326D02*
X4914Y326D01*
X4978Y326D02*
X5018Y326D01*
X774Y325D02*
X813Y325D01*
X879Y325D02*
X919Y325D01*
X2074Y325D02*
X2113Y325D01*
X2179Y325D02*
X2218Y325D01*
X3554Y325D02*
X3593Y325D01*
X3659Y325D02*
X3699Y325D01*
X4873Y325D02*
X4913Y325D01*
X4979Y325D02*
X5018Y325D01*
X774Y324D02*
X812Y324D01*
X880Y324D02*
X919Y324D01*
X2074Y324D02*
X2112Y324D01*
X2180Y324D02*
X2218Y324D01*
X3554Y324D02*
X3592Y324D01*
X3660Y324D02*
X3699Y324D01*
X4873Y324D02*
X4912Y324D01*
X4980Y324D02*
X5018Y324D01*
X774Y323D02*
X811Y323D01*
X881Y323D02*
X919Y323D01*
X2074Y323D02*
X2111Y323D01*
X2181Y323D02*
X2218Y323D01*
X3554Y323D02*
X3591Y323D01*
X3661Y323D02*
X3699Y323D01*
X4873Y323D02*
X4911Y323D01*
X4981Y323D02*
X5018Y323D01*
X774Y322D02*
X810Y322D01*
X882Y322D02*
X919Y322D01*
X2074Y322D02*
X2110Y322D01*
X2182Y322D02*
X2218Y322D01*
X3554Y322D02*
X3590Y322D01*
X3662Y322D02*
X3699Y322D01*
X4873Y322D02*
X4910Y322D01*
X4982Y322D02*
X5018Y322D01*
X774Y321D02*
X810Y321D01*
X883Y321D02*
X919Y321D01*
X2074Y321D02*
X2109Y321D01*
X2183Y321D02*
X2218Y321D01*
X3554Y321D02*
X3590Y321D01*
X3663Y321D02*
X3699Y321D01*
X4873Y321D02*
X4909Y321D01*
X4982Y321D02*
X5018Y321D01*
X774Y320D02*
X809Y320D01*
X884Y320D02*
X919Y320D01*
X2074Y320D02*
X2109Y320D01*
X2184Y320D02*
X2218Y320D01*
X3554Y320D02*
X3589Y320D01*
X3664Y320D02*
X3699Y320D01*
X4873Y320D02*
X4908Y320D01*
X4983Y320D02*
X5018Y320D01*
X774Y319D02*
X808Y319D01*
X884Y319D02*
X919Y319D01*
X2074Y319D02*
X2108Y319D01*
X2184Y319D02*
X2218Y319D01*
X3554Y319D02*
X3588Y319D01*
X3664Y319D02*
X3699Y319D01*
X4873Y319D02*
X4908Y319D01*
X4984Y319D02*
X5018Y319D01*
X774Y318D02*
X807Y318D01*
X885Y318D02*
X919Y318D01*
X2074Y318D02*
X2107Y318D01*
X2185Y318D02*
X2218Y318D01*
X3554Y318D02*
X3587Y318D01*
X3665Y318D02*
X3699Y318D01*
X4873Y318D02*
X4907Y318D01*
X4985Y318D02*
X5018Y318D01*
X774Y317D02*
X806Y317D01*
X886Y317D02*
X919Y317D01*
X2074Y317D02*
X2106Y317D01*
X2186Y317D02*
X2218Y317D01*
X3554Y317D02*
X3587Y317D01*
X3666Y317D02*
X3699Y317D01*
X4873Y317D02*
X4906Y317D01*
X4986Y317D02*
X5018Y317D01*
X774Y316D02*
X806Y316D01*
X887Y316D02*
X919Y316D01*
X2074Y316D02*
X2106Y316D01*
X2186Y316D02*
X2218Y316D01*
X3554Y316D02*
X3586Y316D01*
X3667Y316D02*
X3699Y316D01*
X4873Y316D02*
X4905Y316D01*
X4986Y316D02*
X5018Y316D01*
X774Y315D02*
X805Y315D01*
X887Y315D02*
X919Y315D01*
X2074Y315D02*
X2105Y315D01*
X2187Y315D02*
X2218Y315D01*
X3554Y315D02*
X3585Y315D01*
X3667Y315D02*
X3699Y315D01*
X4873Y315D02*
X4905Y315D01*
X4987Y315D02*
X5018Y315D01*
X774Y314D02*
X805Y314D01*
X888Y314D02*
X919Y314D01*
X2074Y314D02*
X2105Y314D01*
X2188Y314D02*
X2218Y314D01*
X3554Y314D02*
X3585Y314D01*
X3668Y314D02*
X3699Y314D01*
X4873Y314D02*
X4904Y314D01*
X4987Y314D02*
X5018Y314D01*
X774Y313D02*
X804Y313D01*
X888Y313D02*
X919Y313D01*
X2074Y313D02*
X2104Y313D01*
X2188Y313D02*
X2218Y313D01*
X3554Y313D02*
X3584Y313D01*
X3668Y313D02*
X3699Y313D01*
X4873Y313D02*
X4904Y313D01*
X4988Y313D02*
X5018Y313D01*
X774Y312D02*
X804Y312D01*
X889Y312D02*
X919Y312D01*
X2074Y312D02*
X2103Y312D01*
X2189Y312D02*
X2218Y312D01*
X3554Y312D02*
X3584Y312D01*
X3669Y312D02*
X3699Y312D01*
X4873Y312D02*
X4903Y312D01*
X4988Y312D02*
X5018Y312D01*
X774Y311D02*
X803Y311D01*
X889Y311D02*
X919Y311D01*
X2074Y311D02*
X2103Y311D01*
X2189Y311D02*
X2218Y311D01*
X3554Y311D02*
X3583Y311D01*
X3669Y311D02*
X3699Y311D01*
X4873Y311D02*
X4903Y311D01*
X4989Y311D02*
X5018Y311D01*
X774Y310D02*
X803Y310D01*
X890Y310D02*
X919Y310D01*
X2074Y310D02*
X2103Y310D01*
X2190Y310D02*
X2218Y310D01*
X3554Y310D02*
X3583Y310D01*
X3670Y310D02*
X3699Y310D01*
X4873Y310D02*
X4902Y310D01*
X4989Y310D02*
X5018Y310D01*
X774Y309D02*
X802Y309D01*
X890Y309D02*
X919Y309D01*
X2074Y309D02*
X2102Y309D01*
X2190Y309D02*
X2218Y309D01*
X3554Y309D02*
X3582Y309D01*
X3670Y309D02*
X3699Y309D01*
X4873Y309D02*
X4902Y309D01*
X4990Y309D02*
X5018Y309D01*
X774Y308D02*
X802Y308D01*
X891Y308D02*
X919Y308D01*
X2074Y308D02*
X2102Y308D01*
X2190Y308D02*
X2218Y308D01*
X3554Y308D02*
X3582Y308D01*
X3671Y308D02*
X3699Y308D01*
X4873Y308D02*
X4901Y308D01*
X4990Y308D02*
X5018Y308D01*
X774Y307D02*
X801Y307D01*
X891Y307D02*
X919Y307D01*
X2074Y307D02*
X2101Y307D01*
X2191Y307D02*
X2218Y307D01*
X3554Y307D02*
X3581Y307D01*
X3671Y307D02*
X3699Y307D01*
X4873Y307D02*
X4901Y307D01*
X4991Y307D02*
X5018Y307D01*
X774Y306D02*
X801Y306D01*
X891Y306D02*
X919Y306D01*
X2074Y306D02*
X2101Y306D01*
X2191Y306D02*
X2218Y306D01*
X3554Y306D02*
X3581Y306D01*
X3671Y306D02*
X3699Y306D01*
X4873Y306D02*
X4901Y306D01*
X4991Y306D02*
X5018Y306D01*
X774Y305D02*
X801Y305D01*
X892Y305D02*
X919Y305D01*
X2074Y305D02*
X2101Y305D01*
X2192Y305D02*
X2218Y305D01*
X3554Y305D02*
X3581Y305D01*
X3672Y305D02*
X3699Y305D01*
X4873Y305D02*
X4900Y305D01*
X4991Y305D02*
X5018Y305D01*
X774Y304D02*
X800Y304D01*
X892Y304D02*
X919Y304D01*
X2074Y304D02*
X2100Y304D01*
X2192Y304D02*
X2218Y304D01*
X3554Y304D02*
X3580Y304D01*
X3672Y304D02*
X3699Y304D01*
X4873Y304D02*
X4900Y304D01*
X4992Y304D02*
X5018Y304D01*
X774Y303D02*
X800Y303D01*
X892Y303D02*
X919Y303D01*
X2074Y303D02*
X2100Y303D01*
X2192Y303D02*
X2218Y303D01*
X3554Y303D02*
X3580Y303D01*
X3672Y303D02*
X3699Y303D01*
X4873Y303D02*
X4900Y303D01*
X4992Y303D02*
X5018Y303D01*
X774Y302D02*
X800Y302D01*
X893Y302D02*
X919Y302D01*
X2074Y302D02*
X2100Y302D01*
X2192Y302D02*
X2218Y302D01*
X3554Y302D02*
X3580Y302D01*
X3673Y302D02*
X3699Y302D01*
X4873Y302D02*
X4900Y302D01*
X4992Y302D02*
X5018Y302D01*
X774Y301D02*
X800Y301D01*
X893Y301D02*
X919Y301D01*
X2074Y301D02*
X2099Y301D01*
X2193Y301D02*
X2218Y301D01*
X3554Y301D02*
X3580Y301D01*
X3673Y301D02*
X3699Y301D01*
X4873Y301D02*
X4899Y301D01*
X4992Y301D02*
X5018Y301D01*
X774Y300D02*
X799Y300D01*
X893Y300D02*
X919Y300D01*
X2074Y300D02*
X2099Y300D01*
X2193Y300D02*
X2218Y300D01*
X3554Y300D02*
X3579Y300D01*
X3673Y300D02*
X3699Y300D01*
X4873Y300D02*
X4899Y300D01*
X4993Y300D02*
X5018Y300D01*
X774Y299D02*
X799Y299D01*
X893Y299D02*
X919Y299D01*
X2074Y299D02*
X2099Y299D01*
X2193Y299D02*
X2218Y299D01*
X3554Y299D02*
X3579Y299D01*
X3673Y299D02*
X3699Y299D01*
X4873Y299D02*
X4899Y299D01*
X4993Y299D02*
X5018Y299D01*
X774Y298D02*
X799Y298D01*
X893Y298D02*
X919Y298D01*
X2074Y298D02*
X2099Y298D01*
X2193Y298D02*
X2218Y298D01*
X3554Y298D02*
X3579Y298D01*
X3673Y298D02*
X3699Y298D01*
X4873Y298D02*
X4899Y298D01*
X4993Y298D02*
X5018Y298D01*
X774Y297D02*
X799Y297D01*
X893Y297D02*
X919Y297D01*
X2074Y297D02*
X2099Y297D01*
X2193Y297D02*
X2218Y297D01*
X3554Y297D02*
X3579Y297D01*
X3674Y297D02*
X3699Y297D01*
X4873Y297D02*
X4899Y297D01*
X4993Y297D02*
X5018Y297D01*
X774Y296D02*
X799Y296D01*
X894Y296D02*
X919Y296D01*
X2074Y296D02*
X2099Y296D01*
X2193Y296D02*
X2218Y296D01*
X3554Y296D02*
X3579Y296D01*
X3674Y296D02*
X3699Y296D01*
X4873Y296D02*
X4898Y296D01*
X4993Y296D02*
X5018Y296D01*
X774Y295D02*
X799Y295D01*
X894Y295D02*
X919Y295D01*
X2074Y295D02*
X2099Y295D01*
X2194Y295D02*
X2218Y295D01*
X3554Y295D02*
X3579Y295D01*
X3674Y295D02*
X3699Y295D01*
X4873Y295D02*
X4898Y295D01*
X4993Y295D02*
X5018Y295D01*
X774Y294D02*
X799Y294D01*
X894Y294D02*
X919Y294D01*
X2074Y294D02*
X2098Y294D01*
X2194Y294D02*
X2218Y294D01*
X3554Y294D02*
X3579Y294D01*
X3674Y294D02*
X3699Y294D01*
X4873Y294D02*
X4898Y294D01*
X4993Y294D02*
X5018Y294D01*
X774Y293D02*
X799Y293D01*
X894Y293D02*
X919Y293D01*
X2074Y293D02*
X2098Y293D01*
X2194Y293D02*
X2218Y293D01*
X3554Y293D02*
X3579Y293D01*
X3674Y293D02*
X3699Y293D01*
X4873Y293D02*
X4898Y293D01*
X4993Y293D02*
X5018Y293D01*
X774Y292D02*
X799Y292D01*
X894Y292D02*
X919Y292D01*
X2074Y292D02*
X2098Y292D01*
X2194Y292D02*
X2218Y292D01*
X3554Y292D02*
X3579Y292D01*
X3674Y292D02*
X3699Y292D01*
X4873Y292D02*
X4898Y292D01*
X4993Y292D02*
X5018Y292D01*
X774Y291D02*
X798Y291D01*
X894Y291D02*
X919Y291D01*
X2074Y291D02*
X2098Y291D01*
X2194Y291D02*
X2218Y291D01*
X3554Y291D02*
X3579Y291D01*
X3674Y291D02*
X3699Y291D01*
X4873Y291D02*
X4898Y291D01*
X4994Y291D02*
X5018Y291D01*
X774Y290D02*
X798Y290D01*
X894Y290D02*
X919Y290D01*
X2074Y290D02*
X2098Y290D01*
X2194Y290D02*
X2218Y290D01*
X3554Y290D02*
X3579Y290D01*
X3674Y290D02*
X3699Y290D01*
X4873Y290D02*
X4898Y290D01*
X4994Y290D02*
X5018Y290D01*
X774Y289D02*
X799Y289D01*
X894Y289D02*
X919Y289D01*
X2074Y289D02*
X2098Y289D01*
X2194Y289D02*
X2218Y289D01*
X3554Y289D02*
X3579Y289D01*
X3674Y289D02*
X3699Y289D01*
X4873Y289D02*
X4898Y289D01*
X4993Y289D02*
X5018Y289D01*
X774Y288D02*
X799Y288D01*
X894Y288D02*
X919Y288D01*
X2074Y288D02*
X2098Y288D01*
X2194Y288D02*
X2218Y288D01*
X3554Y288D02*
X3579Y288D01*
X3674Y288D02*
X3699Y288D01*
X4873Y288D02*
X4898Y288D01*
X4993Y288D02*
X5018Y288D01*
X774Y287D02*
X799Y287D01*
X894Y287D02*
X919Y287D01*
X2074Y287D02*
X2099Y287D01*
X2194Y287D02*
X2218Y287D01*
X3554Y287D02*
X3579Y287D01*
X3674Y287D02*
X3699Y287D01*
X4873Y287D02*
X4898Y287D01*
X4993Y287D02*
X5018Y287D01*
X774Y286D02*
X799Y286D01*
X894Y286D02*
X919Y286D01*
X2074Y286D02*
X2099Y286D01*
X2194Y286D02*
X2218Y286D01*
X3554Y286D02*
X3579Y286D01*
X3674Y286D02*
X3699Y286D01*
X4873Y286D02*
X4898Y286D01*
X4993Y286D02*
X5018Y286D01*
X774Y285D02*
X799Y285D01*
X894Y285D02*
X919Y285D01*
X2074Y285D02*
X2099Y285D01*
X2193Y285D02*
X2218Y285D01*
X3554Y285D02*
X3579Y285D01*
X3674Y285D02*
X3699Y285D01*
X4873Y285D02*
X4898Y285D01*
X4993Y285D02*
X5018Y285D01*
X774Y284D02*
X799Y284D01*
X893Y284D02*
X919Y284D01*
X2074Y284D02*
X2099Y284D01*
X2193Y284D02*
X2218Y284D01*
X3554Y284D02*
X3579Y284D01*
X3673Y284D02*
X3699Y284D01*
X4873Y284D02*
X4899Y284D01*
X4993Y284D02*
X5018Y284D01*
X774Y283D02*
X799Y283D01*
X893Y283D02*
X919Y283D01*
X2074Y283D02*
X2099Y283D01*
X2193Y283D02*
X2218Y283D01*
X3554Y283D02*
X3579Y283D01*
X3673Y283D02*
X3699Y283D01*
X4873Y283D02*
X4899Y283D01*
X4993Y283D02*
X5018Y283D01*
X774Y282D02*
X799Y282D01*
X893Y282D02*
X919Y282D01*
X2074Y282D02*
X2099Y282D01*
X2193Y282D02*
X2218Y282D01*
X3554Y282D02*
X3579Y282D01*
X3673Y282D02*
X3699Y282D01*
X4873Y282D02*
X4899Y282D01*
X4993Y282D02*
X5018Y282D01*
X774Y281D02*
X799Y281D01*
X893Y281D02*
X919Y281D01*
X2074Y281D02*
X2099Y281D01*
X2193Y281D02*
X2218Y281D01*
X3554Y281D02*
X3580Y281D01*
X3673Y281D02*
X3699Y281D01*
X4873Y281D02*
X4899Y281D01*
X4993Y281D02*
X5018Y281D01*
X774Y280D02*
X800Y280D01*
X893Y280D02*
X919Y280D01*
X2074Y280D02*
X2100Y280D01*
X2193Y280D02*
X2218Y280D01*
X3554Y280D02*
X3580Y280D01*
X3673Y280D02*
X3699Y280D01*
X4873Y280D02*
X4899Y280D01*
X4992Y280D02*
X5018Y280D01*
X774Y279D02*
X800Y279D01*
X892Y279D02*
X919Y279D01*
X2074Y279D02*
X2100Y279D01*
X2192Y279D02*
X2218Y279D01*
X3554Y279D02*
X3580Y279D01*
X3672Y279D02*
X3699Y279D01*
X4873Y279D02*
X4900Y279D01*
X4992Y279D02*
X5018Y279D01*
X774Y278D02*
X800Y278D01*
X892Y278D02*
X919Y278D01*
X2074Y278D02*
X2100Y278D01*
X2192Y278D02*
X2218Y278D01*
X3554Y278D02*
X3580Y278D01*
X3672Y278D02*
X3699Y278D01*
X4873Y278D02*
X4900Y278D01*
X4992Y278D02*
X5018Y278D01*
X774Y277D02*
X800Y277D01*
X892Y277D02*
X919Y277D01*
X2074Y277D02*
X2100Y277D01*
X2192Y277D02*
X2218Y277D01*
X3554Y277D02*
X3581Y277D01*
X3672Y277D02*
X3699Y277D01*
X4873Y277D02*
X4900Y277D01*
X4992Y277D02*
X5018Y277D01*
X774Y276D02*
X801Y276D01*
X892Y276D02*
X919Y276D01*
X2074Y276D02*
X2101Y276D01*
X2191Y276D02*
X2218Y276D01*
X3554Y276D02*
X3581Y276D01*
X3672Y276D02*
X3699Y276D01*
X4873Y276D02*
X4900Y276D01*
X4991Y276D02*
X5018Y276D01*
X774Y275D02*
X801Y275D01*
X891Y275D02*
X919Y275D01*
X2074Y275D02*
X2101Y275D01*
X2191Y275D02*
X2218Y275D01*
X3554Y275D02*
X3581Y275D01*
X3671Y275D02*
X3699Y275D01*
X4873Y275D02*
X4901Y275D01*
X4991Y275D02*
X5018Y275D01*
X774Y274D02*
X802Y274D01*
X891Y274D02*
X919Y274D01*
X2074Y274D02*
X2101Y274D01*
X2191Y274D02*
X2218Y274D01*
X3554Y274D02*
X3582Y274D01*
X3671Y274D02*
X3699Y274D01*
X4873Y274D02*
X4901Y274D01*
X4990Y274D02*
X5018Y274D01*
X774Y273D02*
X802Y273D01*
X890Y273D02*
X919Y273D01*
X2074Y273D02*
X2102Y273D01*
X2190Y273D02*
X2218Y273D01*
X3554Y273D02*
X3582Y273D01*
X3671Y273D02*
X3699Y273D01*
X4873Y273D02*
X4902Y273D01*
X4990Y273D02*
X5018Y273D01*
X774Y272D02*
X802Y272D01*
X890Y272D02*
X919Y272D01*
X2074Y272D02*
X2102Y272D01*
X2190Y272D02*
X2218Y272D01*
X3554Y272D02*
X3582Y272D01*
X3670Y272D02*
X3699Y272D01*
X4873Y272D02*
X4902Y272D01*
X4990Y272D02*
X5018Y272D01*
X774Y271D02*
X803Y271D01*
X890Y271D02*
X919Y271D01*
X2074Y271D02*
X2103Y271D01*
X2189Y271D02*
X2218Y271D01*
X3554Y271D02*
X3583Y271D01*
X3670Y271D02*
X3699Y271D01*
X4873Y271D02*
X4902Y271D01*
X4989Y271D02*
X5018Y271D01*
X774Y270D02*
X803Y270D01*
X889Y270D02*
X919Y270D01*
X2074Y270D02*
X2103Y270D01*
X2189Y270D02*
X2218Y270D01*
X3554Y270D02*
X3583Y270D01*
X3669Y270D02*
X3699Y270D01*
X4873Y270D02*
X4903Y270D01*
X4989Y270D02*
X5018Y270D01*
X774Y269D02*
X804Y269D01*
X889Y269D02*
X919Y269D01*
X2074Y269D02*
X2104Y269D01*
X2189Y269D02*
X2218Y269D01*
X3554Y269D02*
X3584Y269D01*
X3669Y269D02*
X3699Y269D01*
X4873Y269D02*
X4903Y269D01*
X4988Y269D02*
X5018Y269D01*
X774Y268D02*
X804Y268D01*
X888Y268D02*
X919Y268D01*
X2074Y268D02*
X2104Y268D01*
X2188Y268D02*
X2218Y268D01*
X3554Y268D02*
X3584Y268D01*
X3668Y268D02*
X3699Y268D01*
X4873Y268D02*
X4904Y268D01*
X4988Y268D02*
X5018Y268D01*
X774Y267D02*
X805Y267D01*
X888Y267D02*
X919Y267D01*
X2074Y267D02*
X2105Y267D01*
X2187Y267D02*
X2218Y267D01*
X3554Y267D02*
X3585Y267D01*
X3668Y267D02*
X3699Y267D01*
X4873Y267D02*
X4904Y267D01*
X4987Y267D02*
X5018Y267D01*
X774Y266D02*
X805Y266D01*
X887Y266D02*
X919Y266D01*
X2074Y266D02*
X2105Y266D01*
X2187Y266D02*
X2218Y266D01*
X3554Y266D02*
X3586Y266D01*
X3667Y266D02*
X3699Y266D01*
X4873Y266D02*
X4905Y266D01*
X4987Y266D02*
X5018Y266D01*
X774Y265D02*
X806Y265D01*
X886Y265D02*
X919Y265D01*
X2074Y265D02*
X2106Y265D01*
X2186Y265D02*
X2218Y265D01*
X3554Y265D02*
X3586Y265D01*
X3666Y265D02*
X3699Y265D01*
X4873Y265D02*
X4906Y265D01*
X4986Y265D02*
X5018Y265D01*
X774Y264D02*
X807Y264D01*
X886Y264D02*
X919Y264D01*
X2074Y264D02*
X2107Y264D01*
X2186Y264D02*
X2218Y264D01*
X3554Y264D02*
X3587Y264D01*
X3666Y264D02*
X3699Y264D01*
X4873Y264D02*
X4906Y264D01*
X4985Y264D02*
X5018Y264D01*
X774Y263D02*
X807Y263D01*
X885Y263D02*
X919Y263D01*
X2074Y263D02*
X2107Y263D01*
X2185Y263D02*
X2218Y263D01*
X3554Y263D02*
X3588Y263D01*
X3665Y263D02*
X3699Y263D01*
X4873Y263D02*
X4907Y263D01*
X4985Y263D02*
X5018Y263D01*
X774Y262D02*
X808Y262D01*
X884Y262D02*
X919Y262D01*
X2074Y262D02*
X2108Y262D01*
X2184Y262D02*
X2218Y262D01*
X3554Y262D02*
X3588Y262D01*
X3664Y262D02*
X3699Y262D01*
X4873Y262D02*
X4908Y262D01*
X4984Y262D02*
X5018Y262D01*
X774Y261D02*
X809Y261D01*
X883Y261D02*
X919Y261D01*
X2074Y261D02*
X2109Y261D01*
X2183Y261D02*
X2218Y261D01*
X3554Y261D02*
X3589Y261D01*
X3663Y261D02*
X3699Y261D01*
X4873Y261D02*
X4909Y261D01*
X4983Y261D02*
X5018Y261D01*
X774Y260D02*
X810Y260D01*
X883Y260D02*
X919Y260D01*
X2074Y260D02*
X2110Y260D01*
X2182Y260D02*
X2218Y260D01*
X3554Y260D02*
X3590Y260D01*
X3663Y260D02*
X3699Y260D01*
X4873Y260D02*
X4909Y260D01*
X4982Y260D02*
X5018Y260D01*
X774Y259D02*
X811Y259D01*
X882Y259D02*
X919Y259D01*
X2074Y259D02*
X2111Y259D01*
X2182Y259D02*
X2218Y259D01*
X3554Y259D02*
X3591Y259D01*
X3662Y259D02*
X3699Y259D01*
X4873Y259D02*
X4910Y259D01*
X4981Y259D02*
X5018Y259D01*
X774Y258D02*
X812Y258D01*
X881Y258D02*
X919Y258D01*
X2074Y258D02*
X2112Y258D01*
X2181Y258D02*
X2218Y258D01*
X3554Y258D02*
X3592Y258D01*
X3661Y258D02*
X3699Y258D01*
X4873Y258D02*
X4911Y258D01*
X4980Y258D02*
X5018Y258D01*
X774Y257D02*
X813Y257D01*
X880Y257D02*
X919Y257D01*
X2074Y257D02*
X2112Y257D01*
X2180Y257D02*
X2218Y257D01*
X3554Y257D02*
X3593Y257D01*
X3660Y257D02*
X3699Y257D01*
X4873Y257D02*
X4912Y257D01*
X4979Y257D02*
X5018Y257D01*
X774Y256D02*
X814Y256D01*
X879Y256D02*
X919Y256D01*
X2074Y256D02*
X2114Y256D01*
X2179Y256D02*
X2218Y256D01*
X3554Y256D02*
X3594Y256D01*
X3659Y256D02*
X3699Y256D01*
X4873Y256D02*
X4913Y256D01*
X4978Y256D02*
X5018Y256D01*
X774Y255D02*
X815Y255D01*
X878Y255D02*
X919Y255D01*
X2074Y255D02*
X2115Y255D01*
X2177Y255D02*
X2218Y255D01*
X3554Y255D02*
X3595Y255D01*
X3658Y255D02*
X3699Y255D01*
X4873Y255D02*
X4914Y255D01*
X4977Y255D02*
X5018Y255D01*
X774Y254D02*
X816Y254D01*
X876Y254D02*
X919Y254D01*
X2074Y254D02*
X2116Y254D01*
X2176Y254D02*
X2218Y254D01*
X3554Y254D02*
X3596Y254D01*
X3656Y254D02*
X3699Y254D01*
X4873Y254D02*
X4916Y254D01*
X4976Y254D02*
X5018Y254D01*
X774Y253D02*
X817Y253D01*
X875Y253D02*
X919Y253D01*
X2074Y253D02*
X2117Y253D01*
X2175Y253D02*
X2218Y253D01*
X3554Y253D02*
X3597Y253D01*
X3655Y253D02*
X3699Y253D01*
X4873Y253D02*
X4917Y253D01*
X4975Y253D02*
X5018Y253D01*
X774Y252D02*
X819Y252D01*
X874Y252D02*
X919Y252D01*
X2074Y252D02*
X2118Y252D01*
X2174Y252D02*
X2218Y252D01*
X3554Y252D02*
X3599Y252D01*
X3654Y252D02*
X3699Y252D01*
X4873Y252D02*
X4918Y252D01*
X4973Y252D02*
X5018Y252D01*
X774Y251D02*
X820Y251D01*
X872Y251D02*
X919Y251D01*
X2074Y251D02*
X2120Y251D01*
X2172Y251D02*
X2218Y251D01*
X3554Y251D02*
X3600Y251D01*
X3652Y251D02*
X3699Y251D01*
X4873Y251D02*
X4920Y251D01*
X4972Y251D02*
X5018Y251D01*
X774Y250D02*
X822Y250D01*
X871Y250D02*
X919Y250D01*
X2074Y250D02*
X2122Y250D01*
X2170Y250D02*
X2218Y250D01*
X3554Y250D02*
X3602Y250D01*
X3651Y250D02*
X3699Y250D01*
X4873Y250D02*
X4921Y250D01*
X4970Y250D02*
X5018Y250D01*
X774Y249D02*
X823Y249D01*
X869Y249D02*
X919Y249D01*
X2074Y249D02*
X2123Y249D01*
X2169Y249D02*
X2218Y249D01*
X3554Y249D02*
X3604Y249D01*
X3649Y249D02*
X3699Y249D01*
X4873Y249D02*
X4923Y249D01*
X4969Y249D02*
X5018Y249D01*
X774Y248D02*
X826Y248D01*
X867Y248D02*
X919Y248D01*
X2074Y248D02*
X2125Y248D01*
X2167Y248D02*
X2218Y248D01*
X3554Y248D02*
X3606Y248D01*
X3647Y248D02*
X3699Y248D01*
X4873Y248D02*
X4925Y248D01*
X4966Y248D02*
X5018Y248D01*
X774Y247D02*
X828Y247D01*
X865Y247D02*
X919Y247D01*
X2074Y247D02*
X2128Y247D01*
X2165Y247D02*
X2218Y247D01*
X3554Y247D02*
X3608Y247D01*
X3645Y247D02*
X3699Y247D01*
X4873Y247D02*
X4927Y247D01*
X4964Y247D02*
X5018Y247D01*
X774Y246D02*
X830Y246D01*
X862Y246D02*
X919Y246D01*
X2074Y246D02*
X2130Y246D01*
X2162Y246D02*
X2218Y246D01*
X3554Y246D02*
X3611Y246D01*
X3642Y246D02*
X3699Y246D01*
X4873Y246D02*
X4930Y246D01*
X4962Y246D02*
X5018Y246D01*
X774Y245D02*
X834Y245D01*
X859Y245D02*
X919Y245D01*
X2074Y245D02*
X2134Y245D01*
X2158Y245D02*
X2218Y245D01*
X3554Y245D02*
X3614Y245D01*
X3639Y245D02*
X3699Y245D01*
X4873Y245D02*
X4933Y245D01*
X4958Y245D02*
X5018Y245D01*
X774Y244D02*
X839Y244D01*
X854Y244D02*
X919Y244D01*
X2074Y244D02*
X2139Y244D01*
X2154Y244D02*
X2218Y244D01*
X3554Y244D02*
X3619Y244D01*
X3634Y244D02*
X3699Y244D01*
X4873Y244D02*
X4938Y244D01*
X4953Y244D02*
X5018Y244D01*
X774Y243D02*
X919Y243D01*
X2074Y243D02*
X2218Y243D01*
X3554Y243D02*
X3699Y243D01*
X4873Y243D02*
X5018Y243D01*
X774Y242D02*
X919Y242D01*
X2074Y242D02*
X2218Y242D01*
X3554Y242D02*
X3699Y242D01*
X4873Y242D02*
X5018Y242D01*
X774Y241D02*
X919Y241D01*
X2074Y241D02*
X2218Y241D01*
X3554Y241D02*
X3699Y241D01*
X4873Y241D02*
X5018Y241D01*
X774Y240D02*
X919Y240D01*
X2074Y240D02*
X2218Y240D01*
X3554Y240D02*
X3699Y240D01*
X4873Y240D02*
X5018Y240D01*
X774Y239D02*
X919Y239D01*
X2074Y239D02*
X2218Y239D01*
X3554Y239D02*
X3699Y239D01*
X4873Y239D02*
X5018Y239D01*
X774Y238D02*
X919Y238D01*
X2074Y238D02*
X2218Y238D01*
X3554Y238D02*
X3699Y238D01*
X4873Y238D02*
X5018Y238D01*
X774Y237D02*
X919Y237D01*
X2074Y237D02*
X2218Y237D01*
X3554Y237D02*
X3699Y237D01*
X4873Y237D02*
X5018Y237D01*
X774Y236D02*
X919Y236D01*
X2074Y236D02*
X2218Y236D01*
X3554Y236D02*
X3699Y236D01*
X4873Y236D02*
X5018Y236D01*
X774Y235D02*
X919Y235D01*
X2074Y235D02*
X2218Y235D01*
X3554Y235D02*
X3699Y235D01*
X4873Y235D02*
X5018Y235D01*
X774Y234D02*
X919Y234D01*
X2074Y234D02*
X2218Y234D01*
X3554Y234D02*
X3699Y234D01*
X4873Y234D02*
X5018Y234D01*
X774Y233D02*
X919Y233D01*
X2074Y233D02*
X2218Y233D01*
X3554Y233D02*
X3699Y233D01*
X4873Y233D02*
X5018Y233D01*
X774Y232D02*
X919Y232D01*
X2074Y232D02*
X2218Y232D01*
X3554Y232D02*
X3699Y232D01*
X4873Y232D02*
X5018Y232D01*
X774Y231D02*
X919Y231D01*
X2074Y231D02*
X2218Y231D01*
X3554Y231D02*
X3699Y231D01*
X4873Y231D02*
X5018Y231D01*
X774Y230D02*
X919Y230D01*
X2074Y230D02*
X2218Y230D01*
X3554Y230D02*
X3699Y230D01*
X4873Y230D02*
X5018Y230D01*
X774Y229D02*
X919Y229D01*
X2074Y229D02*
X2218Y229D01*
X3554Y229D02*
X3699Y229D01*
X4873Y229D02*
X5018Y229D01*
X774Y228D02*
X919Y228D01*
X2074Y228D02*
X2218Y228D01*
X3554Y228D02*
X3699Y228D01*
X4873Y228D02*
X5018Y228D01*
X774Y227D02*
X919Y227D01*
X2074Y227D02*
X2218Y227D01*
X3554Y227D02*
X3699Y227D01*
X4873Y227D02*
X5018Y227D01*
X774Y226D02*
X919Y226D01*
X2074Y226D02*
X2218Y226D01*
X3554Y226D02*
X3699Y226D01*
X4873Y226D02*
X5018Y226D01*
X774Y225D02*
X919Y225D01*
X2074Y225D02*
X2218Y225D01*
X3554Y225D02*
X3699Y225D01*
X4873Y225D02*
X5018Y225D01*
X774Y224D02*
X919Y224D01*
X2074Y224D02*
X2218Y224D01*
X3554Y224D02*
X3699Y224D01*
X4873Y224D02*
X5018Y224D01*
X774Y223D02*
X919Y223D01*
X2074Y223D02*
X2218Y223D01*
X3554Y223D02*
X3699Y223D01*
X4873Y223D02*
X5018Y223D01*
X774Y222D02*
X919Y222D01*
X2074Y222D02*
X2218Y222D01*
X3554Y222D02*
X3699Y222D01*
X4873Y222D02*
X5018Y222D01*
X774Y221D02*
X919Y221D01*
X2074Y221D02*
X2218Y221D01*
X3554Y221D02*
X3699Y221D01*
X4873Y221D02*
X5018Y221D01*
X774Y220D02*
X919Y220D01*
X2074Y220D02*
X2218Y220D01*
X3554Y220D02*
X3699Y220D01*
X4873Y220D02*
X5018Y220D01*
X774Y219D02*
X919Y219D01*
X2074Y219D02*
X2218Y219D01*
X3554Y219D02*
X3699Y219D01*
X4873Y219D02*
X5018Y219D01*
X774Y218D02*
X918Y218D01*
X2074Y218D02*
X2218Y218D01*
X3554Y218D02*
X3698Y218D01*
X4874Y218D02*
X5018Y218D01*
D02*
G04 End of Copper1*
M02*